<svg version="1.2" xmlns="http://www.w3.org/2000/svg" viewBox="0 0 10 10" width="10" height="10">
	<title>asterisk-svg</title>
	<style>
		.s0 { fill: #00ff54 } 
	</style>
	<path id="Layer" class="s0" d="m3.5 7.7l0.4-1.2v-0.1h-0.1l-1.1 0.7-1.9 0.8-0.8-2.1 1.8-0.7 1.3-0.3h0.2l-0.2-0.1-1.1-0.6-1.6-1.2 1.4-1.8 1.5 1.2 0.9 1 0.1 0.2 0.1-0.2-0.1-1.4 0.3-1.9 2.2 0.3-0.3 1.9-0.5 1.3v0.2l0.2-0.1 1.1-0.7 1.8-0.7 0.8 2-1.8 0.7-1.3 0.3-0.1 0.1h0.1l1.2 0.6 1.5 1.2-1.3 1.8-1.6-1.2-0.9-1-0.1-0.1v0.1l0.1 1.4-0.3 1.9-2.2-0.3z"/>
</svg>