<svg height="599.366" viewBox="0 0 798.306 599.366" width="798.306" xmlns="http://www.w3.org/2000/svg"><path d="m390.279 16.845q-9.628 14.988-17.88 30.53c-23.77-5.669-47.682-10.13-71.087-13.43q8.588-15.945 18.626-31.307a3.617 3.617 0 0 1 3.575-1.6c21.717 3.351 43.779 7.7 65.689 13.081a1.8 1.8 0 0 1 1.077 2.726z" fill="#82b3fb"/><path d="m372.4 48.376a.968.968 0 0 1 -.232-.028c-23.156-5.523-47.042-10.035-70.995-13.412a1 1 0 0 1 -.741-1.465c5.691-10.571 11.968-21.131 18.668-31.38a4.62 4.62 0 0 1 4.565-2.037c22.231 3.43 44.361 7.837 65.775 13.1a2.76 2.76 0 0 1 1.927 1.677 2.812 2.812 0 0 1 -.247 2.558c-6.342 9.874-12.344 20.122-17.838 30.459a1 1 0 0 1 -.882.528zm-69.525-15.219c23.277 3.326 46.482 7.72 69 13.067 5.421-10.154 11.326-20.216 17.559-29.919a.8.8 0 0 0 .071-.735.782.782 0 0 0 -.546-.475c-21.357-5.247-43.43-9.642-65.6-13.064a2.621 2.621 0 0 0 -2.585 1.155c-6.398 9.793-12.416 19.87-17.899 29.971z" fill="#670a39"/><path d="m405.814 30.925q-9.888 14.819-18.41 30.213c-23.668-6.083-47.5-10.96-70.842-14.668q8.859-15.791 19.169-30.978a3.62 3.62 0 0 1 3.6-1.533c21.655 3.729 43.638 8.461 65.451 14.225a1.8 1.8 0 0 1 1.032 2.741z" fill="#ed7981"/><path d="m387.4 62.139a1.012 1.012 0 0 1 -.249-.032c-23.051-5.926-46.857-10.855-70.751-14.649a1 1 0 0 1 -.715-1.477c5.875-10.472 12.339-20.918 19.214-31.05a4.619 4.619 0 0 1 4.6-1.957c22.168 3.817 44.217 8.609 65.537 14.243a2.763 2.763 0 0 1 1.9 1.71 2.816 2.816 0 0 1 -.291 2.553c-6.516 9.765-12.7 19.907-18.368 30.143a1 1 0 0 1 -.877.516zm-69.266-16.43c23.215 3.732 46.34 8.53 68.766 14.269 5.6-10.055 11.675-20.013 18.078-29.608a.8.8 0 0 0 .084-.734.778.778 0 0 0 -.537-.485c-21.263-5.619-43.255-10.4-65.365-14.206a2.614 2.614 0 0 0 -2.6 1.109c-6.571 9.682-12.76 19.652-18.422 29.655z" fill="#670a39"/><path d="m796.8 166.406c-2.21 7.32-4.539 14.61-7 21.81-22.49 66.03-68.059 137.21-114.1 191.25-44.16 51.86-88.75 87.93-113.77 88.55-75.16-79.17-164.39-123.84-240.8-146.67a499.438 499.438 0 0 0 -88.28-18.21 7.9 7.9 0 0 1 -2.6-1.11c59.27-19.45 113.21-68.46 157.531-131.15a645.148 645.148 0 0 0 51.169-86.51q6.812-13.785 13.05-27.88c5.031-11.3 9.741-22.75 14.17-34.23 46.29 5.67 104.43 18.28 163.91 45.66q12.48-8.115 25.65-15.32 3.422-1.875 6.89-3.69a465.406 465.406 0 0 1 132.42 103.57c.41 1.33.61 3.94.971 6.24.342 2.32.612 4.99.789 7.69z" fill="#ffdf68"/><path d="m630.083 67.916c-46.2-17.33-113.03-27.39-155.859-32.09a595.116 595.116 0 0 0 -35.271 48.54q6.812-13.785 13.05-27.88c5.031-11.3 9.741-22.75 14.17-34.23 46.29 5.67 104.427 18.28 163.91 45.66z" fill="#ffed8d"/><path d="m798.306 166.406c-2.21 7.32-4.539 14.61-7 21.81-22.489 66.03-68.059 137.21-114.1 191.25 69.83-92.27 89.48-176.4 100.58-227.69-24.38-28.68-70.481-70.6-120.55-99.18q3.42-1.875 6.89-3.69a465.419 465.419 0 0 1 132.42 103.57c.41 1.33.61 3.94.97 6.24.341 2.32.611 4.99.79 7.69z" fill="#ffed8d"/><path d="m561.937 469.017a1 1 0 0 1 -.725-.311c-48.315-50.89-106.17-91.6-171.957-121-50.758-22.685-106.339-38.158-156.5-43.57a1.122 1.122 0 0 1 -.116-.019 8.985 8.985 0 0 1 -2.935-1.255 1 1 0 0 1 .238-1.785c43.644-14.322 86.093-45.025 126.168-91.257 36-41.532 68.847-94.693 94.988-153.733 4.838-10.89 9.6-22.393 14.145-34.188a1 1 0 0 1 1.055-.633c58.402 7.15 113.474 22.462 163.702 45.512 10.442-6.767 21.259-13.075 32.162-18.755a1 1 0 0 1 .927 0 467.319 467.319 0 0 1 132.7 103.785 1 1 0 0 1 .207.366 26.791 26.791 0 0 1 .676 3.97c.1.8.205 1.627.329 2.419.339 2.3.616 4.985.8 7.773a1 1 0 0 1 -.041.356c-2.376 7.862-4.67 15.009-7.013 21.848-20.247 59.448-60.878 128.069-111.479 188.267-47.293 56.263-92.243 91.6-117.306 92.21zm-328.911-166.866c50.352 5.439 106.123 20.967 157.045 43.725 65.886 29.446 123.848 70.2 172.282 121.127 24.246-1.011 69.439-36.824 115.384-91.483 50.448-60.016 90.948-128.4 111.118-187.625 2.317-6.766 4.587-13.835 6.938-21.605-.183-2.671-.449-5.235-.771-7.425-.126-.8-.233-1.651-.336-2.469a30.739 30.739 0 0 0 -.545-3.428 465.292 465.292 0 0 0 -131.518-102.929c-10.85 5.671-21.611 11.966-31.994 18.716a1 1 0 0 1 -.963.07c-49.955-22.99-104.736-38.29-162.843-45.483-4.475 11.573-9.15 22.856-13.9 33.551-26.22 59.219-59.176 112.553-95.3 154.233-39.565 45.644-81.469 76.254-124.6 91.023z" fill="#670a39"/><path d="m726.346 171.541a629.71 629.71 0 0 1 -26.878 61.709l-19.8-16.2c8.888-17.723 16.8-35.509 24.037-54.253.593-1.534 1.966-1.792 3.032-.539 1.816 2.132 3.592 4.439 5.013 6.418a1.982 1.982 0 0 0 1.549.744c4.116-.216 8.587-.293 11.332-.32a1.689 1.689 0 0 1 1.715 2.441z" fill="#517fb6"/><path d="m699.468 234.25a1 1 0 0 1 -.633-.226l-19.8-16.2a1 1 0 0 1 -.26-1.222c9.02-17.988 16.87-35.705 24-54.165a2.872 2.872 0 0 1 2.118-1.943 2.831 2.831 0 0 1 2.608 1.115c1.677 1.969 3.475 4.271 5.064 6.484a1.018 1.018 0 0 0 .684.328c4.051-.212 8.421-.292 11.375-.321a2.681 2.681 0 0 1 2.66 3.79 632.039 632.039 0 0 1 -26.92 61.807 1 1 0 0 1 -.894.552zm-18.546-17.466 18.211 14.9a630.564 630.564 0 0 0 26.276-60.493.712.712 0 0 0 -.767-1.09c-2.934.029-7.275.108-11.29.319a2.974 2.974 0 0 1 -2.413-1.159c-1.558-2.17-3.32-4.426-4.962-6.354-.265-.311-.549-.475-.751-.44s-.436.3-.587.692c-7.056 18.274-14.818 35.825-23.717 53.625z" fill="#670a39"/><path d="m740.693 230.056c-19.929 47.31-45.219 91.52-74.7 130.45-29.8 39.36-63.891 73.3-101.031 99.58l-206.32-175.84 135.06-156q12.21 1.5 25.19 3.63c40.54 6.71 86.09 18.42 132.13 38.51.02.02.051.02.07.04a476.481 476.481 0 0 1 86.58 48.88 8.929 8.929 0 0 1 3.021 10.75z" fill="#670a39"/><path d="m564.963 461.086a1 1 0 0 1 -.649-.239l-206.314-175.84a1 1 0 0 1 -.108-1.415l135.06-156a1 1 0 0 1 .878-.338c8.4 1.032 16.891 2.255 25.232 3.635 46.988 7.778 91.523 20.758 132.366 38.581a.849.849 0 0 1 .116.06 478.854 478.854 0 0 1 86.715 48.962 9.872 9.872 0 0 1 3.361 11.952 606 606 0 0 1 -74.829 130.666c-30.461 40.232-64.526 73.807-101.25 99.793a1 1 0 0 1 -.578.183zm-204.9-176.947 204.957 174.681c36.314-25.8 70.016-59.081 100.176-98.917a604.044 604.044 0 0 0 74.576-130.235 7.882 7.882 0 0 0 -2.68-9.546 476.882 476.882 0 0 0 -86.4-48.777 1.071 1.071 0 0 1 -.117-.06c-40.68-17.747-85.038-30.673-131.847-38.42-8.139-1.347-16.419-2.544-24.62-3.559z" fill="#670a39"/><path d="m734.983 215.826c-18.75 47.79-42.94 92.61-71.449 132.26-30.281 42.11-65.441 78.37-104.1 106.13-1.209.86-2.41 1.73-3.62 2.57-1.04.74-2.089 1.46-3.15 2.2-.81-.85-1.66-1.69-2.5-2.52-.76-.76-1.53-1.51-2.31-2.27-97.4-95.28-220.8-139.54-311.01-150.54-.32-.03-.66-.09-1.01-.12-4.21-.51-4.37-2.02-.359-3.46 65.719-23.83 123.649-83.89 170.429-158.02q7.725-12.24 14.94-24.93a634.455 634.455 0 0 1 89.981 6.04c40.69 5.7 86.519 16.28 133.04 35.23.019.02.049.02.069.03a476.084 476.084 0 0 1 87.76 46.73 8.932 8.932 0 0 1 3.289 10.67z" fill="#c36b62"/><path d="m734.983 215.826c-18.75 47.79-42.94 92.61-71.449 132.26 32.3-57.09 54.179-118.33 57.089-134.3-38.78-41.68-131.03-68.3-209.8-90.62 40.69 5.7 86.519 16.28 133.04 35.23.019.02.049.02.069.03a476.084 476.084 0 0 1 87.76 46.73 8.932 8.932 0 0 1 3.291 10.67z" fill="#e48860"/><path d="m552.664 459.987a1 1 0 0 1 -.723-.308c-.8-.839-1.64-1.677-2.479-2.5-.719-.719-1.447-1.431-2.174-2.142l-.129-.126c-44.924-43.941-98.059-79.833-157.917-106.676-63.255-28.365-117.854-39.357-152.518-43.582-.146-.016-.306-.038-.468-.059s-.348-.047-.524-.065c-1.7-.2-3.972-.658-4.153-2.255s1.946-2.557 3.561-3.136c59.774-21.678 118.532-76.182 169.919-157.62 5.141-8.144 10.159-16.517 14.914-24.888a1 1 0 0 1 .865-.506c55.069-.225 138.513 6.769 223.4 41.345a.966.966 0 0 1 .1.046 477.881 477.881 0 0 1 87.914 46.81 10 10 0 0 1 3.664 11.866c-39.635 101.025-102.105 185.845-175.9 238.836-1.233.883-2.429 1.741-3.626 2.58-.774.548-1.551 1.087-2.335 1.631l-.818.568a1 1 0 0 1 -.573.181zm-318.912-157.959a7.342 7.342 0 0 0 2.2.514c.18.018.374.044.564.069l.436.055c34.812 4.244 89.622 15.277 153.106 43.744 60.077 26.939 113.4 62.965 158.5 107.074l.129.126c.733.716 1.466 1.433 2.183 2.15.643.629 1.29 1.273 1.923 1.921l.121-.084c.779-.541 1.551-1.077 2.323-1.623 1.194-.838 2.385-1.691 3.577-2.545 73.524-52.793 135.748-137.3 175.243-237.966a7.988 7.988 0 0 0 -2.924-9.479 475.95 475.95 0 0 0 -87.576-46.626.863.863 0 0 1 -.092-.043l-.015-.007c-84.28-34.322-167.15-41.358-222.025-41.186-4.684 8.229-9.62 16.457-14.675 24.464-51.625 81.816-110.733 136.6-170.932 158.433a7.4 7.4 0 0 0 -2.066 1.009z" fill="#670a39"/><path d="m676.764 233.856c-2.081 34.82-13.551 69.27-29.871 101.74-23.937 47.674-56.265 79.357-92.66 118.87a537.494 537.494 0 0 0 -126.239-97.91l-4-205.5c34.4 1.47 73.709 5.23 116.23 16.32a451 451 0 0 1 91.659 34.87c.12.06.24.13.361.19 13.319 6.81 26.8 14.51 40.409 23.24a9.043 9.043 0 0 1 4.111 8.18z" fill="#670a39"/><path d="m554.233 455.466a1 1 0 0 1 -.725-.312 535.772 535.772 0 0 0 -126.008-97.727 1 1 0 0 1 -.508-.851l-4-205.5a1 1 0 0 1 .3-.735 1.01 1.01 0 0 1 .742-.284c27.594 1.179 69.685 4.157 116.44 16.351a454.987 454.987 0 0 1 91.861 34.947l.354.187c13.7 7 27.325 14.84 40.5 23.292a10.057 10.057 0 0 1 4.569 9.08c-1.912 32-12 66.359-29.975 102.129-21.092 42.006-48.269 71.2-79.738 105q-6.442 6.919-13.08 14.1a1 1 0 0 1 -.728.322zm-125.251-99.5a537.834 537.834 0 0 1 125.24 97.034q6.265-6.795 12.364-13.323c31.363-33.685 58.45-62.777 79.414-104.529 17.856-35.527 27.87-69.626 29.765-101.351a8.056 8.056 0 0 0 -3.649-7.279c-13.125-8.418-26.692-16.221-40.328-23.193l-.352-.185a452.915 452.915 0 0 0 -91.465-34.8c-45.971-11.987-87.444-15.032-114.957-16.24z" fill="#670a39"/><path d="m692.407 216.186a629.533 629.533 0 0 1 -41.846 56.02l-15.526-20.33a610.955 610.955 0 0 0 37.576-49.686c6.456-1.353 11.593-2.244 16.006-3.143 1.324 5.105 3.79 17.139 3.79 17.139z" fill="#517fb6"/><path d="m650.561 273.206h-.023a1 1 0 0 1 -.772-.393l-15.526-20.33a1 1 0 0 1 .029-1.25 609.4 609.4 0 0 0 37.514-49.6 1 1 0 0 1 .623-.417c3.828-.8 7.22-1.448 10.214-2.018 2.08-.4 4-.761 5.8-1.127a1 1 0 0 1 1.167.728c1.316 5.072 3.777 17.07 3.8 17.191a1 1 0 0 1 -.147.754 632.559 632.559 0 0 1 -41.913 56.108 1 1 0 0 1 -.766.354zm-14.246-21.3 14.281 18.7a630.778 630.778 0 0 0 40.748-54.625c-.415-2.009-2.271-10.948-3.463-15.765-1.533.306-3.155.614-4.887.944-2.881.548-6.134 1.167-9.783 1.928a610.835 610.835 0 0 1 -36.896 48.812z" fill="#670a39"/><path d="m669.313 217.036c-1 34.87-11.39 69.66-26.69 102.62-22.259 47.97-54.91 92.06-84.089 126.93-1.1 1.31-2.181 2.59-3.261 3.87-1.73 2.03-3.42 4.05-5.11 6.01-.76-.76-1.53-1.51-2.31-2.27-97.4-95.28-220.8-139.54-311.01-150.54-.32-.03-.66-.09-1.01-.12-4.19-.51-4.35-2.02-.37-3.46 59.8-21.7 112.9-73.43 157.571-138.48q6.584-9.585 12.869-19.54c36.321.11 78.591 2.22 124.87 12.77a450.62 450.62 0 0 1 92.7 32.01c.119.05.25.12.369.18 13.521 6.39 27.24 13.67 41.11 21.97a9.054 9.054 0 0 1 4.361 8.05z" fill="#df5468"/><path d="m642.623 319.656c14.391-49.7 14.01-92.57 13.11-103.24-9.119-8.99-57.82-39.74-124.96-61.59a450.62 450.62 0 0 1 92.7 32.01c.119.05.25.12.369.18 13.521 6.39 27.24 13.67 41.11 21.97a9.054 9.054 0 0 1 4.36 8.05c-.999 34.87-11.389 69.664-26.689 102.62z" fill="#ed7981"/><path d="m550.163 457.466a1 1 0 0 1 -.707-.293c-.738-.738-1.486-1.467-2.243-2.2-44.979-44-98.108-79.891-157.97-106.734-63.255-28.365-117.855-39.358-152.521-43.585-.133-.012-.3-.034-.467-.057s-.335-.045-.507-.059c-1.718-.209-3.976-.666-4.157-2.261s1.929-2.556 3.532-3.136c55.014-19.963 107.865-66.429 157.086-138.106 4.39-6.39 8.712-12.953 12.848-19.507a1.01 1.01 0 0 1 .849-.467c32.539.1 76.163 1.642 125.089 12.795a454.579 454.579 0 0 1 92.9 32.081c.073.029.2.091.313.151 13.966 6.6 27.826 14.01 41.254 22.045a10.074 10.074 0 0 1 4.846 8.936c-.919 32.049-9.93 66.707-26.783 103.012-18.566 40.019-46.118 81.609-84.225 127.147-1.1 1.312-2.182 2.592-3.263 3.873q-1 1.172-1.973 2.327-1.581 1.869-3.143 3.691a1 1 0 0 1 -.721.346zm-316.4-155.441a7.208 7.208 0 0 0 2.2.519c.169.013.37.04.565.066.143.019.283.038.418.051 34.83 4.246 89.641 15.281 153.124 43.748 60.078 26.94 113.4 62.965 158.492 107.072.54.527 1.052 1.026 1.552 1.519q1.212-1.418 2.432-2.864.981-1.16 1.975-2.328c1.077-1.276 2.156-2.556 3.256-3.865 37.991-45.4 65.452-86.847 83.948-126.708 16.738-36.057 25.686-70.451 26.6-102.227a8.072 8.072 0 0 0 -3.874-7.165c-13.372-8-27.175-15.378-41.024-21.924l-.112-.056c-.072-.037-.146-.076-.217-.105a452.691 452.691 0 0 0 -92.547-31.958c-48.458-11.046-91.722-12.629-124.1-12.743-4.06 6.42-8.3 12.845-12.595 19.1-49.456 72.033-102.637 118.75-158.056 138.859a7.27 7.27 0 0 0 -2.042 1.009z" fill="#670a39"/><path d="m629.312 244.954a8.023 8.023 0 0 1 3.425 7.675c-7 51.825-39.771 124.728-70.062 172.357-1.125 1.77-4.181 11.04-5.1 12.89q-3.421 6.915-6.781 13.32a518.946 518.946 0 0 0 -64.794-51.38l4.52-214.844c64.063 20.651 105.173 36.857 138.792 59.982z" fill="#670a39"/><path d="m550.793 452.2a1 1 0 0 1 -.682-.269 519.669 519.669 0 0 0 -64.666-51.281 1 1 0 0 1 -.445-.85l4.52-214.844a1 1 0 0 1 1.307-.931c61.579 19.852 104.072 36.051 139.049 60.11a8.98 8.98 0 0 1 3.849 8.633c-3.275 24.246-12.393 54.677-26.366 88-12.551 29.934-28.121 60.034-43.843 84.755a72.3 72.3 0 0 0 -3.042 7.609c-.859 2.345-1.6 4.37-2.008 5.189-2.191 4.431-4.476 8.919-6.79 13.339a1 1 0 0 1 -.718.522.952.952 0 0 1 -.165.018zm-63.779-52.905a521.973 521.973 0 0 1 63.5 50.279c2.1-4.03 4.17-8.107 6.163-12.137.359-.722 1.118-2.8 1.922-4.989a63.1 63.1 0 0 1 3.232-7.994c40.727-64.039 64.791-134.027 69.915-171.954a6.99 6.99 0 0 0 -3-6.718c-34.534-23.754-76.539-39.835-137.251-59.442z" fill="#670a39"/><path d="m624.963 244.212c-8.945 46.885-39.183 129.264-67.549 190.153-.917 1.98-1.853 3.941-2.77 5.885-2.286 4.823-4.555 9.486-6.786 13.949-97.408-95.283-220.8-139.542-311.013-150.539-.324-.036-.666-.09-1.008-.126a1.783 1.783 0 0 1 -.378-3.455c59.808-21.706 112.9-73.434 157.577-138.481 67.187 10.979 146.524 31.155 208.512 62.707.269.126.522.27.791.4 6.281 3.2 12.4 6.534 18.286 9.989a9.041 9.041 0 0 1 4.338 9.518z" fill="#af4357"/><path d="m547.858 455.2a1 1 0 0 1 -.7-.285c-44.923-43.945-98.058-79.837-157.916-106.68-63.255-28.365-117.854-39.357-152.518-43.582-.146-.017-.306-.038-.468-.059s-.348-.047-.524-.065a2.783 2.783 0 0 1 -.612-5.391c55.013-19.966 107.867-66.432 157.091-138.106a1 1 0 0 1 .986-.421c46.986 7.678 136.593 26.047 208.8 62.8.116.053.259.127.4.2.118.061.236.122.359.179 6.482 3.306 12.652 6.677 18.37 10.034a10.082 10.082 0 0 1 4.814 10.571c-9.593 50.287-41.281 133.841-67.624 190.388-.669 1.443-1.348 2.878-2.023 4.3l-.75 1.587c-2.275 4.8-4.561 9.5-6.795 13.969a1 1 0 0 1 -.729.539.93.93 0 0 1 -.161.022zm-154.358-292.512c-49.363 71.726-102.42 118.268-157.7 138.331a.783.783 0 0 0 .161 1.523c.174.018.368.044.558.069l.436.055c34.812 4.244 89.622 15.277 153.106 43.744 59.641 26.744 112.63 62.443 157.514 106.116 2.033-4.087 4.1-8.355 6.165-12.7l.751-1.587c.672-1.421 1.349-2.851 2.016-4.291 26.292-56.436 57.911-139.793 67.474-189.92a8.078 8.078 0 0 0 -3.86-8.47c-5.686-3.338-11.821-6.69-18.236-9.963-.115-.053-.258-.126-.4-.2-.118-.061-.236-.122-.359-.179-71.681-36.489-160.587-54.809-207.626-62.528z" fill="#670a39"/><path d="m510.4 495.116a72.325 72.325 0 0 1 -5.01 27.25 61.64 61.64 0 0 1 -15.149 22.11 65.125 65.125 0 0 1 -11.031 8.29 66.221 66.221 0 0 1 -21.91 8.3c-24.1 4.46-44.93-6.5-33.35-29.87.161-.32.32-.63.49-.95 5.18-9.86 10-17.14 13.54-24.02 5.32-10.36 7.69-19.8 3.92-35.73-.05-.2-.1-.41-.15-.61-.009-.05-.02-.1-.029-.15a1.588 1.588 0 0 1 -.051-.22 39.008 39.008 0 0 1 -.25-18.63 31.341 31.341 0 0 1 13.13-18.64q.782-.525 1.59-.99c.25-.15.5-.3.76-.44a33.9 33.9 0 0 1 25.421-2.96c24.443 7.01 28.079 44.43 28.079 67.26z" fill="#ffae5d"/><path d="m510.4 495.116a76.165 76.165 0 0 1 -2.248 18.771 8.346 8.346 0 0 1 -15.1 2.421c-3.944-6.2-5.792-16.427-4.522-28.217 4.341-40.322-8.18-62.725-26.36-59.615a33.37 33.37 0 0 1 20.151-.62c24.443 7.01 28.079 44.43 28.079 67.26z" fill="#e48860"/><path d="m471.063 440.406-.69 6.47-1.859 17.56c-2.121.59-4.23 1.13-6.341 1.63q-5.61 1.335-11.17 2.24h-.04c-1.17.19-2.33.37-3.489.53a.8.8 0 0 1 -.161.02c-1.89.26-3.77.49-5.64.66a129.993 129.993 0 0 1 -17.679.57 111.051 111.051 0 0 1 -15.941-1.72 92.629 92.629 0 0 1 -37.41-15.48 93.833 93.833 0 0 1 -26.85-30.06c-15.52-27.27-18.09-62.9-12.12-88.92.03-.14.54-2.73.571-2.79a173.709 173.709 0 0 1 13.569-39.5 18 18 0 0 1 32.44 15.63c-20.31 41.46-17.84 85.89 5.721 109.64a55.527 55.527 0 0 0 10.149 8.1 61.538 61.538 0 0 0 25.22 8.65c9.84 1.22 20.97.58 33.36-2.3a12 12 0 0 1 3.44-.08c5.9.53 15.5 3.68 14.92 9.15z" fill="#ffae5d"/><path d="m458.651 466.948c-10.874 2.357-16.972 2.605-16.978 2.568-41.476 4.086-77.218-10.845-97.88-46.69-22.314-39.209-17.983-90.164 2.02-131.21a18 18 0 0 1 32.44 15.63c-20.31 41.46-17.84 85.89 5.721 109.64 6.511 15.808 33.077 31.723 63.754 32.007 20.789.193 19.804 16.13 10.923 18.055z" fill="#ffae5d"/><path d="m395.528 465.253a89.98 89.98 0 0 1 -24.885-12.367l23.48-27.9c7.141 4.45 11.386 7.171 21.045 8.372-15.268 7.506-20.175 23.542-19.64 31.895z" fill="#670a39"/><path d="m395.528 466.253a.99.99 0 0 1 -.3-.048 91.176 91.176 0 0 1 -25.16-12.5 1 1 0 0 1 -.186-1.459l23.48-27.9a1 1 0 0 1 1.294-.2l.326.2c6.872 4.284 11.02 6.87 20.314 8.024a1 1 0 0 1 .317 1.89c-14.876 7.314-19.6 22.855-19.083 30.934a1 1 0 0 1 -1 1.064zm-23.416-13.553a89.12 89.12 0 0 0 22.378 11.16 36.988 36.988 0 0 1 17.585-29.96c-7.588-1.357-11.838-3.93-17.745-7.611z" fill="#670a39"/><path d="m489.072 530.058a21.231 21.231 0 0 1 -9.743 22.638l-.116.07a66.221 66.221 0 0 1 -21.91 8.3c-24.1 4.46-44.93-6.5-33.35-29.87.161-.32.32-.63.49-.95 5.18-9.86 10-17.14 13.54-24.02a43.222 43.222 0 0 1 28.625-1.216 32.919 32.919 0 0 1 22.277 24.212q.096.419.187.836z" fill="#ffca62"/><path d="m386.231 456.039a15.2 15.2 0 0 1 -13.67-1.876c-.544-.369-1.118-.767-1.713-1.191-36.3-25.734-49.074-75.9-39.175-119.066.027-.138.537-2.725.571-2.79a173.578 173.578 0 0 1 13.569-39.5 18 18 0 0 1 32.44 15.63c-4.027 8.215-16.055 17.178-18.387 27.235-17.541 32.69-6.188 82.216 26.057 107.835 7.777 6.174 6.416 11.496.308 13.723z" fill="#ffca62"/><path d="m428.2 471.332c-41.21 0-64.924-20.665-76.412-35-14.139-17.639-22.347-40.52-23.735-66.167-1.416-26.153 4.415-53.467 16.864-78.99a19 19 0 0 1 34.239 16.5c-18.4 37.525-17.726 79.325 1.674 104.013a1 1 0 1 1 -1.573 1.236c-19.864-25.281-20.628-67.927-1.9-106.118a17 17 0 0 0 -30.642-14.755c-12.3 25.221-18.064 52.195-16.666 78.009 1.366 25.227 9.422 47.713 23.3 65.025 24.273 30.282 62.841 40.943 108.594 30.019a1 1 0 1 1 .465 1.945 147.253 147.253 0 0 1 -34.208 4.283z" fill="#670a39"/><path d="m446.9 563.025c-8.992 0-16.925-2.333-21.939-7.079-6.527-6.18-7.026-15.472-1.4-26.165 2.713-5.158 5.364-9.676 7.7-13.663 9.073-15.461 14.55-24.793 9.668-45.391a1 1 0 1 1 1.946-.461c5.067 21.379-.883 31.518-9.889 46.864-2.329 3.968-4.968 8.465-7.659 13.582-5.243 9.971-4.894 18.194 1.008 23.781 10.255 9.708 33.746 8.548 52.364-2.585 11.467-6.853 30.7-23.344 30.7-56.792 0-20.653-2.952-47.92-17.017-60.535a1.094 1.094 0 0 1 -.083-.084 26.372 26.372 0 0 0 -10.255-5.679 33.47 33.47 0 0 0 -22.857 1.867 1.046 1.046 0 0 1 -.145.053 110.945 110.945 0 0 1 -30.068 4.515c-20.865 0-37.945-7.484-49.528-22.075a1 1 0 0 1 1.567-1.244c16.209 20.419 43.7 26.421 77.41 16.9a35.5 35.5 0 0 1 24.177-1.934 28.368 28.368 0 0 1 11.121 6.185.945.945 0 0 1 .089.09c14.539 13.141 17.6 40.928 17.6 61.946 0 34.435-19.846 51.438-31.677 58.509a65.754 65.754 0 0 1 -32.833 9.395z" fill="#670a39"/><path d="m519.843 377.576a17.99 17.99 0 0 1 -17.479 18.52 141.6 141.6 0 0 0 -43.431 7.95v.01c-60.806 21.359-99.107 83.431-104.79 147.88-1.375 15.567 3 42.01-36.09 42.01-8.76 0-.18-54.11 3.82-73.28 18.117-86.8 87.1-157.628 179.451-160.54a17.971 17.971 0 0 1 18.519 17.45z" fill="#ffae5d"/><path d="m561.464 468.021a16.551 16.551 0 0 1 -2.123-2.212c.72.737 1.422 1.475 2.123 2.212z" fill="#fff"/><path d="m561.457 469.019a.989.989 0 0 1 -.645-.239 17.5 17.5 0 0 1 -2.253-2.348 1 1 0 0 1 1.5-1.322c.72.737 1.422 1.475 2.123 2.212a1 1 0 0 1 -.722 1.7z" fill="#670a39"/><path d="m796.324 166.406c-36 119.248-110.294 238.924-214 302.99-10.16 7.112-25.354.548-26.58-12.5-4.585-8.951-14.952-181.943 104.659-318.52a46.8 46.8 0 0 1 1.171 12.78c-70.726 85.8-104.241 200.165-97.6 299.75a1.077 1.077 0 0 1 .009.17c.686 9.911 7.9 15.5 19.56 8.02 90.38-56.9 163.08-160.54 202.51-279.1l8.51-27.52c.411 1.33.61 3.94.971 6.24.339 2.32.609 4.99.79 7.69z" fill="#dabc6c"/><path d="m573.007 473.332a18.637 18.637 0 0 1 -7.826-1.756 17.811 17.811 0 0 1 -10.416-14.415c-2.366-5.555-5.954-50.832 5.753-111.854 10.578-55.142 36.364-135.918 99.133-207.59a1 1 0 0 1 1.707.361 47.717 47.717 0 0 1 1.208 13.2.992.992 0 0 1 -.221.512c-33.9 41.131-60.75 91.053-77.63 144.371-16.243 51.3-23.07 104.788-19.744 154.677a1.325 1.325 0 0 1 .012.236c.323 4.628 2.2 8.172 5.148 9.654 3.307 1.662 7.758.806 12.872-2.475 87.984-55.392 161.645-156.927 202.1-278.574l.26-.843v-.011l8.24-26.646a1 1 0 0 1 .955-.705 1 1 0 0 1 .955.705 27.152 27.152 0 0 1 .672 3.954c.1.8.206 1.633.331 2.426.337 2.307.614 4.993.8 7.779a.991.991 0 0 1 -.04.355c-18.647 61.763-46.913 121.4-81.742 172.463-38.42 56.326-83.063 100.431-132.69 131.089a17.078 17.078 0 0 1 -9.837 3.087zm86.866-332.825c-61.54 70.965-86.932 150.656-97.391 205.177a443.686 443.686 0 0 0 -8.14 76.886c-.261 20.264 1.364 32.059 2.292 33.87a1.019 1.019 0 0 1 .105.363 15.832 15.832 0 0 0 9.282 12.958 15.672 15.672 0 0 0 15.729-1.184c49.435-30.541 93.876-74.452 132.136-130.546 34.684-50.851 62.838-110.23 81.428-171.739-.183-2.669-.448-5.235-.77-7.431-.1-.659-.194-1.35-.281-2.03l-7.228 23.374-.024.079v.007l-.009.027c-40.609 122.09-114.567 224-202.924 279.625-7.248 4.649-12.073 3.966-14.843 2.574-3.595-1.807-5.872-5.952-6.247-11.372 0-.01 0-.1 0-.11-3.35-50.2 3.508-103.939 19.825-155.476 16.925-53.458 43.828-103.526 77.8-144.807a49.678 49.678 0 0 0 -.74-10.245z" fill="#670a39"/><path d="m660.393 502.936-37.45 11.92c-3.09-12.88-6.39-24.77-9.92-35.77-.009-.01-.02-.01-.009-.02q-2.446-7.62-5.051-14.69c-8.639-23.53-18.56-42.62-30.01-58.5q-2.444-3.39-4.979-6.59c-21.721-27.38-48.681-44.65-82.451-59.34-12.35-5.38-25.61-10.41-39.85-15.47-6.92-2.46-14.07-4.92-21.47-7.43-13.31-4.51-26.979-8.69-40.8-12.65l-2.82-38.19c18.59 5.13 37.12 10.63 55.19 16.76q6.72 2.28 13.32 4.57c20.1 6.99 39.271 14.17 57.4 22.6 24.8 11.54 47.6 25.38 68.089 44.19.3.27.61.56.9.83 5.6 5.17 10.91 10.33 15.94 15.56 3.74 3.89 7.321 7.82 10.75 11.83 25.511 29.82 42.791 64.39 53.221 120.39z" fill="#ffae5d"/><path d="m388.4 304.4c-21.11-6.06-42.57-11.61-63.59-17.04-9.38-2.43-18.68-4.83-27.88-7.26h-.02c-30.6-8.08-60.04-16.39-87.53-26.53q-3.4-1.245-6.76-2.53a393.853 393.853 0 0 1 -41.31-18.43c-55.4-28.91-89.339-67.98-103.739-119.5a18 18 0 1 1 34.659-9.7 137.662 137.662 0 0 0 24.83 49.01c22.29 28.18 55.13 47.67 93.67 63.03 9.15 3.65 18.62 7.06 28.341 10.3 19.229 6.42 39.449 12.16 60.179 17.71q17.115 4.56 34.58 9.03c17.08 4.42 34.44 8.91 51.75 13.72z" fill="#ffca62"/><path d="m239.074 225.746c-.83 5.16-1.83 11.17-3.031 18.16-61.86-22.1-104.84-61.55-119.21-91.5l.23.01c22.29 28.18 55.13 47.67 93.67 63.03 9.15 3.654 18.62 7.06 28.341 10.3z" fill="#ffae5d"/><path d="m613.023 479.086c-.009-.01-.02-.01-.009-.02q-2.446-7.62-5.051-14.69c-8.639-23.53-18.56-42.62-30.01-58.5q-2.444-3.39-4.979-6.59c-21.721-27.38-48.681-44.65-82.451-59.34-12.35-5.38-25.61-10.41-39.85-15.47l3.42-36.94c20.1 6.99 39.271 14.17 57.4 22.6 24.8 11.54 47.6 25.38 68.089 44.19.3.27.61.56.9.83 5.6 5.17 10.91 10.33 15.94 15.56 3.74 3.89 7.321 7.82 10.75 11.83 14.691 29.42 24.7 62.4 26.051 84.37 1.41 22.89-12.223 24.81-20.2 12.17z" fill="#ffca62"/><g fill="#670a39"><path d="m299.253 243.456-2.09 36.59s-.07.02-.23.05h-.02c-30.6-8.08-60.04-16.39-87.53-26.53q-3.4-1.245-6.76-2.53c-.109-.07-.21-.14-.32-.21 9.33-5.02 15.05-21.16 8.43-35.38 27.241 10.86 57.31 19.66 88.52 28.01z"/><path d="m296.933 281.1a1.156 1.156 0 0 1 -.275-.033c-28.55-7.539-58.924-15.974-87.621-26.559q-3.408-1.246-6.772-2.534a.972.972 0 0 1 -.179-.091l-.318-.208a1 1 0 0 1 .061-1.725c9.008-4.847 14.342-20.45 8-34.078a1 1 0 0 1 1.277-1.351c29.03 11.574 60.981 20.635 88.408 27.973a1 1 0 0 1 .739 1.023l-2.089 36.59a1.02 1.02 0 0 1 -.725.9s-.1.029-.319.071a1.044 1.044 0 0 1 -.187.022zm-92.479-30.432q2.623 1 5.273 1.963c28.306 10.441 58.274 18.791 86.5 26.254l1.981-34.669c-26.61-7.129-57.385-15.877-85.635-26.962a31.821 31.821 0 0 1 .89 19.6c-1.62 5.899-4.921 10.917-9.009 13.81z"/><path d="m577.953 405.876q-2.444-3.39-4.979-6.59c-21.721-27.38-48.681-44.65-82.451-59.34l20.971-29.81c24.8 11.54 47.6 25.38 68.089 44.19.3.27.61.56.9.83 5.6 5.17 10.91 10.33 15.94 15.56-13.679.73-22.75 21.084-18.47 35.16z"/><path d="m577.954 406.876a1 1 0 0 1 -.812-.415c-1.64-2.274-3.306-4.479-4.952-6.553-19.821-24.986-44.364-42.644-82.066-59.045a1 1 0 0 1 -.419-1.492l20.971-29.81a1 1 0 0 1 1.239-.331c27.7 12.889 49.418 26.985 68.345 44.36.262.236.539.494.8.74l.1.094c5.865 5.416 11.093 10.519 15.979 15.6a1 1 0 0 1 -.668 1.692c-4.772.254-9.341 3.165-12.866 8.2-5.216 7.445-7.105 17.763-4.7 25.675a1 1 0 0 1 -.956 1.291zm-85.908-67.356c36.9 16.2 62.137 34.471 81.711 59.145q1.155 1.455 2.318 2.989a34.526 34.526 0 0 1 5.9-22.892c3.387-4.834 7.708-7.895 12.339-8.791-4.459-4.579-9.221-9.2-14.506-14.08l-.1-.1c-.256-.239-.525-.49-.786-.725-18.613-17.076-39.945-30.966-67.093-43.666z"/><path d="m622.943 515.856a1 1 0 0 1 -.972-.766c-3.047-12.7-6.366-24.674-9.866-35.591a1.044 1.044 0 0 1 -.075-.225c-1.641-5.108-3.325-10-5-14.551-8.466-23.058-18.241-42.115-29.883-58.262-1.64-2.274-3.306-4.479-4.952-6.553-19.821-24.986-44.364-42.644-82.066-59.045-11.11-4.84-23.752-9.747-39.786-15.445-6.171-2.193-12.989-4.553-21.456-7.425-33.782-11.451-69.641-20.712-104.319-29.668l-4.132-1.071q-11.939-3.09-23.683-6.172a.794.794 0 0 1 -.09-.019c-28.549-7.539-58.924-15.974-87.621-26.559q-3.408-1.245-6.772-2.534a391.958 391.958 0 0 1 -41.414-18.477c-55.672-29.052-89.769-68.343-104.24-120.118a19 19 0 1 1 36.584-10.238c7.5 26.813 21.651 49.125 43.267 68.211 18.64 16.458 43.055 30.579 74.641 43.169 29.03 11.574 60.981 20.635 88.408 27.973 11.957 3.186 24.114 6.33 34.571 9.028l1.075.278c35.075 9.086 71.345 18.481 105.937 30.223q6.723 2.282 13.326 4.573c16.268 5.657 37.5 13.343 57.494 22.638 27.7 12.889 49.418 26.985 68.345 44.36.262.236.539.494.8.74l.1.094c5.865 5.416 11.093 10.519 15.979 15.6 3.81 3.963 7.44 7.958 10.789 11.873 27.717 32.4 43.7 68.544 53.443 120.857a1 1 0 0 1 -.679 1.136l-37.451 11.92a.983.983 0 0 1 -.302.046zm-9-37.15q.015.036.027.075c3.432 10.693 6.69 22.394 9.689 34.8l35.584-11.327c-9.69-51.478-25.515-87.119-52.835-119.055-3.324-3.886-6.927-7.852-10.711-11.787-4.857-5.051-10.058-10.127-15.9-15.518l-.1-.1c-.256-.238-.525-.489-.786-.724-18.778-17.238-40.333-31.225-67.842-44.026-19.909-9.257-41.084-16.92-57.307-22.562q-6.6-2.295-13.313-4.568c-34.522-11.718-70.756-21.1-105.8-30.181l-1.073-.278c-10.46-2.7-22.622-5.844-34.587-9.032-27.484-7.353-59.506-16.435-88.633-28.047-31.8-12.677-56.408-26.915-75.224-43.528-21.907-19.348-36.257-41.976-43.862-69.172a17 17 0 1 0 -32.733 9.161c14.314 51.213 48.084 90.1 103.239 118.883a389.893 389.893 0 0 0 41.2 18.382q3.354 1.289 6.746 2.525c28.6 10.549 58.89 18.962 87.371 26.484.032 0 .063.011.091.018q11.767 3.109 23.743 6.189l4.132 1.07c34.713 8.965 70.608 18.236 104.46 29.711 8.477 2.875 15.3 5.238 21.484 7.435 16.078 5.713 28.762 10.637 39.915 15.5 37.515 16.32 63.062 34.712 82.834 59.636 1.665 2.1 3.35 4.328 5.007 6.626 11.75 16.3 21.608 35.511 30.138 58.74 1.703 4.581 3.397 9.518 5.051 14.67z"/><path d="m172.379 251.578a1 1 0 0 1 -.406-.086c-25.534-11.375-47.265-25.3-64.587-41.388a1 1 0 1 1 1.361-1.465c17.161 15.938 38.707 29.741 64.04 41.026a1 1 0 0 1 -.408 1.913z"/></g><path d="m519.843 377.576a17.99 17.99 0 0 1 -17.479 18.52 141.9 141.9 0 0 0 -41.25 7.2c-.731.25-1.461.5-2.181.75v.01c-.74.26-1.48.53-2.209.81-43.23 9.18-77.98 34.39-101.521 75.68-10.02 17.58-23.58 38.73-33.33 40.12a221.007 221.007 0 0 1 45.67-94.4c13.42-16.06 32.52-33.95 58.08-47.07.02-.01.03-.02.05-.03.49-.25 1-.51 1.5-.76a173.941 173.941 0 0 1 71.29-18.17c.95-.05 1.9-.08 2.861-.11a17.971 17.971 0 0 1 18.519 17.45z" fill="#ffca62"/><path d="m572.974 331.3q-3.453 14.344-5.711 28.649c-1.963 12.416-2.751 24.5-4.18 36.9-2.238-1.334-4.365-2.7-7.033-4.075a349.785 349.785 0 0 1 3.782-35.642c1.572-9.967 3.161-20.177 5.61-30.186.869.492 2.163 1.184 3.039 1.692 1.496.862 2.998 1.751 4.493 2.662z" fill="#dabc6c"/><path d="m519.843 377.576a17.99 17.99 0 0 1 -17.479 18.52 141.9 141.9 0 0 0 -41.25 7.2c-.731.25-1.461.5-2.181.75.28-12.45-17.41-28.13-33.31-24.85.02-.01.03-.02.05-.03a181.948 181.948 0 0 1 72.79-18.93c.95-.05 1.9-.08 2.861-.11a17.971 17.971 0 0 1 18.519 17.45z" fill="#670a39"/><path d="m458.933 405.046a1 1 0 0 1 -1-1.022c.122-5.461-3.55-11.978-9.584-17.009-6.916-5.765-15.338-8.322-22.525-6.839a1 1 0 0 1 -.7-1.846c.034-.021.075-.045.1-.058a182.862 182.862 0 0 1 73.193-19.035c.94-.049 1.889-.079 2.848-.11a18.973 18.973 0 0 1 19.576 18.42 18.991 18.991 0 0 1 -18.449 19.553 141.486 141.486 0 0 0 -40.96 7.148c-.724.248-1.452.5-2.17.747a1 1 0 0 1 -.329.051zm-28.081-27.266a31.754 31.754 0 0 1 18.779 7.7c5.993 5 9.818 11.451 10.262 17.178l.9-.307a143.465 143.465 0 0 1 41.545-7.253 16.992 16.992 0 0 0 16.509-17.492 16.972 16.972 0 0 0 -17.489-16.479c-.97.03-1.905.06-2.839.109a180.918 180.918 0 0 0 -67.667 16.544z" fill="#670a39"/><path d="m318.053 594.946a3.128 3.128 0 0 1 -2.479-1.264c-2.7-3.323-3.041-14.41-1.011-32.956 1.579-14.421 4.318-30.614 6.331-40.264 12.943-62.006 53.5-116.782 105.832-142.95 22.956-11.513 47.348-17.527 74.566-18.385a18.972 18.972 0 0 1 19.551 18.42 18.991 18.991 0 0 1 -18.451 19.553 140.008 140.008 0 0 0 -43.006 7.852 1 1 0 0 1 -.121.052c-28.772 10.106-53.866 29.955-72.572 57.4-17.518 25.7-28.724 57.532-31.554 89.623-.165 1.874-.246 3.909-.332 6.064-.621 15.552-1.471 36.855-36.754 36.855zm183.847-233.829c-.18 0-.36 0-.541.009-26.922.848-51.041 6.794-73.734 18.174-51.8 25.9-91.948 80.149-104.769 141.57-4.408 21.127-10.838 65.262-5.726 71.551a1.145 1.145 0 0 0 .927.525c33.361 0 34.134-19.372 34.755-34.938.087-2.179.169-4.238.339-6.16a190.7 190.7 0 0 1 31.894-90.574c18.92-27.762 44.311-47.856 73.436-58.117a.967.967 0 0 1 .128-.055 141.982 141.982 0 0 1 43.73-8 16.992 16.992 0 0 0 16.509-17.492 16.973 16.973 0 0 0 -16.948-16.493z" fill="#670a39"/><path d="m378.253 307.246c-.25.51-.489 1.04-.73 1.57a132.409 132.409 0 0 0 -11.409 37.87c-.4 2.24-.741 4.38-1 6.4-5.761-10.68-23.08-17.7-34.741-11.33a181.8 181.8 0 0 1 15.44-50.14 18 18 0 0 1 32.44 15.63z" fill="#670a39"/><path d="m365.113 354.086a1 1 0 0 1 -.88-.525c-2.891-5.361-9.052-9.984-16.077-12.066-6.363-1.885-12.508-1.481-17.3 1.139a1 1 0 0 1 -1.468-1.028 182.572 182.572 0 0 1 15.527-50.423 19 19 0 0 1 34.242 16.5v.006c-.239.489-.469 1-.7 1.5a131.033 131.033 0 0 0 -11.357 37.635c-.427 2.4-.752 4.474-1 6.39a1 1 0 0 1 -.81.856 1.029 1.029 0 0 1 -.177.016zm-24.675-15.76a29.228 29.228 0 0 1 8.286 1.251 30.627 30.627 0 0 1 15.78 10.68c.18-1.176.388-2.418.625-3.747a132.831 132.831 0 0 1 11.489-38.119c.25-.552.488-1.076.735-1.581a17 17 0 1 0 -30.639-14.759 180.716 180.716 0 0 0 -15.056 47.976 22.48 22.48 0 0 1 8.78-1.701z" fill="#670a39"/><path d="m555.733 456.846q-.78-8.3-1.18-16.67c-.079-1.51-.14-3.03-.189-4.55-3.781-104.81 36.039-217.32 106.039-297.25-37.22-42.29-82.039-73.5-128.49-96.59a8.934 8.934 0 0 0 -8.5.27c-37.189 21.66-37.43 28.66-45.589 25.1-59.281-25.79-126.361-42.67-188.691-50.91a8.95 8.95 0 0 0 -8.86 4.26 432.925 432.925 0 0 0 -34.1 71.92c-21.83 59.63-29.72 121.61-24.05 177.85q1.052 10.455 2.72 20.63c.28 1.71.57 3.41.881 5.1a8.933 8.933 0 0 0 6.659 7.13c114.17 12.46 238.95 71.1 326.93 162.63a16.911 16.911 0 0 1 -3.569-8.87.1.1 0 0 1 -.011-.05z" fill="#ffdf68"/><path d="m554.364 435.626c.079 1.55.179 3.09.279 4.62a.6.6 0 0 1 -.09-.07c-86.63-63.65-198.49-136.75-329.71-149.27q-1.679-10.17-2.72-20.63c-5.67-56.24 2.22-118.22 24.05-177.85 13.56-28.76 29.08-49.08 45.02-63.96 79.96 4.7 175.69 44.86 191.72 55.35 26.64-21.2 51.61-30.5 51.61-30.5 51.67 32.13 82.051 61.44 98.8 85.06-68.539 108.87-83.84 211.86-78.959 297.25z" fill="#ffed8d"/><path d="m559.313 465.766c-37.152-38.774-81.442-71.7-127.44-97.29-13.82-7.67-27.91-14.75-42.16-21.19q-18.72-8.475-37.76-15.47-5.43-1.995-10.879-3.87a502.648 502.648 0 0 0 -108.691-24.81 8.933 8.933 0 0 1 -6.659-7.13c-.031-.14-.051-.28-.071-.42-1.55-9.31-4.42-50.97-5.289-59.76 0-.04-.011-.07-.011-.1 0 .01.011.03.011.04 1.409 7.26 6.339 33.76 16.219 47.1 20.2 5.74 39.76 11.79 56.181 16.28 77.529 21.2 152.279 63.08 215.079 104.9a409.748 409.748 0 0 1 39.157 29.982c.511-15.392 4.718-41.517 9.743-60.672.1.12.2.25.29.37-5.233 43.643-1.705 82.361-1.29 83.17a16.8 16.8 0 0 0 3.57 8.87z" fill="#dabc6c"/><path d="m559.314 466.766a1 1 0 0 1 -.723-.308c-35.352-36.9-79.339-70.475-127.2-97.108-13.734-7.622-27.894-14.739-42.086-21.152-12.383-5.607-25.064-10.8-37.693-15.443-3.548-1.3-7.2-2.6-10.86-3.863a500.687 500.687 0 0 0 -108.477-24.762.95.95 0 0 1 -.117-.019 9.937 9.937 0 0 1 -7.42-7.933c-.027-.123-.051-.286-.075-.449-1.474-8.133-2.665-16.675-3.535-25.353-1.131-11.287-1.725-22.91-1.764-34.546v-.06c-.271-73.391 21.055-150.021 60.049-215.77a9.958 9.958 0 0 1 9.851-4.741c66.481 8.789 133.588 26.895 188.958 50.984 4.092 1.785 5.594.844 13.948-5.136a354.163 354.163 0 0 1 30.74-19.911 9.915 9.915 0 0 1 9.451-.3c51.4 25.553 94.737 58.129 128.793 96.823a1 1 0 0 1 0 1.32c-55.238 63.071-92.828 148.656-103.129 234.81-5.5 45.921-1.407 82.051-1.3 82.861a.927.927 0 0 1 .014.092 15.7 15.7 0 0 0 3.362 8.353 1 1 0 0 1 -.787 1.615zm-326.762-164.617a502.6 502.6 0 0 1 108.848 24.851c3.671 1.264 7.338 2.568 10.9 3.877 12.674 4.657 25.4 9.872 37.828 15.5 14.241 6.436 28.45 13.578 42.233 21.227 45.959 25.572 88.359 57.529 123.02 92.682a18.189 18.189 0 0 1 -.631-3.29h.028c-.647-4.017-3.92-40.139 1.265-83.384 10.311-86.243 47.849-171.924 103.031-235.228-33.795-38.211-76.721-70.4-127.6-95.7a7.919 7.919 0 0 0 -7.551.238 352.393 352.393 0 0 0 -30.583 19.809c-8.192 5.864-10.664 7.633-15.91 5.344-55.21-24.019-122.13-42.075-188.43-50.837a7.957 7.957 0 0 0 -7.872 3.784c-38.809 65.44-60.036 141.705-59.766 214.74v.061c.039 11.572.629 23.13 1.754 34.353.865 8.626 2.049 17.115 3.519 25.232.023.154.039.271.064.387a7.939 7.939 0 0 0 5.853 6.354z" fill="#670a39"/><path d="m114.433 153.566-22.91 13.834a41.719 41.719 0 0 1 -13.6 5.42c-21.84 4.48-43.24-9.73-55.9-18.39-15.69-10.71-23.2-26.66-20.48-38.05a.88.88 0 0 0 .04-.18c.031-.11.06-.22.09-.33v-.02a1.921 1.921 0 0 1 .091-.32c1.52-5.21 5.27-9.37 11.48-11.49.169-.06.349-.12.529-.18-.049-.06-.1-.11-.14-.17-.48-.57-.93-1.14-1.369-1.72-9.631-12.79-9.6-27.93 7.259-32.59-3.159-8.71 6.27-18.67 19.17-20.81a31.019 31.019 0 0 1 7.68-.31c14.75 1.24 25.991 8.53 35.77 15.74a68.411 68.411 0 0 1 6.351-4.57c.12-.07.25-.15.379-.23s.26-.15.391-.23a18.841 18.841 0 0 1 3.169-1.7c0-.01.01-.01.02-.01.84-.41 1.68-.8 2.521-1.16.109-.04.219-.09.329-.14.41-.17.811-.33 1.22-.49.35-.14.71-.27 1.06-.4.29-.11.59-.21.88-.31a48.493 48.493 0 0 1 6.321-1.73c.379-.08.759-.15 1.129-.21.9-.17 1.79-.3 2.68-.4l1.24-.12a40.724 40.724 0 0 1 12.87.86c.621.15 1.23.31 1.831.48.019.01.04.01.059.02.29.09.58.18.87.28.511.16 1.011.34 1.52.54q.48.18.96.39c.321.13.631.27.94.41a.031.031 0 0 1 .02.01c9.571 3.93 11 10.78 11.31 20.79 0 .09.22 7.87.3 9.94.009.16.02.33.029.5 9.202 42.646-10.099 59.136-26.109 67.046z" fill="#ffae5d"/><path d="m22.988 136.671c9.639-1.333 12.873 2.528 20.722 7.172 7 4.142 14.818 4.741 21.025 2.141 7.921-3.318 9.313-13.595 3.787-21.094-12.508-16.974-37.451-30.14-56.649-22.783-5.3 2.544-8.975 8.568-10.2 13.735-.228.943 21.315 20.829 21.315 20.829z" fill="#ffae5d"/><path d="m114.433 153.566c16.01-7.91 35.311-24.4 26.11-67.05-.828-14.409 1.616-25.786-11.64-31.23a.031.031 0 0 0 -.02-.01c-11.661-5.269-25.111-3.544-36.43 1.98-.01 0-.02 0-.02.01-.716 0-7.156 4.071-10.29 6.73-12.491-9.209-28.206-17.98-43.45-15.43-8.88 4.28-13.24 12.28-7.71 20.41-11.26-1.276-21.123 14.242-9.71 31.124a.035.035 0 0 0 -.029.01c-11 2.049-14.379 12.267-12.431 23.22 4.145 23.487 48.788 47.254 82.71 44.07 16.451-4.351 22.91-13.834 22.91-13.834z" fill="#ffca62"/><path d="m114.434 154.566a1 1 0 0 1 -.444-1.9c24.2-11.958 32.568-33.528 25.576-65.943a.975.975 0 0 1 -.021-.152l-.03-.5c-.079-2.052-.3-9.847-.3-10-.41-13.245-3.922-17.086-10.69-19.865a.709.709 0 0 1 -.069-.032c-.293-.132-.585-.264-.887-.386-.326-.147-.635-.268-.935-.38-.5-.2-.98-.37-1.468-.523-.3-.1-.581-.19-.859-.276l-.04-.014-.024-.007q-.872-.248-1.773-.465a39.563 39.563 0 0 0 -12.547-.836l-1.231.12c-.894.1-1.746.227-2.591.387-.38.062-.745.129-1.11.206a47.424 47.424 0 0 0 -6.2 1.7c-.292.1-.573.2-.864.3l-.22.081c-.271.1-.545.2-.813.309-.412.16-.8.318-1.209.485-.1.048-.238.108-.371.156q-1.083.466-2.417 1.116a1 1 0 0 1 -.247.09 24.908 24.908 0 0 0 -2.864 1.576c-.162.089-.275.159-.387.229-.139.085-.276.169-.4.243a67.634 67.634 0 0 0 -6.224 4.483 1 1 0 0 1 -1.223.028c-9.322-6.872-20.5-14.308-35.26-15.548a29.95 29.95 0 0 0 -7.432.3c-7.56 1.255-14.178 5.319-17.27 10.606a10.284 10.284 0 0 0 -1.125 8.877 1 1 0 0 1 -.673 1.305c-6.392 1.77-10.629 5.234-12.258 10.022-2.034 5.982-.019 13.642 5.528 21.007a1 1 0 0 1 -.5 1.557c-3.043.935-8.277 6.154-9.932 13.2l-.952-.258.952.258-.008.035h.012l-.081.3a1 1 0 0 1 -1.941-.48c1.457-6.643 6.128-12.439 10.1-14.453-5.377-7.586-7.224-15.48-5.071-21.81 1.764-5.185 6.119-8.977 12.626-11.014a12.421 12.421 0 0 1 1.595-9.554c3.384-5.785 10.538-10.218 18.668-11.566a31.939 31.939 0 0 1 7.926-.32c14.95 1.256 26.243 8.571 35.661 15.476a69.561 69.561 0 0 1 5.839-4.153l.393-.238c.148-.092.294-.181.44-.259a22.784 22.784 0 0 1 3.2-1.717l.038-.019c.915-.446 1.749-.829 2.551-1.173.137-.052.222-.091.308-.13.449-.187.855-.35 1.272-.512.277-.111.568-.219.855-.325l.22-.081c.308-.113.6-.214.894-.315a49.663 49.663 0 0 1 6.456-1.768c.388-.082.783-.154 1.168-.217.869-.164 1.77-.3 2.729-.407l1.254-.121a41.582 41.582 0 0 1 13.2.882c.638.154 1.261.318 1.873.491.022.006.043.013.064.021l.024.007c.3.095.6.187.895.289.506.158 1.028.346 1.56.554.326.122.676.261 1.006.41.3.12.619.265.94.41l.015.007c10.52 4.333 11.615 12.379 11.9 21.673 0 .274.221 7.894.3 9.933l.024.4c7.185 33.4-1.537 55.67-26.661 68.083a1 1 0 0 1 -.44.105z" fill="#670a39"/><path d="m69.356 174.672c-19.508 0-37.573-12.358-47.9-19.42-15.256-10.419-23.856-26.475-20.896-39.045a1.067 1.067 0 0 1 1.132-.936.951.951 0 0 1 .884 1.049 2.932 2.932 0 0 1 -.081.391c-2.717 11.551 5.728 27.084 20.092 36.889 11.614 7.944 33.23 22.73 55.135 18.237a40.941 40.941 0 0 0 13.278-5.293 1 1 0 1 1 1.045 1.7 42.911 42.911 0 0 1 -13.923 5.556 43.534 43.534 0 0 1 -8.766.872z" fill="#670a39"/><path d="m69.356 174.672c-19.508 0-37.573-12.358-47.9-19.42-15.256-10.419-23.856-26.475-20.896-39.045a1.067 1.067 0 0 1 1.132-.936.951.951 0 0 1 .884 1.049 2.932 2.932 0 0 1 -.081.391c-2.717 11.551 5.728 27.084 20.092 36.889 11.614 7.944 33.23 22.73 55.135 18.237a40.941 40.941 0 0 0 13.278-5.293 1 1 0 1 1 1.045 1.7 42.911 42.911 0 0 1 -13.923 5.556 43.534 43.534 0 0 1 -8.766.872z" fill="#670a39"/><path d="m68.523 125.876a1 1 0 0 1 -.009-2c6.272-.061 11.347-2.972 13.575-7.789 3-6.472.5-15.242-6.844-24.061-12.457-14.963-40.58-24.086-55.562-21.663a1 1 0 1 1 -.319-1.974c15.816-2.558 44.342 6.65 57.418 22.357 7.858 9.437 10.454 18.979 7.123 26.181-2.561 5.535-8.308 8.881-15.372 8.949z" fill="#670a39"/><path d="m98.459 117.637a1 1 0 0 1 -.929-.632c-2.952-7.43-1.58-20.9 7.29-25.088a1 1 0 0 1 .854 1.809c-7.714 3.644-8.892 15.98-6.286 22.541a1 1 0 0 1 -.929 1.37z" fill="#670a39"/><path d="m140.543 86.516-22.943-4.216c-4.952.96-8.127 8.5-17.06 14.55-11.624 7.884-23.874 7.6-28.87-5.6-5.126-13.755 7.585-27.576 20.76-33.98 0-.01.01-.01.02-.01 11.225-5.478 24.807-7.232 36.43-1.98a.031.031 0 0 1 .02.01c12.6 5.682 10.784 16.279 11.643 31.226z" fill="#ffca62"/><path d="m85.831 103.1a16.256 16.256 0 0 1 -3.556-.381c-5.234-1.163-9.224-5.009-11.537-11.122a19.145 19.145 0 0 1 -1.193-5.607c-.476-7.745 3.768-15.83 11.952-22.76a50.888 50.888 0 0 1 6.477-4.661l.375-.227c.164-.09.277-.161.39-.23 1.09-.64 2.176-1.223 3.248-1.744l.039-.019c.744-.367 1.554-.74 2.548-1.173.143-.054.228-.093.314-.132.433-.185.852-.348 1.271-.512.278-.111.569-.219.856-.325l.22-.081c.234-.089.481-.174.725-.257l.177-.061a49.665 49.665 0 0 1 6.448-1.765c.388-.082.783-.154 1.168-.217.869-.164 1.77-.3 2.729-.407.416-.05.853-.092 1.279-.123a39.706 39.706 0 0 1 13.18.886c.617.141 1.259.307 1.88.493l.049.017.024.007c.3.095.6.187.895.289.506.158 1.028.346 1.56.554.322.121.658.258.995.405.308.125.63.27.951.415l.036.017c.321.145.651.3.971.466 10.282 5.092 10.574 13.82 10.943 24.871.067 2 .136 4.076.267 6.237l.03.5a1 1 0 0 1 -2 .118l-.03-.5c-.132-2.19-.2-4.276-.269-6.294-.357-10.777-.618-18.577-9.843-23.145-.31-.159-.614-.3-.908-.434l-.038-.018c-.293-.133-.585-.265-.887-.387-.328-.143-.631-.267-.935-.38-.5-.2-.98-.37-1.468-.523-.3-.1-.581-.19-.859-.276l-.04-.014-.03-.009c-.575-.173-1.17-.326-1.755-.46a37.778 37.778 0 0 0 -12.553-.839q-.623.045-1.212.117c-.919.1-1.771.23-2.616.39-.38.062-.745.129-1.11.206a47.424 47.424 0 0 0 -6.2 1.7l-.185.063c-.222.076-.449.154-.669.237l-.23.085c-.271.1-.545.2-.813.309-.41.16-.81.316-1.2.482-.112.051-.246.111-.379.159-.913.4-1.7.762-2.419 1.117l-.02.011c-1.028.5-2.072 1.059-3.1 1.663-.128.079-.275.169-.422.248-.086.055-.223.139-.35.213a48.978 48.978 0 0 0 -6.207 4.469c-4.454 3.772-11.838 11.53-11.248 21.116a17.13 17.13 0 0 0 1.063 5.023c2.091 5.525 5.49 8.848 10.1 9.873 4.976 1.115 11.11-.572 17.272-4.751a46.3 46.3 0 0 0 9.2-8.358c4.282-5.117 7.184-6.143 8.233-6.346a1 1 0 1 1 .381 1.963c-.466.09-3 .788-7.084 5.67a48.266 48.266 0 0 1 -9.606 8.726c-5.257 3.562-10.554 5.423-15.275 5.423z" fill="#670a39"/><path d="m56.737 148.541a26.76 26.76 0 0 1 -13.537-3.841c-1.512-.9-2.824-1.741-4.092-2.559-5.148-3.319-8.548-5.512-15.984-4.483a1 1 0 0 1 -.274-1.982c8.171-1.129 12.017 1.351 17.342 4.785 1.252.807 2.548 1.643 4.026 2.517 6.514 3.854 14.039 4.631 20.129 2.08a10.357 10.357 0 0 0 6.059-6.956 14.913 14.913 0 0 0 -2.691-12.623c-12.077-16.39-36.725-29.631-55.485-22.442-5.689 2.733-9.636 10.227-9.987 15.584a1 1 0 0 1 -2-.131c.4-6.049 4.692-14.169 11.193-17.289 9.181-3.522 20.4-2.71 31.669 2.255a67 67 0 0 1 26.222 20.844 16.929 16.929 0 0 1 3.008 14.342 12.32 12.32 0 0 1 -7.214 8.267 21.668 21.668 0 0 1 -8.384 1.632z" fill="#670a39"/><path d="m450.022 265.462a66.56 66.56 0 0 1 -18.895 16.053c-24.255 13.767-54.183 10.086-72.273-6.262a49.162 49.162 0 0 1 -10.654-13.753c-7.551-14.565-11.931-40.419-6.385-51.11 5.13-9.889 14.616-6.988 19.851 2.525 8.454 15.332 31.631 35.572 70.252 29.992.657-.1 2.568-.6 2.568-.6 14.614-3.342 25.6 10.814 15.536 23.155z" fill="#670a39"/><path d="m398.97 290.886c-15.111 0-29.918-5.069-40.787-14.891a50.134 50.134 0 0 1 -10.874-14.035c-3.76-7.252-6.828-17.469-8.207-27.33-1.506-10.763-.859-19.535 1.821-24.7 2.215-4.271 5.47-6.648 9.164-6.693 4.61-.062 9.252 3.382 12.451 9.2 9.3 16.871 33.018 34.717 69.234 29.484.489-.073 1.94-.44 2.458-.574 7.642-1.749 14.926.933 18.586 6.827 3.411 5.491 2.656 12.192-2.019 17.925a67.6 67.6 0 0 1 -19.177 16.292 66.338 66.338 0 0 1 -32.65 8.495zm-48.77-85.65h-.084c-2.963.036-5.526 1.978-7.412 5.614-5.441 10.486-.956 36.03 6.385 50.189a48.14 48.14 0 0 0 10.441 13.473c18.31 16.546 48.216 19.126 71.109 6.134a65.612 65.612 0 0 0 18.612-15.815c4.11-5.041 4.809-10.874 1.87-15.606-3.2-5.157-9.646-7.488-16.412-5.94-.172.045-1.954.507-2.642.611a90.28 90.28 0 0 1 -12.895.95c-30.01 0-49.927-16.116-58.382-31.448-2.779-5.044-6.83-8.162-10.59-8.162z" fill="#670a39"/><path d="m431.127 281.515c-24.255 13.767-54.183 10.086-72.273-6.262 5.619-11.029 21.079-14.758 30.653-9.78 13.548-5.189 34.756 1.95 41.62 16.042z" fill="#ec4949"/><path d="m398.97 290.886c-15.112 0-29.918-5.069-40.787-14.891a1 1 0 0 1 -.22-1.2 23 23 0 0 1 13.8-11.2c6.155-1.972 12.77-1.674 17.8.782 14.789-5.362 35.694 2.807 42.459 16.695a1 1 0 0 1 -.405 1.307 66.332 66.332 0 0 1 -32.647 8.507zm-38.862-15.856c18.133 15.884 47.152 18.41 69.689 6.082-7.269-13.478-27.743-19.373-39.932-14.706a1 1 0 0 1 -.819-.046c-4.618-2.4-10.851-2.72-16.673-.855a21.212 21.212 0 0 0 -12.265 9.525z" fill="#670a39"/><path d="m431.128 282.516a1 1 0 0 1 -.9-.563c-4.248-8.72-14.978-15.52-26.7-16.92-9.021-1.078-16.644 1.266-20.915 6.431a1 1 0 0 1 -1.541-1.275c4.713-5.7 12.984-8.3 22.693-7.142 12.369 1.477 23.726 8.723 28.26 18.031a1 1 0 0 1 -.9 1.438z" fill="#670a39"/><path d="m402.981 269.55c-9.893-.46-14.67 3.1-14.67 7.093 0 4.782 11.491 10.405 23.072 6.021 12.731-4.82-1.083-12.774-8.402-13.114z" fill="#ff6d6d"/><path d="m678.224 580.666c-5.791 5.96-12.891 10.23-20.881 11.55a32.385 32.385 0 0 1 -3.849.41c-14.13 9.1-36.091-.85-48.38-12.08h-.014c-9.859-3.08-17.7-9.6-20.76-22.17-6.329-25.9 12.05-45.86 32.61-63.06l39.71-11.28a59.39 59.39 0 0 1 33.93 18.67 38.172 38.172 0 0 1 7.59 11.87 41.36 41.36 0 0 1 2.61 10.68c4.043 21.38-2.176 47.98-22.566 55.41z" fill="#ffae5d"/><path d="m628.593 551.086a18.125 18.125 0 0 0 -9.39-12.08c-12.176-5.9-29.025 6.344-21.6 26.4 15.894 42.876 54.132 42.159 73.03 7.98-.101-.053-44.898-23.815-42.04-22.3z" fill="#ffae5d"/><path d="m678.224 580.666c-5.791 5.96-15.638 11.55-24.152 11.55 13.18-8.455 13.06-30.641 14.3-40.815 1.281-10.519 4.962-17.829 17.014-25.144 5.066-3.075 14.712-7 15.4-1.117l.013.116c4.034 21.38-2.185 47.98-22.575 55.41z" fill="#e48860"/><path d="m653.491 593.63a1 1 0 0 1 -.044-2c13.383-.6 25.377-9.536 33.771-25.158a1 1 0 0 1 1.762.947c-8.614 16.031-21.533 25.584-35.443 26.209z" fill="#670a39"/><path d="m614.674 591.146a44.7 44.7 0 0 1 -9.571-10.6c-9.859-3.08-17.7-9.6-20.76-22.17a41.675 41.675 0 0 1 -.619-17.53c1.837-11.318 9.375-20.736 12.149-24.64h.01c13.481-10.77 34.21-9.91 46.631 7.8 12.852 18.313 14.7 45.319 4.323 61.676a21.962 21.962 0 0 1 -32.163 5.464z" fill="#ffca62"/><path d="m605.113 581.546h-.01a1.006 1.006 0 0 1 -.3-.045c-11.391-3.559-18.6-11.259-21.433-22.888a42.792 42.792 0 0 1 -.631-17.953c1.705-10.477 8.042-19.165 11.447-23.833.322-.441.615-.842.872-1.2a1.02 1.02 0 0 1 .117-.137c7.641-9.528 17.025-17.612 24.354-23.6a1 1 0 0 1 1.265 1.549c-7.276 5.941-16.6 13.968-24.132 23.39-.015.019-.031.038-.048.056-.243.339-.515.712-.812 1.118-3.306 4.533-9.461 12.971-11.094 23a40.82 40.82 0 0 0 .605 17.132c2.689 11.045 9.251 18.06 20.061 21.445a1 1 0 0 1 -.263 1.962z" fill="#670a39"/><path d="m653.493 593.626a1 1 0 0 1 0-2c6.136 0 15.666-3.062 24.013-11.657a.99.99 0 0 1 .375-.242c19.56-7.128 25.9-33.289 21.93-54.285a37.119 37.119 0 0 0 -9.952-22.057 58.147 58.147 0 0 0 -36.124-18.725 1 1 0 1 1 .216-1.988 60.138 60.138 0 0 1 37.376 19.355 39.455 39.455 0 0 1 10.46 23.116 66.573 66.573 0 0 1 -2.174 33.381c-4.029 11.476-11.229 19.425-20.832 23-8.744 8.92-18.781 12.102-25.288 12.102z" fill="#670a39"/><path d="m635.026 599.367q-1.188 0-2.377-.089c-15.4-1.158-28.515-13.377-35.983-33.524-3.588-9.691-1.963-18.9 4.347-24.626a16.792 16.792 0 0 1 18.626-3.022 19 19 0 0 1 9.925 12.738 1 1 0 0 1 -1.941.484 17.24 17.24 0 0 0 -8.854-11.421 14.8 14.8 0 0 0 -16.411 2.7c-5.684 5.16-7.111 13.553-3.817 22.45 7.184 19.382 19.671 31.127 34.258 32.224 14.113 1.062 27.931-8.053 36.959-24.381a1 1 0 0 1 1.751.968c-8.916 16.126-22.409 25.498-36.483 25.499z" fill="#670a39"/><path d="m611.728 527.065a47.994 47.994 0 0 1 11.366 27.635c10.129 3.942 20.8-9.991 14.217-24.026-7.181-15.308-25.611-10.53-25.583-3.609z" fill="#ffca62"/><path d="m623.093 555.7a1 1 0 0 1 -1-.928 47.1 47.1 0 0 0 -11.135-27.072 1 1 0 1 1 1.54-1.276 49.061 49.061 0 0 1 11.593 28.2 1 1 0 0 1 -.925 1.07z" fill="#670a39"/><path d="m469.083 242a27.377 27.377 0 0 1 -18.17-5.14c-18.169-13.32-20.89-49.5-7.51-75.94 11.78-23.46 30.5-32.48 45.65-27.84 11.4 3.49 20.76 14.71 23.62 33.32v.02c5.67 35.806-17.33 73.886-43.59 75.58z" fill="#e7dcdc"/><path d="m461.083 238a29.529 29.529 0 0 1 -10.17-1.14c-18.169-13.32-20.89-49.5-7.51-75.94 11.78-23.46 30.5-32.48 45.65-27.84 7.62 5.48 13.47 15.31 15.62 29.32v.02c5.67 35.806-17.33 73.886-43.59 75.58z" fill="#fff8ea"/><path d="m511.526 160.816a47.33 47.33 0 0 1 -4.73 9.719v.018c-14.7 23.265-47.225 33.7-71.753 22.144a80.559 80.559 0 0 1 8.357-31.777c19.372-38.585 58.316-38.795 68.126-.104z" fill="#670a39"/><path d="m456.689 198.358a51.7 51.7 0 0 1 -22.074-4.757 1 1 0 0 1 -.573-.955 82.027 82.027 0 0 1 8.469-32.178c9.967-19.856 25.942-31.127 41.683-29.413 13.606 1.481 23.921 12.239 28.3 29.515a1 1 0 0 1 -.025.577 48.42 48.42 0 0 1 -4.776 9.841 1.042 1.042 0 0 1 -.054.1c-10.821 17.13-31.21 27.27-50.95 27.27zm-20.612-6.284c23.61 10.695 55.412.735 69.82-21.973a.827.827 0 0 1 .055-.1 46.436 46.436 0 0 0 4.53-9.23c-4.2-16.248-13.852-26.348-26.5-27.726-14.892-1.622-30.1 9.232-39.681 28.325a80 80 0 0 0 -8.224 30.704z" fill="#670a39"/><path d="m467.24 243.044c-10.328 0-18.905-4.8-24.891-13.957-11.1-16.986-11.033-46.486.162-68.619 10.332-20.582 26.821-31.781 43.033-29.224 14.594 2.3 25.105 15.386 28.117 35 0 .031.008.062.009.094 3.235 20.572-2.735 43.322-15.59 59.39-8.377 10.472-18.653 16.6-28.935 17.261h-.008q-.958.055-1.897.055zm13.719-110.16c-13.913 0-27.655 10.541-36.662 28.484-10.9 21.548-11.016 50.19-.274 66.625 5.935 9.081 14.581 13.577 25 13 9.711-.625 19.476-6.49 27.5-16.514 12.532-15.664 18.342-37.854 15.163-57.909 0-.034-.009-.068-.011-.1-2.888-18.667-12.768-31.094-26.438-33.25a27.476 27.476 0 0 0 -4.278-.336z" fill="#670a39"/><ellipse cx="467.357" cy="149.581" fill="#fff8ea" rx="10.214" ry="7.494" transform="matrix(.5591929 -.82903757 .82903757 .5591929 82.006 453.393)"/><path d="m464.981 160.035a6.878 6.878 0 0 1 -3.895-1.157c-3.883-2.619-4.229-8.921-.771-14.047s9.431-7.166 13.313-4.547a7.6 7.6 0 0 1 3.16 6.233 13.973 13.973 0 0 1 -8.739 12.956 9.1 9.1 0 0 1 -3.068.562zm4.729-18.912c-2.647 0-5.684 1.783-7.737 4.826-2.841 4.213-2.737 9.268.231 11.271a5.658 5.658 0 0 0 5.17.37 11.251 11.251 0 0 0 5.367-4.378 11.257 11.257 0 0 0 2.049-6.616 5.656 5.656 0 0 0 -2.28-4.654 4.938 4.938 0 0 0 -2.8-.819z" fill="#670a39"/><path d="m340 194.45a31.186 31.186 0 0 1 -12.18-9.37c-26.71-32.85-3.768-100.964 32.737-96.105 14.564 1.91 24.09 15.625 27.855 29.944v.017c11.428 42.649-19.412 87.608-48.412 75.514z" fill="#e7dcdc"/><path d="m337.133 193.056a32.459 32.459 0 0 1 -9.32-7.98c-26.71-32.85-3.77-100.96 32.74-96.1.74.1 1.461.22 2.171.38l.009.01c9.91 5.52 18.238 17.206 20.488 29.026 0 0-2.258-.006-2.258.014 7.49 38.43-16.563 83.148-43.83 74.65z" fill="#fff8ea"/><path d="m386.741 113.667a45.845 45.845 0 0 1 -3.566 9.827v.017c-11.785 23.863-42.018 37.189-66.775 28.553-1.734-31.964 16.6-61.032 38.27-63.156 15.194-1.633 26.698 10.177 32.071 24.759z" fill="#670a39"/><path d="m332.116 155.654a48.665 48.665 0 0 1 -16.048-2.646 1 1 0 0 1 -.67-.89c-1.731-31.987 16.574-61.989 39.174-64.206 11.042-1.186 25.538 4.866 33.108 25.409a1 1 0 0 1 .034.577 46.8 46.8 0 0 1 -3.6 9.952.794.794 0 0 1 -.043.1c-9.546 19.335-31.081 31.702-51.955 31.704zm-14.754-4.318c23.773 7.88 53.321-4.9 64.873-28.181a.923.923 0 0 1 .044-.107 44.833 44.833 0 0 0 3.419-9.319c-4.755-12.671-15.335-25.5-30.922-23.827-21.437 2.098-38.803 30.72-37.414 61.434z" fill="#670a39"/><path d="m349.845 197.459a26.442 26.442 0 0 1 -10.232-2.088 25.536 25.536 0 0 1 -2.975-1.446 33.338 33.338 0 0 1 -9.6-8.217c-7.74-9.52-11.832-22.34-11.833-37.076a80.8 80.8 0 0 1 9.74-38.335c8.961-16.01 21.989-24.143 35.74-22.312.847.114 1.585.244 2.258.4a1.086 1.086 0 0 1 .115.033c12.22 2.73 22.052 14.028 26.312 30.248.008.031.015.063.02.095 7.63 28.571-3.557 56.8-18.565 69.93-6.631 5.799-13.834 8.768-20.98 8.768zm7.055-107.726c-11.593 0-22.452 7.677-30.211 21.54-15.251 27.253-10.4 58.04 1.9 73.172a31.365 31.365 0 0 0 9.029 7.737 23.616 23.616 0 0 0 2.753 1.338h.007c9.557 3.986 19.9 1.734 29.13-6.341 14.556-12.733 25.392-40.179 17.929-67.979-.009-.034-.016-.068-.022-.1-3.164-11.97-11.358-25.786-24.9-28.749a1.058 1.058 0 0 1 -.122-.035c-.588-.129-1.237-.241-1.978-.341a26.615 26.615 0 0 0 -3.515-.242z" fill="#670a39"/><ellipse cx="340.296" cy="108.196" fill="#fff8ea" rx="8.756" ry="6.424" transform="matrix(.5591929 -.82903757 .82903757 .5591929 60.307 329.812)"/><path d="m338.241 117.286a6 6 0 0 1 -3.4-1c-3.394-2.289-3.708-7.78-.7-12.24a11.51 11.51 0 0 1 5.514-4.463 6.65 6.65 0 0 1 6.1.527c3.394 2.289 3.707 7.779.7 12.239-2.118 3.133-5.32 4.937-8.214 4.937zm4.085-16.192a5.915 5.915 0 0 0 -2 .37 9.5 9.5 0 0 0 -4.531 3.7c-2.391 3.545-2.32 7.79.16 9.463s6.442.149 8.834-3.4 2.32-7.791-.159-9.463a4.071 4.071 0 0 0 -2.304-.67z" fill="#670a39"/><path d="m315.564 258.847c34.077-5.885 56.409-45.425 43.524-74.059-10.366-22.59-35.627-26.705-57.6-16.958" fill="#ffed8d"/><path d="m315.563 259.847a1 1 0 0 1 -.169-1.986c16.434-2.838 31.3-14.044 39.768-29.977 7.648-14.39 8.746-29.948 3.015-42.686-7.605-16.571-28.465-28.793-56.286-16.454a1 1 0 1 1 -.811-1.828c11.366-5.041 23.372-6.356 33.807-3.7a36.938 36.938 0 0 1 25.113 21.155c5.991 13.312 4.871 29.512-3.069 44.451-8.756 16.475-24.155 28.068-41.194 31.01a.988.988 0 0 1 -.174.015z" fill="#670a39"/><path d="m437.218 305.57c-42.624-50.013 18.317-119.192 64.055-75.08l.009.017" fill="#ffed8d"/><path d="m437.219 306.57a1 1 0 0 1 -.762-.352c-13.648-16.014-15.4-32.028-14.465-42.643a55.933 55.933 0 0 1 17.132-35.425c8.437-7.934 18.887-12.453 29.425-12.725 11.821-.307 23.371 4.655 33.418 14.345a1 1 0 1 1 -1.455 1.376c-22.5-21.637-46.385-14.358-60.018-1.539a53.905 53.905 0 0 0 -16.51 34.143c-.9 10.234.8 25.684 14 41.171a1 1 0 0 1 -.76 1.649z" fill="#670a39"/><path d="m344.474 529.176a36.663 36.663 0 0 1 -.471 5.07c-.739 4.76-2.62 12-7.46 17.89-6.17 7.54-17.15 12.88-36.69 8.02-20.41-38.91-39.54-86.94-47.069-106.46-2.161-5.62-3.371-8.88-3.371-8.88 23.811-23.69 47.92-9.56 64.911 13.55 9.96 13.54 18.269 33.35 24.119 50.78 2.457 7.31 4.49 14.2 6.031 20.03z" fill="#ffae5d"/><path d="m340.133 558.045c-2.154 3.329-2.744 13.092-10.085 6.032-37.529-57.49-57.155-90.561-59.534-92.191-.871-.6-8.44-8.44-17.73-18.19-2.161-5.62-3.371-8.88-3.371-8.88 23.811-23.69 47.92-9.56 64.911 13.55 9.96 13.54 18.269 33.35 24.119 50.78 7.469 22.789 4.735 44.194 1.69 48.899z" fill="#e48860"/><path d="m340.9 517.717a1 1 0 0 1 -.955-.705c-4.419-14.273-13.727-40.795-26.419-58.053-8-10.878-20.772-24.1-36.186-25.285-9.424-.727-18.581 3.259-27.217 11.848a1 1 0 0 1 -1.41-1.418c9.067-9.018 18.749-13.2 28.781-12.424 16.169 1.248 29.4 14.879 37.643 26.094 12.863 17.494 22.263 44.253 26.714 58.647a1 1 0 0 1 -.66 1.251 1.013 1.013 0 0 1 -.291.045z" fill="#670a39"/><path d="m265.316 556.3a169.8 169.8 0 0 1 -15.858-28.473c-18.593-41.886-13.288-86.052 14.454-90.89 32.76-5.719 34.258 36.4 45.308 62.551 7.787 18.42 15.271 30.207 21.24 40 4.22 6.926 7.7 12.86 9.994 19.456 14.369 41.267-36.427 52.756-75.138-2.644z" fill="#ffca62"/><path d="m266.16 556.435c24.647 27.371 48.951 36.647 61.693 28.546 10.716-6.814 10.275-24.565 2.938-45.227 4.187 6.871 7.637 12.759 9.915 19.3 14.256 40.946-36.14 52.346-74.546-2.619z" fill="#ffae5d"/><path d="m320.5 594.988c-16.088 0-37.5-11.638-56-38.118a171.274 171.274 0 0 1 -15.953-28.64c-12.684-28.576-14.62-58.774-4.93-76.932 4.557-8.54 11.517-13.848 20.126-15.349 25.806-4.506 32.815 19.456 39.593 42.627a195.633 195.633 0 0 0 6.809 20.52 263.529 263.529 0 0 0 19.845 37.7l1.327 2.172c4.288 7.037 7.753 12.952 10.084 19.647 5.4 15.524 2.156 28.1-8.692 33.645a26.658 26.658 0 0 1 -12.209 2.728zm-50.768-157.588a32.881 32.881 0 0 0 -5.648.517c-7.98 1.392-14.449 6.344-18.706 14.321-9.41 17.635-7.45 47.144 4.994 75.178a169.287 169.287 0 0 0 15.764 28.306c13.666 19.559 27.288 28.629 36.309 32.794 11.079 5.114 21.777 5.828 29.351 1.958 9.876-5.048 12.759-16.714 7.713-31.207-2.266-6.509-5.678-12.331-9.9-19.265l-1.325-2.168a265.38 265.38 0 0 1 -19.984-37.96 197.035 197.035 0 0 1 -6.885-20.736c-6.264-21.411-12.215-41.738-31.683-41.738z" fill="#670a39"/><path d="m242.877 535.788a1 1 0 0 1 -.9-.569c-1.625-3.4-3.2-6.962-4.674-10.587-10.247-25.154-12.544-52.27-5.993-70.768a1 1 0 1 1 1.885.667c-6.394 18.056-4.11 44.627 5.96 69.346 1.461 3.589 3.018 7.114 4.627 10.479a1 1 0 0 1 -.471 1.334.989.989 0 0 1 -.434.098z" fill="#670a39"/></svg>