<svg xmlns="http://www.w3.org/2000/svg" viewBox="0 0 900 900" width="900" height="900"><g transform="translate(43.0 54.0) rotate(0.0 410.0 392.5) scale(0.9999829271207564 1.000350441237376)"><svg width="820.014" height="784.725" viewBox="0 0 820.014 784.725"><path d="M225.591 353.621c-32.14 26.871-61.463 43.385-87.145 49.08-62.289 13.961-101.71-38.184-78.299-125.71 12.601-47.109 41.278-95.887 80.74-137.331 6.551-6.874 17.452-7.145 24.337-.594s7.146 17.452.595 24.337c-32.223 33.831-60.292 77.162-72.416 122.487-9.128 34.09-7.062 63.518 5.362 76.776 9.493 10.119 26.298 10.275 47.672 1.398.01-.01.021-.01.031-.021.636-.25 1.273-.522 1.919-.813.01 0 .031-.011.042-.011 16.242-7.072 34.987-19.215 55.089-36.01 7.292-6.092 18.151-5.122 24.243 2.17 6.103 7.292 5.132 18.151-2.17 24.243z" fill="#b9acc0"/><path d="M107.652 219.649c-25.26 45.838-40.186 93.503-23.44 142.453 7.658 22.386-15.762 23.273-24.055 2.503-7.093-17.639-9.107-40.683-4.277-68.42 8.002-45.065 27.737-76.557 27.737-77.798a345.466 345.466 0 0 1 3.015-5.518c12.458-19.736 31.757-12.705 21.02 6.78z" fill="#d5d6e4"/><path d="M119.491 405.91c-16.753 0-31.661-5.423-43.293-16-20.961-19.06-28.527-52.407-21.302-93.896 9.505-53.506 39.786-109.277 85.268-157.043 6.187-6.485 15.677-7.444 23.616-2.386a.901.901 0 0 1 .101.074c.125.104.272.218.438.347 1.132.881 3.026 2.356 4.773 5.342 4.065 7.322 3.061 15.85-2.548 21.745-35.442 37.22-61.074 80.567-72.174 122.056-9.038 33.757-7.074 62.815 5.125 75.834 9.04 9.637 25.114 10.048 46.482 1.19.041-.023.083-.043.126-.06a41.269 41.269 0 0 0 1.874-.794c.039-.018.08-.033.121-.046 16.279-7.1 35.22-19.489 54.779-35.831 7.707-6.439 19.214-5.409 25.651 2.296a18.081 18.081 0 0 1 4.17 13.304 18.075 18.075 0 0 1-6.467 12.348c-30.349 25.38-58.272 41.584-82.991 48.163-8.205 2.247-16.167 3.359-23.75 3.359zm33.587-270.599c-4.233 0-8.284 1.702-11.467 5.038-45.213 47.484-75.31 102.89-84.745 156.01-7.102 40.788.241 73.487 20.678 92.07 16.373 14.888 39.52 19.218 65.177 12.19 24.442-6.505 52.106-22.575 82.23-47.767a16.09 16.09 0 0 0 5.756-10.991 16.096 16.096 0 0 0-3.713-11.843c-5.731-6.859-15.974-7.776-22.835-2.044-20.013 16.721-38.629 28.886-55.331 36.159a1.126 1.126 0 0 1-.102.038c-.609.274-1.209.53-1.809.767a1.085 1.085 0 0 1-.097.047c-22.244 9.239-39.113 8.672-48.785-1.637-12.669-13.52-14.814-43.3-5.599-77.719 11.185-41.807 36.989-85.46 72.658-122.918 4.993-5.248 5.88-12.853 2.26-19.375-1.542-2.635-3.246-3.961-4.264-4.754-.162-.126-.308-.24-.435-.344-3.097-1.961-6.388-2.927-9.576-2.927z" fill="#670a39"/><path d="M225.591 353.621c-32.14 26.871-61.463 43.385-87.145 49.08-2.42.542-4.84.981-7.24 1.325 22.699-4.83 33.423-46.295 17.222-40.808 16.242-7.072 34.987-19.215 55.089-36.01 7.292-6.092 18.151-5.122 24.243 2.17 6.103 7.292 5.132 18.151-2.17 24.243z" fill="#670a39"/><path d="M131.205 405.026a1 1 0 0 1-.207-1.978c11.589-2.466 20.085-14.995 23.074-25.592 1.695-6.008 1.493-10.932-.527-12.85-1.063-1.01-2.677-1.159-4.795-.441a1 1 0 0 1-.72-1.864c16.294-7.095 35.26-19.495 54.847-35.86 7.707-6.439 19.214-5.409 25.651 2.296a18.081 18.081 0 0 1 4.17 13.304 18.071 18.071 0 0 1-6.466 12.347c-32.263 26.974-61.726 43.558-87.57 49.289a95.78 95.78 0 0 1-7.314 1.338.992.992 0 0 1-.143.01zm22.067-42.92a5.067 5.067 0 0 1 1.651 1.05c2.599 2.468 3.001 8.017 1.075 14.844-2.376 8.421-8.106 18.011-16.105 23.343 25.132-5.996 53.735-22.301 85.057-48.488a16.09 16.09 0 0 0 5.756-10.991 16.096 16.096 0 0 0-3.713-11.843c-5.731-6.859-15.974-7.776-22.835-2.044-18.255 15.252-35.349 26.715-50.887 34.13z" fill="#670a39"/><path d="M174.754 188.441c-12.987 4.306-29.638 6.324-42.238.548-37.304 8.728-58.02-14.562-55.81-53.318 2.456-43.042 5.22-46.834-3.009-90.184-1.369-7.204-3.079-14.284-1.172-21.507C75.604 12.363 87.379 9.49 95.08 13.251c.744-4.769 3.397-9.57 9.172-11.296 27.415-8.191 40.808 38.402 44.374 66.858 22.08-11.707 49.289-2.195 62.742 13.648 7.389 8.697 13.394 26.764 4.659 33.932-4.459 3.641-11.471 2.918-24.093-8.513-29.6-26.82-29.516 31.741-14.397 34.66 10.67 2.051 10.717-18.404 25.032-22.256 32.845-8.865 28.404 49.499-27.815 68.156z" fill="#b9acc0"/><path d="M200.354 174.987c-18.345 14.303-48.621 22.862-67.838 14.002-3.59.84-7.04 1.384-10.342 1.644-3.399.267-6.64.231-9.712-.095-18.745-1.993-31.198-14.828-34.835-35.983 8.012 26.19 33.472 34.091 58.333 22.065 7.967 11.435 33.684 19.456 64.318-1.714.022.03.043.051.075.081z" fill="#b9acc0"/><path d="M219.979 109.471c-2.128 3.776-6.677 3.473-11.193-3.901-11.921-19.465-19.088-24.824-35.913-26.129-18.608-1.444-18.503-15.658.9-15.657 14.912 0 29.024 8.584 37.6 18.681 5.706 6.718 10.348 18.558 8.606 27.007zm-11.538 41.223c6.903-24.349-13.252-30.099-24.776 1.335-8.51-10.683-34.278-9.954-39.67 9.405-6.873 24.676 15.889 25.85 28.009 22.395 11.493-3.276 30.249-11.307 36.437-33.135zm-80.719 12.614c-1.075 25.053-30.414 35.436-44.772 7.458-.01-.011-.01-.021-.021-.032-9.819-19.122-5.632-38.456-4.444-62.172 3.158-46.314-9.27-68.97-6.366-83.452 1.267-6.316 8.572-9.352 14.012-5.901 20.773 13.176 23.335 70.755 18.015 90.323 13.019 12.153 24.535 31.264 23.575 53.775zm7.246-62.697c-3.989.532-7.458 1.489-12.459 3.047 1.033-26.829-6.318-77.249-27.425-90.403-.577-.36.959-4.284 1.9-5.558 3.353-4.539 9.359-6.431 14.603-4.346 17.711 7.04 31.586 54.981 23.381 97.261z" fill="#d5d6e4"/><g fill="#670a39"><path d="M150.664 94.354a1 1 0 0 1-.998-.954c-.585-12.669-1.089-17.026-2.594-28.89a1 1 0 0 1 1.984-.252c1.512 11.924 2.019 16.304 2.607 29.05a1 1 0 0 1-.953 1.045h-.047zm-28.153 10.305h-.038a1 1 0 0 1-.962-1.037c1.071-28.666-6.756-76.94-26.957-89.517a1 1 0 1 1 1.057-1.697c20.873 12.995 28.986 62.156 27.898 91.29a1 1 0 0 1-.999.963z"/><path d="M113.635 108.217a.999.999 0 0 1-.474-1.881c2.356-1.264 5.4-2.486 9.048-3.632 8.093-2.521 14.972-3.394 17.554-3.652l.105-.011c.533-.062 1.027.308 1.11.839s-.261 1.031-.788 1.134c-.014.003-.09.014-.227.028-2.521.252-9.24 1.105-17.156 3.571-3.477 1.092-6.486 2.297-8.699 3.485a.993.993 0 0 1-.472.119zm69.769 44.218a1 1 0 0 1-.998-.959c-.1-2.455.035-8.846 3.451-15.145a.999.999 0 1 1 1.758.954c-3.179 5.862-3.304 11.82-3.211 14.11a1 1 0 0 1-.958 1.04zm-48.312 17.552a1 1 0 0 1-.997-1.095c1.107-11.681 7.372-21.477 17.189-26.877a1 1 0 1 1 .964 1.752c-9.228 5.075-15.119 14.302-16.162 25.313a1 1 0 0 1-.994.906z"/><path d="M150.815 193.604c-6.738 0-13.144-1.139-18.713-3.705a1 1 0 1 1 .837-1.817c19.272 8.883 49.1-.081 66.803-13.88 19.616-15.318 25.968-36.389 20.603-47.126-2.996-5.996-9.217-8.064-17.516-5.823-6.784 1.825-10.25 7.726-13.307 12.933-3.168 5.396-6.162 10.493-12.18 9.323-5.865-1.11-9.157-9.27-10.281-16.536-1.579-10.204.33-22.423 7.034-26.033 3.339-1.799 9.263-2.182 18.516 6.204 10.577 9.579 18.029 12.352 22.783 8.478 2.253-1.845 3.562-4.609 3.888-8.214.748-8.269-3.914-18.695-8.681-24.308-13.25-15.594-39.879-24.87-61.504-13.398a1.001 1.001 0 0 1-1.46-.755c-3.17-24.472-11.866-54.068-26.767-63.744-5.018-3.258-10.513-4.03-16.331-2.292-6.256 1.874-7.99 7.377-8.467 10.49a1 1 0 0 1-1.43.746c-3.99-1.96-8.626-2.013-12.722-.148-4.178 1.903-7.166 5.54-8.413 10.241-1.708 6.424-.363 13.318 1.498 22.859 2.729 13.991 6.467 33.153 4.219 65.382.002 2.421-.286 5.69-.62 9.476-1.166 13.204-2.927 33.153 5.186 48.262.019.029.036.059.052.09 5.915 11.519 16.635 18.403 30.185 19.384a1 1 0 1 1-.145 1.995c-14.254-1.032-25.543-8.281-31.795-20.416-.013-.021-.026-.042-.037-.063-8.422-15.642-6.627-35.974-5.439-49.428.33-3.738.615-6.967.615-9.369 2.233-32.036-1.476-51.048-4.184-64.929-1.912-9.804-3.294-16.887-1.468-23.756 1.403-5.29 4.783-9.391 9.517-11.547 4.241-1.932 8.998-2.047 13.243-.356 1.215-5.431 4.672-9.343 9.631-10.829 6.407-1.913 12.461-1.061 17.993 2.531 15.182 9.859 24.096 39.126 27.474 63.76 22.277-10.932 49.189-1.374 62.693 14.52 5.156 6.071 9.955 16.877 9.149 25.783-.376 4.159-1.929 7.383-4.614 9.582-1.013.826-2.101 1.421-3.267 1.783 3.854 1.037 6.87 3.481 8.742 7.229 5.717 11.441-.748 33.657-21.162 49.597-13.106 10.215-32.74 17.824-50.158 17.824zm27.61-91.727c-1.229 0-2.359.273-3.382.824-5.824 3.136-7.441 14.689-6.005 23.967 1.281 8.283 4.689 14.123 8.682 14.878 4.41.857 6.703-2.623 10.079-8.371 3.252-5.538 6.938-11.815 14.511-13.852a27.825 27.825 0 0 1 3.788-.757c-4.168-1.42-9.062-4.716-14.829-9.939-4.931-4.469-9.295-6.749-12.843-6.749zM66.023 98.216h-.029a1.001 1.001 0 0 1-.972-1.028c.641-22.852-3.754-41.766-7.654-55.692a1 1 0 1 1 1.926-.54c3.938 14.061 8.376 33.167 7.727 56.287a1 1 0 0 1-.999.972z"/><path d="M221.435 78.563a.997.997 0 0 1-.815-.42c-10.565-14.835-27.571-24.553-44.381-25.363a1 1 0 0 1 .096-1.998c17.408.838 35.001 10.878 45.914 26.2a1.002 1.002 0 0 1-.813 1.581z"/></g><path d="M387.665 537.748c-13.21 9.48-144.186 21.004-214.545 170.973-8.752 18.641 2.806 45.418-15.804 64.926 0 0 0-.011-.01-.011 0-.01 0-.02-.011-.031-9.417-17.998-19.206-37.962-27.091-57.092 34.012-100.279 120.756-181.865 242.502-211.332 19.105-4.659 31.473 20.724 14.959 32.567z" fill="#9c819c"/><path d="M391.056 534.587C262.258 548.012 172.589 629.9 140.96 740.776c-4.199-8.916-7.931-17.413-10.755-24.263 35.167-102.365 121.888-181.939 242.502-211.332 17.115-4.174 29.528 15.974 18.349 29.406z" fill="#d5d6e4"/><path d="M157.316 774.646a.988.988 0 0 1-.734-.321 1.004 1.004 0 0 1-.205-.318c-11.279-21.559-20.143-40.241-27.098-57.114a.999.999 0 0 1-.022-.702c16.968-50.027 47.357-95.657 87.883-131.958 42.462-38.035 96.175-65.708 155.331-80.026 10.615-2.59 18.73 3.572 22.063 10.827 3.031 6.598 3.203 16.719-6.286 23.525-1.911 1.371-6.846 2.781-14.317 4.916-38.588 11.024-141.092 40.309-199.906 165.67-3.441 7.329-3.662 15.969-3.896 25.116-.354 13.843-.72 28.157-12.09 40.075-.193.202-.456.31-.724.31zm-26.044-58.167c6.784 16.421 15.386 34.575 26.272 55.443 9.907-11.165 10.252-24.654 10.586-37.712.239-9.363.465-18.206 4.084-25.914 59.2-126.184 162.339-155.65 201.167-166.743 7.008-2.002 12.072-3.449 13.7-4.618 8.501-6.097 8.348-15.158 5.634-21.065-2.99-6.508-10.264-12.037-19.773-9.718-116.063 28.092-206.378 106.707-241.671 210.327z" fill="#670a39"/><path d="M381.344 540.648c-23.993 5.841-46.598 13.936-67.586 24.044 14.218-7.907-27.56-27.018-49.404-14.625 32.807-20.341 69.422-35.405 108.352-44.887 9.795-2.389 19.674 3.619 22.052 13.415 2.389 9.795-3.62 19.664-13.415 22.052z" fill="#670a39"/><path d="M313.759 565.693a1 1 0 0 1-.487-1.874c1.56-.868 2.359-1.865 2.373-2.966.026-1.933-2.313-4.479-6.256-6.81-9.877-5.84-30.863-10.865-44.542-3.105a1 1 0 0 1-1.02-1.719c32.69-20.269 69.242-35.412 108.642-45.008a19.12 19.12 0 0 1 14.567 2.258 19.107 19.107 0 0 1 8.693 11.893c2.514 10.309-3.833 20.744-14.15 23.26-23.631 5.753-46.304 13.819-67.389 23.974-.14.067-.288.099-.433.099zm-31.886-20.692c10.931 0 22.046 3.484 28.534 7.32 3.327 1.968 7.284 5.049 7.238 8.558a4.257 4.257 0 0 1-.114.923c20.009-9.284 41.373-16.721 63.576-22.126 9.245-2.255 14.933-11.605 12.68-20.844a17.123 17.123 0 0 0-7.79-10.657 17.133 17.133 0 0 0-13.054-2.023c-35.779 8.714-69.193 22.024-99.474 39.611 2.732-.527 5.562-.762 8.404-.762z" fill="#670a39"/><path d="M165.015 740.776c-.167 3.349-5.237 7.522-11.902 7.386-4.006-.084-7.792-1.846-10.703-4.611C90.388 693.98 31.627 639.309 19.527 628.064l-.01-.01c2.18-3.307 4.579-6.207 7.146-8.721.365-.355.72-.709 1.085-1.043.344-.323.689-.625 1.022-.928.042-.032.083-.073.125-.104.261-.23.532-.459.793-.678a43.468 43.468 0 0 1 1.586-1.252c.24-.188.48-.375.73-.553.146-.104.303-.22.459-.323.323-.23.647-.449.97-.668 42.102-28.009 110.939 36.103 130.707 93.957 2.024 13.353 1.283 25.37.876 33.037z" fill="#9c819c"/><path d="M95.103 620.021c-16.847-9.649-26.559 7.542-19.549 15.147l-5.424 1.554-31.295-14.02H23.553c19.058-22.593 46.601-18.322 71.55-2.681z" fill="#d5d6e4"/><path d="M164.139 708.74a1 1 0 0 1-.946-.677c-16.636-48.694-63.809-95.253-100.951-99.635-17.994-2.123-32.41 5.169-42.851 21.672a1 1 0 1 1-1.69-1.07c10.734-16.967 26.218-24.779 44.775-22.589 18.881 2.228 40.307 14.577 60.33 34.773 19.065 19.229 34.475 43.359 42.279 66.201a1 1 0 0 1-.946 1.324z" fill="#670a39"/><path d="M79.435 763.601c-65.172-47.947-85.579-133.49-45.534-146.615 22.469-7.364 38.555 12.341 53.774 34.539 5.852 8.522 11.569 17.41 17.473 25.276 25.587 34.097 43.368 46.797 52.606 64.519 20.105 38.57-25.674 60.859-78.32 22.282z" fill="#d5d6e4"/><path d="M79.435 763.601C38.648 733.6 15.396 688.869 13.518 656.375c.866-13.436 6.426-23.419 16.857-27.07 16.388-5.737 34.935 2.785 56.309 33.037 5.884 8.324 12.122 16.649 18.297 24.17 25.102 30.544 43.257 43.358 53.264 58.696 3.277 5.023 4.894 11.034 4.122 16.982-3.141 24.184-40.836 32.253-82.933 1.41z" fill="#b9acc0"/><path d="M131.536 784.638c-14.509 0-32.954-5.769-52.693-20.231h-.002c-43.347-31.885-64.545-77.205-66.323-107.975-1.212-20.887 6.468-35.612 21.07-40.398 23.332-7.647 39.92 13.06 54.911 34.924 1.777 2.588 3.542 5.21 5.304 7.827 3.956 5.878 8.047 11.955 12.144 17.413 12.044 16.05 22.479 27.485 30.863 36.674 9.435 10.339 16.888 18.506 21.83 27.983 1.735 3.335 3.026 6.632 3.837 9.801 3.061 11.798-.38 22.093-9.441 28.241-5.316 3.607-12.682 5.739-21.502 5.739zm-51.511-21.844c30.951 22.677 58.408 23.597 71.889 14.45 8.319-5.645 11.464-15.153 8.627-26.087-.774-3.024-2.01-6.177-3.674-9.376-4.821-9.245-12.196-17.327-21.533-27.559-8.414-9.22-18.884-20.694-30.986-36.821-4.128-5.499-8.234-11.599-12.204-17.497-1.758-2.612-3.52-5.229-5.294-7.813-14.562-21.239-30.621-41.37-52.639-34.155-13.873 4.547-20.868 18.178-19.696 38.382 1.694 29.319 22.921 75.147 65.509 106.477zm-59.391-45.608a1 1 0 0 1-.861-.49C8.034 696.924 1.012 676.198.002 658.335a1 1 0 1 1 1.997-.113c.992 17.548 7.916 37.952 19.495 57.453a1 1 0 0 1-.859 1.51z" fill="#670a39"/><path d="M816.81 546.121c-8.888 42.926-45.429 67.023-83.275 54.661a42.08 42.08 0 0 1-1.836-.636c-4.246-1.523-8.46-3.516-12.601-5.946-12.873-7.552-25.057-19.319-35.186-34.539-19.152-28.77-30.94-69.839-26.089-117.866.928-9.169 9.117-15.867 18.286-14.928 9.169.918 15.856 9.107 14.928 18.276-2.629 26.016.699 49.372 7.386 68.66 7.281 21.04 18.558 37.251 30.45 46.775 9.534 7.646 19.017 10.682 27.414 9.795 26.152-2.775 41.903-43.499 16.732-101.113-5.56-12.726-12.82-25.453-21.604-37.918-.01-.011-.021-.032-.031-.042a256.43 256.43 0 0 0-10.463-13.843c-10.129-12.56-21.781-24.765-34.779-36.354-6.874-6.144-7.479-16.69-1.346-23.565 6.144-6.885 16.69-7.49 23.565-1.346 33.965 30.303 59.992 64.779 75.243 99.705 13.947 31.931 18.641 63.966 13.206 90.222z" fill="#b9acc0"/><path d="M810.614 544.035c-8.032 42.31-43.228 64.289-77.079 56.747-4.312-1.388-9.232-3.538-13.947-6.238-39.459-27.099-30.852-57.862-7.302-38.628 17.097 13.967 31.169 16.784 44 14.458 34.65-3.677 48.031-72.169-12.843-149.752-13.042-16.622-3.749-41.699 19.968-13.366 36.834 44.011 54.786 96.868 47.203 136.778z" fill="#d5d6e4"/><path d="M753.536 604.99c-15.646 0-31.727-6.006-46.167-17.579-36.673-29.393-56.511-86.591-50.54-145.718a17.574 17.574 0 0 1 6.414-11.926 17.555 17.555 0 0 1 12.966-3.897 17.573 17.573 0 0 1 11.924 6.412 17.572 17.572 0 0 1 3.898 12.966c-5.455 54.02 14.886 96.459 37.465 114.555 14.056 11.268 28.475 12.863 39.561 4.375 15.999-12.25 23.776-47.051 3.043-94.51-13.29-30.422-36.328-60.789-66.624-87.82-3.526-3.146-5.616-7.476-5.885-12.194s1.316-9.258 4.461-12.784a17.574 17.574 0 0 1 12.193-5.884 17.57 17.57 0 0 1 12.784 4.463c34.072 30.398 60.177 64.997 75.492 100.056 14.03 32.116 18.741 64.368 13.265 90.816-5.504 26.585-21.995 47.211-44.115 55.173a59.248 59.248 0 0 1-20.138 3.497zm-44.916-19.139c20.507 16.435 43.37 21.322 64.376 13.76 21.459-7.725 37.472-27.798 42.833-53.697 5.392-26.046.726-57.87-13.14-89.61-15.201-34.797-41.132-69.156-74.991-99.364a15.596 15.596 0 0 0-11.339-3.958c-4.184.239-8.025 2.092-10.815 5.219s-4.195 7.154-3.957 11.338 2.092 8.025 5.219 10.815c30.51 27.221 53.721 57.828 67.125 88.512 9.563 21.89 13.899 42.964 12.539 60.945-1.219 16.12-6.972 28.889-16.199 35.954-11.702 8.96-27.413 7.314-42.028-4.402-23.001-18.434-43.735-61.55-38.204-116.316a15.59 15.59 0 0 0-3.457-11.5 15.589 15.589 0 0 0-10.577-5.687 15.577 15.577 0 0 0-11.499 3.456 15.591 15.591 0 0 0-5.689 10.578c-5.904 58.466 13.647 114.974 49.801 143.957z" fill="#670a39"/><path d="M698.423 513.804c-5.456-13.331-23.732 20.362-14.51 45.857-19.152-28.77-30.94-69.839-26.089-117.866.928-9.169 9.117-15.867 18.286-14.928 9.169.918 15.856 9.107 14.928 18.276-2.629 26.016.699 49.372 7.386 68.66z" fill="#670a39"/><path d="M683.913 560.662a1 1 0 0 1-.833-.446c-21.401-32.149-30.724-74.24-26.252-118.52a17.59 17.59 0 0 1 6.429-11.94 17.54 17.54 0 0 1 12.954-3.882 17.552 17.552 0 0 1 11.921 6.403 17.566 17.566 0 0 1 3.9 12.969c-2.409 23.845.127 47.439 7.335 68.232a1 1 0 0 1-1.871.706c-1.23-3.005-2.718-2.431-3.278-2.216-6.513 2.509-16.651 27.214-9.366 47.354a1 1 0 0 1-.94 1.34zm-9.526-132.881c-3.59 0-7.043 1.225-9.866 3.526a15.6 15.6 0 0 0-5.703 10.591c-4.171 41.293 3.765 80.637 22.387 111.617-3.695-19.374 5.258-40.701 12.295-43.412.566-.218 1.54-.466 2.597-.166-6.239-20.015-8.333-42.349-6.055-64.892a15.579 15.579 0 0 0-3.459-11.502 15.565 15.565 0 0 0-10.573-5.679 15.823 15.823 0 0 0-1.623-.083z" fill="#670a39"/><path d="M494.044 783.556c36.138.716 99.668 2.016 98.357-64.048-.65-32.592-7.953-55.776-18.35-71.339-9.99-14.98-25.267-25.763-43.088-25.982-14.231-.188-25.674 3.888-33.131 14.704-2.577 3.745-4.681 8.294-6.256 13.757-1.3 4.516-2.247 9.66-2.809 15.475a136.17 136.17 0 0 0-.507 8.051c-.077 4.263-.055 8.118.011 11.609.385 24.981 2.478 31.953-16.18 43.341-6.818 4.174-11.565 9.439-14.231 15.056-8.294 17.182 3.095 38.726 36.182 39.376z" fill="#b9acc0"/><path d="M457.857 744.183c.297 5.948 4.406 11.961 13.911 15.893 9.362 3.877 24.936 6.587 39.585 3.976 44.806-7.985 44.41-64.488 13.823-89.347-2.016-1.652-3.965-2.732-5.915-3.415-4.989.881-20.112 2.115-31.005 2.886-.011.65-.033 1.289-.044 1.95-.65 32.558 5.221 39.971-16.125 53-6.818 4.174-11.565 9.44-14.23 15.057z" fill="#d5d6e4"/><path d="M507.221 680.336c-5.341 5.55-15.282 12.184-19.664 31.326v-.052c1.899-7.948.376-18.683.699-37.438.052-1.627.136-3.213.24-4.757 5.983 3.203 12.695 7.398 18.725 10.922z" fill="#670a39"/><path d="M487.559 712.662a1 1 0 0 1-1.001-1c0-.078.009-.209.027-.285 1.151-4.819 1.009-10.8.812-19.078-.123-5.175-.263-11.039-.14-18.145.05-1.568.129-3.136.242-4.807a.998.998 0 0 1 1.47-.814c4.083 2.186 8.511 4.836 12.794 7.398 2.027 1.213 4.03 2.412 5.964 3.542a.999.999 0 0 1 .216 1.557c-.845.878-1.801 1.781-2.813 2.737-5.47 5.166-12.962 12.242-16.596 28.119a1 1 0 0 1-.974.777zm1.839-41.621a127.714 127.714 0 0 0-.141 3.162c-.121 7.05.018 12.893.14 18.048.087 3.644.163 6.85.124 9.726 4.08-10.076 9.8-15.477 14.235-19.666.646-.61 1.269-1.198 1.848-1.767a815.975 815.975 0 0 1-4.868-2.898c-3.784-2.265-7.683-4.598-11.338-6.606z" fill="#670a39"/><path d="M592.396 719.51c-.414-20.752-3.533-37.677-8.418-51.263-3.95-10.989-18.421-37.078-29.416-38.846-15.445-9.163-36.557-10.925-50.907 1.814 8.902-7.902 20.932-6.904 29.628.572 13.238 11.38 19.323 30.059 23.157 46.478 5.31 22.724 8.321 54.702-5.096 73.892-10.568 15.115-28.56 22.337-49.575 22.337-28.218 0-43.903-6.212-46.513-18.757.253 14.186 13.195 27.316 38.781 27.823 36.138.715 99.668 2.015 98.357-64.049z" fill="#9c819c"/><path d="M539.59 545.207c-.626.271-1.262.542-1.878.813-28.779 12.387-62.545 29.387-89.888 51.97-83.219 68.979-5.757 107.879 48.475 41.309 6.269 4.945 27.696 23.825 27.696 23.825-87.184 105.341-211.356 14.489-113.944-80.125 25.86-25.776 64.623-49.789 115.206-71.372 9.274-3.964 19.997.355 23.951 9.628 3.964 9.274-.344 19.998-9.618 23.951z" fill="#b9acc0"/><path d="M501.286 652.067c-38.714 43.604-90.661 33.172-89.993 2.441 1.794 25.265 47.808 30.45 85.007-15.209a61.52 61.52 0 0 1 1.846-2.326q0-.01.011-.01c13.749-14.782 14.417 2.392 3.129 15.105z" fill="#d5d6e4"/><path d="M550.084 533.033c-1.377 5.268-5.09 9.868-10.494 12.174a575.441 575.441 0 0 0-14.479 6.405c-35.102 10.161-62.088 20.373-86.248 38.973-61.713 47.515-55.36 109.332-4.339 119.587-72.899-2.769-115.112-110.711 90.733-198.543 14.053-6.007 28.617 6.928 24.827 21.406z" fill="#d5d6e4"/><path d="M539.59 545.207c-.626.271-1.262.542-1.878.813-30.975 13.332-64.079 30.654-89.888 51.97h-.011c7.302-9.524-25.828-24.431-38.68-13.936l-.125-.011c31.684-31.637 75.305-54.945 116.249-72.416 9.274-3.964 19.997.355 23.951 9.628 3.964 9.274-.344 19.998-9.618 23.951z" fill="#670a39"/><path d="M447.824 598.99c-.381 0-.734-.216-.902-.557s-.134-.749.098-1.051c1.954-2.549.066-5.314-1.863-7.184-7.4-7.177-26.6-12.547-35.391-5.369a.998.998 0 0 1-.718.222l-.125-.011a.998.998 0 0 1-.621-1.704c26.937-26.897 65.065-50.654 116.563-72.628a19.107 19.107 0 0 1 14.736-.158 19.129 19.129 0 0 1 10.527 10.314 19.116 19.116 0 0 1 .163 14.736 19.116 19.116 0 0 1-10.309 10.528l-.588.253c-.429.185-.859.37-1.279.555-37.285 16.048-67.447 33.484-89.655 51.826a.999.999 0 0 1-.637.229zm-26.553-19.557c9.384 0 19.965 4.175 25.278 9.328 2.164 2.099 3.277 4.272 3.292 6.3 22.079-17.672 51.485-34.469 87.476-49.96.417-.184.852-.371 1.287-.558l.589-.254.005-.002a17.124 17.124 0 0 0 9.237-9.433 17.133 17.133 0 0 0-.147-13.205 17.14 17.14 0 0 0-9.434-9.243 17.117 17.117 0 0 0-13.204.142c-48.428 20.664-84.954 42.888-111.401 67.806 2.18-.633 4.559-.92 7.021-.92zm67.185 116.33a1 1 0 0 1-.527-1.85c12.611-7.793 24.487-18.366 35.295-31.426a1 1 0 0 1 1.541 1.275c-10.948 13.228-22.988 23.944-35.785 31.852a.997.997 0 0 1-.525.149z" fill="#670a39"/><path d="M507.095 784.726c-4.596 0-8.98-.087-13.03-.168-17.054-.339-29.864-6.134-36.118-16.32-4.556-7.42-4.915-16.344-.986-24.484 2.85-6.025 7.903-11.381 14.607-15.482 9.387-5.724 13.457-10.302 15.019-16.892.962-4.016 1.021-8.759.906-14.859-42.078 25.206-82.812 15.121-101.545-8.148-9.976-12.392-14.032-28.574-11.421-45.565 2.939-19.12 14.178-39.234 32.502-58.167 26.114-26.842 65.76-51.717 117.837-73.934 6.887-2.945 14.389-1.783 20.067 3.108 5.643 4.862 7.988 12.323 6.12 19.47-1.518 5.807-5.552 10.487-11.069 12.841a582.742 582.742 0 0 0-14.454 6.394c-84.647 38.885-113.931 78.733-113.288 101.041.01.285.018.564.047.844.564 7.94 5.776 14.023 14.302 16.72 3.171 1.003 6.739 1.534 10.596 1.534 16.597.001 38.636-9.809 58.338-33.992 2.412-3.189 4.843-5.866 7.411-8.157l.06-.05.011-.009c7.77-6.891 16.669-9.832 28.007-9.259 17.244.865 33.232 10.498 43.864 26.429 3.95 5.914 7.328 12.74 10.04 20.287 5.239 14.544 8.091 31.898 8.477 51.579.385 19.362-4.817 34.576-15.461 45.22-17.681 17.681-47.073 20.018-70.841 20.018zm-18.638-90.962a.997.997 0 0 1 1 .978c.156 7.099.182 12.482-.924 17.102-1.701 7.179-6.016 12.095-15.922 18.135-6.371 3.896-11.159 8.958-13.845 14.637-3.63 7.521-3.306 15.747.886 22.575 5.885 9.585 18.104 15.042 34.407 15.366 24.703.492 61.966 1.234 82.464-19.263 10.245-10.245 15.25-24.97 14.876-43.766-.382-19.463-3.194-36.602-8.359-50.942-2.658-7.395-5.962-14.075-9.822-19.854-10.277-15.4-25.695-24.709-42.301-25.542-10.936-.554-19.139 2.152-26.596 8.772l-.057.047-.012.01c-2.463 2.2-4.803 4.779-7.152 7.883-24.897 30.56-53.649 38.653-71.11 33.13-9.349-2.958-15.069-9.683-15.692-18.453a13.607 13.607 0 0 1-.054-.955c-.378-13.13 8.572-29.402 25.202-45.824 20.228-19.974 50.256-39.184 89.25-57.097a579.41 579.41 0 0 1 14.505-6.416c4.943-2.109 8.558-6.303 9.918-11.506 1.673-6.403-.43-13.09-5.491-17.449-5.086-4.382-11.806-5.422-17.975-2.784-51.833 22.113-91.26 46.837-117.188 73.487-41.19 42.559-37.835 80.123-20.959 101.085 18.403 22.859 58.808 32.533 100.425 6.794.161-.099.343-.15.526-.15zm117.498 26.743a1 1 0 0 1-1-.99c-.304-29.813-6.192-53.689-17.498-70.967a1 1 0 0 1 1.673-1.095c11.519 17.603 17.516 41.841 17.824 72.042a1 1 0 0 1-.99 1.01h-.01z" fill="#670a39"/><path d="M366.439 682.243a1 1 0 0 1-.922-.611c-9.217-21.827-6.252-48.13 8.347-74.064a1 1 0 0 1 1.743.981c-14.289 25.383-17.218 51.061-8.247 72.305a1 1 0 0 1-.921 1.389z" fill="#670a39"/><path d="M737.956 626.009c.135.052.282.104.417.146-.167-.042-.334-.104-.501-.156.031 0 .052.011.084.011zm47.119-351.605c6.78-15.053-.866-30.022-17.014-33.35l-.351-.069-474.45-95.775c-7.215-1.682-16.17 1.282-21.224 8.493-6.628 9.487-86.451 162.866-148.372 313.1-4.475 10.87 1.513 23.22 12.831 26.433l469.043 133.43c14.771 4.193 30.293-3.526 35.863-17.827 47.813-122.791 92.622-220.973 143.673-334.435z" fill="#9c819c"/><path d="M638.405 599.429c-1.024 2.607.556 8.042 2.999 9.407-5.539 14.229-20.936 21.948-35.645 17.89l-.219-.063-9.461-2.691c9.68 2.754 13.071-7.458 1.043-9.712 14.323-12.132 33.36-17.838 33.36-17.838-2.955 7.96 4.313 12.201 7.923 3.006z" fill="#b9acc0"/><path d="M785.077 274.401c-51.052 113.464-95.866 211.645-143.673 334.435-5.539 14.229-20.936 21.948-35.645 17.89 12.643.636 24.66-6.822 29.427-19.058 48.141-123.634 93.258-222.494 144.654-336.73 4.705-10.442 2.514-20.842-4.621-27.404 11.089 5.696 15.543 18.255 9.858 30.867z" fill="#b9acc0"/><path d="M613.741 628.813c-2.727 0-5.496-.364-8.248-1.123l-9.688-2.756-459.582-130.739a20.707 20.707 0 0 1-12.963-10.869 20.705 20.705 0 0 1-.519-16.907c62.885-152.573 142.133-304.209 148.472-313.294 5.001-7.125 14.16-10.78 22.275-8.893.035.006 177.583 35.85 320.245 64.651l154.173 31.125c.043.004.336.053.439.083a29.149 29.149 0 0 1 7.328 2.551c11.865 6.094 16.106 19.322 10.315 32.168l-11.308 25.118c-46.243 102.681-86.18 191.36-129.279 301.415a3101.811 3101.811 0 0 0-3.066 7.853 30.669 30.669 0 0 1-28.595 19.614zM289.117 145.74c-6.225 0-12.52 3.198-16.264 8.532-6.32 9.058-85.428 160.462-148.262 312.909-2.025 4.919-1.854 10.485.469 15.272s6.591 8.366 11.711 9.819l469.044 133.429.098.028.122.035a28.677 28.677 0 0 0 34.438-17.291c1.023-2.629 2.045-5.249 3.068-7.857 43.117-110.102 83.064-198.801 129.317-301.507l11.308-25.118c5.331-11.827 1.464-23.985-9.403-29.567-2.112-1.077-4.435-1.882-6.902-2.393a3.024 3.024 0 0 0-.289-.051c-.099-.018-68.977-13.923-154.234-31.135l-320.273-64.658a17.448 17.448 0 0 0-3.948-.447z" fill="#670a39"/><path d="M776.242 258.524a27879.734 27879.734 0 0 0-16.68 36.865c-1.502 3.348-3.015 6.697-4.527 10.045-44.313 98.275-88.929 199.326-126.545 296.088-4.162 10.713-16.586 16.92-27.644 13.791l-215.359-60.941-21.531-6.092-231.757-65.572c-7.333-2.284-11.047-9.576-8.22-16.67 28.833-72.353 64.477-150.068 101.436-223.861a3453.508 3453.508 0 0 1 44.773-86.331c4.027-7.5 14.156-12.257 22.501-10.567l474.624 95.803c8.481 1.711 12.497 9.555 8.929 17.442z" fill="#bfd3ce"/><path d="m385.487 554.373-21.531-6.092-138.541-306.103a3765.849 3765.849 0 0 1 9.9-19.611zM278.449 524.09l-33.652-9.524-87.896-24.869-22.407-49.529c11.704-28.332 24.326-57.29 37.543-86.363a2949.405 2949.405 0 0 1 14.823-32.088l91.589 202.372zM776.24 258.527c-33.981 75.005-68.555 151.772-100.633 227.439L544.41 196.094l222.901 44.992c8.481 1.71 12.497 9.555 8.929 17.441z" fill="#d3e4e6"/><path d="m639.816 358.19-7.396 16.763-15.7-3.619-7.344 16.67-15.668-3.683-7.302 16.566-22.908 12.747-62.516-15.126-15.626-3.776 7.145-16.211-15.647-3.724L484 358.586l-15.668-3.672 7.135-16.2-31.389-7.25-7.093 16.096-15.679-3.682-7.052 16.002-15.647-3.724-7.01 15.898c-62.142-15.031-35.303-8.538-78.132-18.902l6.895-15.647s13.192-30.327 21.543-47.034c112.497 25.563 268.073 60.934 297.912 67.72z" fill="#94b8c2"/><path d="M776.24 258.527a25203.491 25203.491 0 0 0-21.207 46.911c-44.313 98.275-88.929 199.325-126.545 296.088-4.162 10.713-16.586 16.92-27.644 13.791L132.197 482.711c-7.5-2.368-11.047-9.576-8.22-16.67 10.265-25.755 35.572-87.458 70.914-161.344 25.83-54.032 52.499-106.427 75.295-148.847 2.003-3.735 5.518-6.791 9.576-8.7-31.305 58.991-97.799 180.262-148.482 314.719-3.874 10.278-.1 14.104 8.22 16.67 113.824 35.091 458.215 130.519 458.215 130.519 13.175 3.776 23.022-1.951 27.644-13.791 44.605-114.225 97.691-232.488 147.752-342.999 1.179-2.597 1.523-5.195 1.168-7.563 3.369 3.422 4.319 8.606 1.961 13.822z" fill="#d3e4e6"/><path d="M776.24 258.527a30592.048 30592.048 0 0 0-16.68 36.865l-506.42-107.32a2958.502 2958.502 0 0 1 17.045-32.223c4.026-7.501 14.155-12.257 22.501-10.568l474.624 95.804c8.481 1.71 12.497 9.555 8.929 17.441zm-342.165 51c-12.549 31.66-40.746 50.645-64.968 44.793a37.843 37.843 0 0 1-4.976-1.575c-25.224-9.983-34.789-45.534-21.374-79.384 4.319-10.901 10.494-20.3 17.723-27.706 11.391-11.652 25.401-18.349 38.899-18.13 4.538.062 9.023.907 13.321 2.618 14.834 5.873 24.264 20.602 26.767 38.638 1.753 12.601.125 26.819-5.393 40.746zm143.465 32.546c-12.81 32.338-41.841 51.647-67.023 45.753a39.364 39.364 0 0 1-5.529-1.732c-26.319-10.421-36.489-47.036-22.73-81.762 4.788-12.08 11.84-22.344 20.102-30.158 11.444-10.818 25.234-16.93 38.566-16.638a39.775 39.775 0 0 1 13.884 2.775c14.834 5.873 24.535 20.071 27.717 37.554 2.462 13.53 1.022 29.052-4.986 44.209z" fill="#94b8c2"/><path d="M776.24 258.527c-2.222 4.903-14.927 32.985-15.115 33.402-16.273-3.453-98.275-20.832-191.732-40.63-158.478-33.58-267.778-56.765-314.469-66.647 15.931-30.475 16.74-33.464 23.899-37.032 2.744-1.513 6.635-2.681 10.369-2.681 1.878 0-22.532-4.913 255.218 51.146 59.408 11.996 132.637 26.778 222.901 45.002 8.908 1.794 12.486 10.327 8.929 17.441z" fill="#829a9e"/><path d="M776.24 258.527c-2.222 4.903-14.927 32.985-15.115 33.402-16.273-3.453-98.275-20.832-191.732-40.63l-24.983-55.214c59.408 11.996 132.637 26.778 222.901 45.002 8.908 1.794 12.486 10.327 8.929 17.441z" fill="#94b8c2"/><path d="M767.311 241.086c-101.655-20.517-466.141-94.063-472.58-95.292-2.76-.527-6.95-1.842-13.325.647-9.733 3.705-10.678 7.968-26.482 38.21l.198.042.501.104 4.517.897c7.873-15.067 12.033-23.331 15.029-28.269 3.58-5.902 10.393-9.029 17.19-7.824 29.234 5.183 124.683 25.918 468.693 94.614 9.2 1.805 13.457 7.657 8.929 17.441C602.504 623.655 628.096 605.09 614.04 614.94c6.415-2.128 11.934-6.947 14.448-13.415 44.055-113.317 97.728-232.529 147.752-342.999 3.56-7.119-.021-15.646-8.929-17.441z" fill="#d3e4e6"/><path d="M761.126 292.929a.987.987 0 0 1-.208-.022L254.717 185.629a1 1 0 0 1 .415-1.957l506.2 107.278a1 1 0 0 1-.206 1.979z" fill="#670a39"/><path d="M606.75 617.126c-2.066 0-4.142-.274-6.176-.85L131.927 483.67c-3.936-1.226-6.996-3.798-8.641-7.249-1.588-3.331-1.672-7.15-.236-10.753a2123.653 2123.653 0 0 1 10.52-25.882c11.351-27.478 23.987-56.545 37.557-86.394a2956.052 2956.052 0 0 1 14.828-32.099 3411.17 3411.17 0 0 1 39.662-81.744 3424.608 3424.608 0 0 1 26.598-51.912 3615.198 3615.198 0 0 1 10.06-19.093.974.974 0 0 1 .04-.086c2.337-4.393 4.664-8.755 6.991-13.085 4.232-7.882 14.809-12.85 23.58-11.074l106.318 21.461c136.514 27.556 364.998 73.676 368.305 74.342 4.405.889 7.841 3.349 9.674 6.927 1.834 3.58 1.823 7.809-.031 11.908-33.137 73.14-68.203 150.947-100.623 227.417-17.8 41.984-33.209 79.775-47.108 115.532-3.587 9.232-13.005 15.24-22.672 15.24zM264.121 169.323a1.077 1.077 0 0 1-.039.084 3561.882 3561.882 0 0 0-10.095 19.157 3425.39 3425.39 0 0 0-26.582 51.882 3410.99 3410.99 0 0 0-39.639 81.696 2941.83 2941.83 0 0 0-14.818 32.077c-13.56 29.827-26.186 58.873-37.529 86.331a2110.356 2110.356 0 0 0-10.51 25.859c-1.227 3.079-1.162 6.329.183 9.152 1.403 2.943 4.033 5.142 7.405 6.193l468.622 132.598c10.589 2.997 22.449-2.921 26.439-13.191 13.906-35.776 29.323-73.586 47.131-115.589 32.429-76.49 67.5-154.31 100.643-227.461 1.598-3.532 1.624-7.144.073-10.171-1.55-3.025-4.493-5.112-8.289-5.878-3.307-.666-231.791-46.786-368.306-74.342l-106.318-21.461c-7.969-1.614-17.578 2.899-21.422 10.06a3551.591 3551.591 0 0 0-6.948 13.003z" fill="#670a39"/><path d="M519.15 414.022c5.686 8.259 11.572 14.889 17.488 20.011 29.547 25.817 59.827 15.241 72.402-6.899a46.267 46.267 0 0 0 5.94-19.67c-7.856-5.441-15.261-12.503-21.351-20.499-13.062 19.935-46.445 32.13-74.479 27.057z" fill="#670a39"/><path d="M572.248 450.152c-9.716 0-22.432-3.275-36.268-15.365-6.156-5.329-12.097-12.126-17.654-20.197a1 1 0 0 1 1.002-1.551c27.616 4.997 60.572-6.945 73.464-26.621a1 1 0 0 1 1.632-.058c5.961 7.827 13.266 14.841 21.125 20.283.29.201.453.541.428.893-.5 7.061-2.599 14.01-6.069 20.095-6.687 11.774-17.825 19.767-30.558 21.927-2.13.361-4.51.595-7.102.595zm-50.917-34.761c5.065 7.086 10.427 13.096 15.961 17.886 16.941 14.803 32.04 15.951 41.723 14.308 12.138-2.059 22.764-9.693 29.154-20.945 3.231-5.666 5.22-12.113 5.768-18.683-7.482-5.254-14.454-11.895-20.258-19.29-13.412 19.045-45.068 30.698-72.349 26.724z" fill="#670a39"/><path d="M519.151 415.023a.993.993 0 0 1-.179-.016c-8.222-1.49-15.547-4.344-21.772-8.482a1 1 0 1 1 1.107-1.665c5.996 3.987 13.069 6.739 21.021 8.18a1.001 1.001 0 0 1-.177 1.984z" fill="#670a39"/><path d="M536.638 434.034c29.547 25.817 59.827 15.241 72.402-6.899-11.852-9.067-30.332-12.052-41.206 3.457.195-12.768-24.417-9.631-31.196 3.443z" fill="#ec4949"/><path d="M572.249 450.152c-9.716 0-22.432-3.275-36.268-15.365a1 1 0 0 1-.23-1.213c4.764-9.187 17.62-13.709 25.933-11.614 3.64.917 6.031 3.075 6.843 6.076 4.155-5.01 9.518-8.132 15.641-9.078 8.247-1.273 17.772 1.487 25.479 7.383a1 1 0 0 1 .262 1.288c-6.688 11.776-17.826 19.769-30.559 21.929-2.13.361-4.51.595-7.102.595zm-34.344-16.345c16.69 14.299 31.544 15.401 41.111 13.778 11.861-2.012 22.28-9.349 28.712-20.183-7.151-5.209-15.783-7.623-23.254-6.469-6.434.993-11.756 4.435-15.82 10.232a1 1 0 0 1-1.819-.59c.066-4.328-3.03-6.02-5.639-6.678-7.225-1.819-18.723 2.115-23.29 9.909z" fill="#670a39"/><path d="M609.04 427.134c-12.867-9.844-33.547-12.519-43.824 7.858" fill="#ec4949"/><path d="M565.215 435.993a1 1 0 0 1-.893-1.45c4.143-8.214 10.383-13.485 18.044-15.241 8.711-1.997 18.91.635 27.281 7.039a1 1 0 0 1-1.215 1.589c-7.904-6.047-17.481-8.543-25.618-6.678-7.063 1.619-12.84 6.526-16.706 14.192a1 1 0 0 1-.894.55z" fill="#670a39"/><ellipse cx="583.477" cy="432.691" fill="#ff6d6d" rx="11.906" ry="6.678" transform="matrix(.90561322 -.42410459 .42410459 .90561322 -128.434 288.298)"/><path d="M337.122 181.384c-4.929 5.821-12.421 8.602-17.772 5.637-5.505-3.052-6.814-10.711-1.885-16.533 4.93-5.822 12.421-8.603 17.772-5.637 5.507 3.053 6.814 10.712 1.885 16.533z" fill="#ffed8d"/><path d="M324.164 189.208c-1.891 0-3.697-.425-5.298-1.312-2.771-1.536-4.693-4.237-5.274-7.412-.667-3.64.467-7.519 3.111-10.642 5.479-6.471 13.477-8.937 19.02-5.865 2.771 1.536 4.694 4.238 5.275 7.413.666 3.64-.468 7.519-3.111 10.641-3.896 4.601-9.067 7.178-13.722 7.178zm6.226-24.558c-4.057 0-8.652 2.339-12.161 6.484-2.255 2.664-3.228 5.94-2.67 8.989.48 2.622 1.999 4.761 4.276 6.023 4.711 2.61 11.66.336 16.524-5.409l.763.646-.763-.646c2.255-2.663 3.228-5.94 2.67-8.989-.48-2.622-1.999-4.761-4.277-6.024-1.312-.727-2.797-1.075-4.362-1.075z" fill="#670a39"/><path d="M370.456 188.146c-4.929 5.821-12.421 8.602-17.772 5.637-5.505-3.052-6.814-10.711-1.885-16.533 4.93-5.822 12.421-8.603 17.772-5.637 5.507 3.053 6.814 10.712 1.885 16.533z" fill="#bcbc6d"/><path d="M357.498 195.97c-1.891 0-3.697-.425-5.298-1.312-2.771-1.536-4.693-4.238-5.274-7.412-.667-3.64.467-7.519 3.111-10.642 5.479-6.471 13.477-8.937 19.02-5.865 2.771 1.536 4.694 4.238 5.275 7.413.666 3.64-.468 7.519-3.111 10.641-3.896 4.601-9.067 7.178-13.722 7.178zm6.226-24.558c-4.057 0-8.652 2.339-12.161 6.484-2.255 2.664-3.228 5.94-2.67 8.989.48 2.622 1.999 4.761 4.276 6.023 4.711 2.61 11.66.336 16.524-5.409 2.255-2.663 3.228-5.939 2.67-8.988-.48-2.622-1.999-4.761-4.277-6.024-1.312-.727-2.797-1.075-4.362-1.075z" fill="#670a39"/><path d="M303.788 174.621c-4.929 5.821-12.421 8.602-17.772 5.637-5.505-3.052-6.814-10.711-1.885-16.533 4.93-5.822 12.421-8.603 17.772-5.637 5.507 3.053 6.814 10.712 1.885 16.533z" fill="#ff6d6d"/><path d="M290.829 182.445c-1.891 0-3.697-.425-5.298-1.312-2.771-1.536-4.693-4.237-5.274-7.412-.667-3.641.467-7.519 3.111-10.642 5.479-6.471 13.478-8.937 19.02-5.865 2.771 1.536 4.694 4.238 5.275 7.413.666 3.64-.468 7.519-3.111 10.641-3.896 4.601-9.067 7.178-13.722 7.178zm6.227-24.558c-4.057 0-8.652 2.339-12.162 6.484-2.255 2.664-3.228 5.94-2.67 8.989.48 2.622 1.999 4.761 4.276 6.023 4.711 2.61 11.66.336 16.524-5.409l.763.646-.763-.646c2.255-2.663 3.228-5.94 2.67-8.989-.48-2.622-1.999-4.761-4.277-6.024-1.312-.727-2.797-1.075-4.362-1.075z" fill="#670a39"/><path d="M428.859 305.354c-13.415 33.861-44.73 53.211-69.943 43.218-25.224-9.983-34.789-45.534-21.374-79.384 4.319-10.901 10.494-20.3 17.723-27.706 15.219-15.574 35.123-22.282 52.22-15.512 14.834 5.873 24.264 20.602 26.767 38.638 1.753 12.601.125 26.819-5.393 40.746z" fill="#e7dcdc"/><path d="M420.514 304.311c-11.13 28.082-34.57 46.191-56.622 45.836a37.843 37.843 0 0 1-4.976-1.575c-25.224-9.983-34.789-45.534-21.374-79.384 4.319-10.901 10.494-20.3 17.723-27.706 11.391-11.652 25.401-18.349 38.899-18.13 1.68.406 3.338.928 4.976 1.575 14.834 5.873 24.264 20.602 26.767 38.638 1.753 12.601.125 26.819-5.393 40.746z" fill="#fff8ea"/><path d="M572.324 338.943c-13.759 34.737-46.243 54.443-72.551 44.021-26.319-10.421-36.489-47.036-22.73-81.762 4.788-12.08 11.84-22.344 20.102-30.158 15.501-14.646 35.29-20.665 52.45-13.864 14.834 5.873 24.535 20.071 27.717 37.554 2.462 13.53 1.022 29.052-4.986 44.209z" fill="#e7dcdc"/><path d="M563.979 337.9c-11.412 28.812-35.707 47.286-58.677 46.796a39.364 39.364 0 0 1-5.529-1.732c-26.319-10.421-36.489-47.036-22.73-81.762 4.788-12.08 11.84-22.344 20.102-30.158 11.444-10.818 25.234-16.93 38.566-16.638a39.623 39.623 0 0 1 5.539 1.732c14.834 5.873 24.535 20.071 27.717 37.554 2.462 13.53 1.022 29.052-4.986 44.209z" fill="#fff8ea"/><ellipse cx="362.817" cy="259.77" fill="#670a39" rx="18.153" ry="10.688" transform="matrix(.56114472 -.82771771 .82771771 .56114472 -55.793 414.309)"/><path d="M356.631 276.958c-1.701 0-3.248-.445-4.561-1.335-5.425-3.678-4.953-13.522 1.073-22.412 6.027-8.89 14.997-12.972 20.422-9.294 2.668 1.809 3.985 5.194 3.709 9.533-.264 4.146-1.963 8.72-4.782 12.879-2.82 4.159-6.44 7.43-10.193 9.21-1.994.946-3.913 1.419-5.667 1.419zm12.32-32.392c-4.399 0-10.054 3.721-14.153 9.767-5.307 7.829-6.028 16.636-1.607 19.634 2.058 1.395 4.987 1.312 8.249-.236 3.436-1.63 6.772-4.658 9.395-8.526s4.2-8.088 4.442-11.884c.23-3.603-.777-6.355-2.835-7.75-1.007-.682-2.194-1.006-3.491-1.006zm7.146-40.75a1.001 1.001 0 0 1-.428-1.904c11.247-5.309 22.91-7.906 34.666-7.72.552.009.993.464.984 1.016s-.477.993-1.016.984c-11.448-.18-22.813 2.351-33.781 7.529a.997.997 0 0 1-.426.096z" fill="#670a39"/><path d="M372.953 352.216c-3.126 0-6.235-.357-9.296-1.097a38.922 38.922 0 0 1-5.108-1.617c-12.5-4.948-21.654-16.103-25.775-31.412-4.092-15.201-2.729-32.699 3.838-49.27 4.214-10.636 10.417-20.331 17.938-28.036 11.666-11.933 26.101-18.646 39.631-18.431 4.755.065 9.356.97 13.675 2.689 14.736 5.834 24.719 20.206 27.388 39.43 1.851 13.311-.035 27.575-5.454 41.251-11.11 28.029-34.376 46.493-56.836 46.493zm20.585-127.869c-12.8 0-26.452 6.474-37.558 17.834-7.337 7.517-13.392 16.983-17.509 27.375-6.41 16.174-7.747 33.225-3.766 48.014 3.953 14.683 12.682 25.363 24.579 30.072a37.034 37.034 0 0 0 4.843 1.533c24.079 5.818 51.51-13.182 63.802-44.189 5.292-13.356 7.136-27.27 5.332-40.239-2.567-18.49-12.096-32.284-26.145-37.846-4.092-1.629-8.454-2.486-12.967-2.548a41.644 41.644 0 0 0-.613-.005zm195.633 24.739a1 1 0 0 1-.758-.347c-7.178-8.322-15.88-14.708-25.863-18.981a1 1 0 1 1 .787-1.839c10.266 4.394 19.212 10.959 26.59 19.513a1 1 0 0 1-.757 1.653zM514.594 386.76c-3.2 0-6.382-.355-9.52-1.089a40.536 40.536 0 0 1-5.669-1.776c-13.025-5.158-22.611-16.674-26.989-32.428-4.35-15.652-3.037-33.634 3.698-50.632 4.677-11.8 11.712-22.352 20.344-30.516 11.849-11.201 25.797-17.208 39.275-16.912a40.783 40.783 0 0 1 14.23 2.845c14.63 5.792 24.957 19.754 28.333 38.304 2.577 14.161.786 30.057-5.041 44.756-11.324 28.587-35.356 47.448-58.66 47.448zm20.19-131.363c-12.67 0-25.755 5.79-36.953 16.375-8.421 7.964-15.288 18.269-19.859 29.8-6.575 16.595-7.865 34.125-3.63 49.359 4.207 15.136 13.369 26.183 25.799 31.105a38.47 38.47 0 0 0 5.389 1.688c25.031 5.859 53.348-13.55 65.865-45.148 5.691-14.356 7.443-29.862 4.932-43.661-3.25-17.856-13.127-31.27-27.101-36.803a38.781 38.781 0 0 0-13.536-2.705c-.301-.007-.604-.01-.906-.01z" fill="#670a39"/><path d="M431.768 278.32c-4.553-1.72-12.025-7.758-39.818-15.845-17.343-5.047-31.249-7.876-45.137-8.204-5.824-.138-5.551-5.458-3.323-9.102 2.219-3.63 7.03-6.562 15.522-6.128 22.262 1.138 52.295 9.152 72.049 20.402 12.479 7.106 11.157 22.825.705 18.878z" fill="#bfd3ce"/><path d="M440.016 268.753a22.664 22.664 0 0 0-3.732-2.744c-22.461-13.246-56.595-22.686-81.901-24.027a28.205 28.205 0 0 0-2.67-.024c17.014-18.045 39.265-25.816 58.379-17.972 16.583 6.804 27.125 23.87 29.924 44.767z" fill="#bfd3ce"/><path d="M434.883 279.95c-1.068 0-2.234-.228-3.468-.694-1.166-.44-2.442-1.112-4.207-2.041-5.105-2.687-14.606-7.689-35.537-13.779-18.625-5.42-32.047-7.861-44.881-8.164-3.092-.073-4.494-1.47-5.127-2.63-1.362-2.496-.326-5.867.974-7.994 4.122-6.744 12.358-7.021 20.644-6.317a1.001 1.001 0 0 1-.169 1.993c-7.647-.651-15.212-.45-18.768 5.367-1.326 2.169-1.697 4.577-.925 5.993.552 1.013 1.702 1.547 3.418 1.588 13.017.307 26.592 2.773 45.393 8.243 21.125 6.147 30.742 11.21 35.91 13.93 1.702.896 2.932 1.543 3.982 1.94 3.03 1.145 5.276.548 6.323-1.681 1.653-3.517-.201-11.021-7.877-15.393a1 1 0 0 1 .99-1.738c8.092 4.608 11.03 13.018 8.697 17.981-1.047 2.227-2.957 3.395-5.372 3.395z" fill="#670a39"/><ellipse cx="508.024" cy="291.929" fill="#670a39" rx="19.754" ry="12.193" transform="matrix(.59892577 -.80080455 .80080455 .59892577 -30.021 523.917)"/><path d="M501.359 310.363c-2.187 0-4.151-.607-5.765-1.814-5.826-4.357-4.989-15.357 1.865-24.521s17.169-13.075 22.995-8.718 4.989 15.357-1.865 24.521c-3.27 4.372-7.411 7.703-11.66 9.378-1.954.771-3.833 1.154-5.57 1.154zm13.286-34.88c-4.885 0-11.015 3.632-15.585 9.742-6.193 8.281-7.211 18.026-2.269 21.722 2.32 1.735 5.66 1.877 9.404.401 3.909-1.541 7.741-4.637 10.792-8.715 6.193-8.281 7.211-18.026 2.269-21.722-1.296-.969-2.875-1.428-4.611-1.428zm115.783 74.362-7.396 16.763-15.7-3.619-7.344 16.67-15.668-3.683-7.302 16.566-15.658-3.724-7.25 16.471-62.516-15.126-15.626-3.776-2.086-6.259 17.687-26.303-16.957-3.584 7.777-16.148-16.31-3.724-31.389-7.25-7.093 16.096-15.679-3.682-7.052 16.002-15.647-3.724-7.01 15.898c-62.142-15.031-35.303-8.538-78.132-18.902l-2.086-6.259s25.294-43.437 31.495-56.202c103.289 23.471 249.876 51.013 294.856 61.241 0 0 1.666 4.933 2.086 6.259z" fill="#670a39"/><path d="M554.111 406.288a1 1 0 0 1-.235-.028l-28.464-6.887-34.052-8.239-15.627-3.776a1 1 0 0 1-.714-.656l-2.086-6.259a1 1 0 0 1 .119-.874l16.86-25.073-15.507-3.277a1 1 0 0 1-.695-1.412l7.233-15.018-27.033-6.204h-.005l-18.634-4.305-6.76 15.339a1 1 0 0 1-1.144.57l-14.87-3.492-6.717 15.242a1 1 0 0 1-1.147.569l-14.837-3.531-6.674 15.136a1 1 0 0 1-1.15.568l-78.132-18.902a1.003 1.003 0 0 1-.714-.656l-2.086-6.259a.997.997 0 0 1 .085-.819c.253-.434 25.346-43.55 31.459-56.136a1 1 0 0 1 1.121-.538c62.142 14.121 139.635 29.65 201.901 42.129 40.26 8.068 75.03 15.036 92.955 19.112.339.077.614.325.726.655 0 0 1.67 4.947 2.092 6.276a1 1 0 0 1-.038.706l-7.396 16.763a1 1 0 0 1-1.14.571l-14.893-3.434-7.01 15.912a.998.998 0 0 1-1.144.57l-14.859-3.493-6.967 15.805a1 1 0 0 1-1.146.57l-14.847-3.532-6.914 15.708a1 1 0 0 1-.915.597zm-62.288-17.073c.245.033.513.097.793.165l33.267 8.049 27.65 6.69 6.913-15.706a1.001 1.001 0 0 1 1.147-.57l14.847 3.532 6.966-15.803a1 1 0 0 1 1.144-.57l14.859 3.493 7.009-15.909a1.001 1.001 0 0 1 1.14-.571l14.894 3.434 6.909-15.659a743.153 743.153 0 0 0-1.786-5.352c-18.055-4.087-52.517-10.993-92.358-18.977-62.019-12.429-139.144-27.885-201.18-41.964-6.345 12.781-28.459 50.876-30.952 55.164l1.768 5.305 76.781 18.575 6.673-15.133a1 1 0 0 1 1.147-.569l14.837 3.531 6.678-15.154c.107-.352.32-.527.564-.604a.997.997 0 0 1 .617-.052l.087.021.304.071.045.01.254.06 14.18 3.33 6.759-15.336a1.002 1.002 0 0 1 1.14-.571 61535.344 61535.344 0 0 0 12.269 2.834l.095.022 6.281 1.451.102.024 12.642 2.92 16.307 3.723a1 1 0 0 1 .678 1.409l-7.224 14.999 15.71 3.32a1.002 1.002 0 0 1 .623 1.537l-17.413 25.895 1.756 5.267 15.088 3.646-.006.025z" fill="#670a39"/><path d="m628.342 343.586-7.396 16.763-15.7-3.619-7.344 16.67-15.668-3.683-7.302 16.566-15.658-3.724-7.25 16.471-62.516-15.126-15.626-3.776 7.145-16.211-15.647-3.724 7.146-16.211-15.668-3.672 7.135-16.2-31.389-7.25-7.093 16.096-15.679-3.682-7.052 16.002-15.647-3.724-7.01 15.898c-62.142-15.031-35.303-8.538-78.132-18.902l6.895-15.647-15.647-3.724 6.885-15.637-15.668-3.672 6.885-15.637-15.689-3.62 6.885-15.626c109.979 24.984 311.412 70.78 345.805 78.602z" fill="#8a2b73"/><path d="m535.219 358.69-7.229 16.409-15.657-3.724 7.208-16.367z" fill="#af4fc6"/><path d="m526.77 338.6-7.229 16.408-15.679-3.672 7.208-16.356zm-31.389-7.25-7.187 16.304-15.668-3.672 7.166-16.252zM322.74 291.48l-6.937 15.741-15.679-3.682 6.916-15.678zm31.388 7.25-6.989 15.835-15.668-3.672 6.958-15.782zm-22.657 12.163-6.937 15.741-15.648-3.734 6.917-15.679z" fill="#af4fc6"/><path d="m503.862 351.336-7.187 16.305-15.647-3.724 7.166-16.263zm-141.045-33.089-6.978 15.846-15.658-3.735 6.958-15.793z" fill="#af4fc6"/><path d="M552.025 400.029a1 1 0 0 1-.235-.028l-31.303-7.574-28.532-6.903c-1.411-.341-2.208-.534-2.671-.689l-.01.04-15.626-3.776a.998.998 0 0 1-.68-1.376l6.661-15.112-14.48-3.447a1 1 0 0 1-.683-1.376l6.66-15.108-14.495-3.397a1 1 0 0 1-.687-1.377l6.648-15.094-10.759-2.485-.011-.003-18.634-4.304-6.76 15.339a1 1 0 0 1-1.144.57l-14.87-3.492-6.717 15.242a1 1 0 0 1-1.147.57l-14.837-3.531-6.674 15.136a.998.998 0 0 1-1.15.568l-78.132-18.902a.998.998 0 0 1-.68-1.375l6.411-14.549-14.48-3.446a1 1 0 0 1-.684-1.376l6.4-14.535-14.496-3.397a1 1 0 0 1-.687-1.376l6.398-14.531-14.511-3.348a1 1 0 0 1-.69-1.377l6.885-15.626c.193-.438.67-.677 1.137-.572 109.979 24.984 311.412 70.78 345.805 78.602a1.002 1.002 0 0 1 .693 1.379l-7.396 16.763a1 1 0 0 1-1.14.571l-14.893-3.434-7.01 15.912a1 1 0 0 1-1.144.57l-14.859-3.493-6.967 15.805a1 1 0 0 1-1.146.57l-14.847-3.532-6.914 15.708a1 1 0 0 1-.915.597zm-76.745-20.593 14.464 3.495 61.703 14.929 6.913-15.706a.999.999 0 0 1 1.147-.57l14.847 3.532 6.966-15.803a1 1 0 0 1 1.144-.57l14.859 3.493 7.009-15.909a1.002 1.002 0 0 1 1.14-.571l14.894 3.434 6.573-14.897a2215952.97 2215952.97 0 0 0-343.818-78.15l-6.065 13.766 14.511 3.348a1 1 0 0 1 .69 1.377l-6.399 14.535 14.496 3.397a1 1 0 0 1 .688 1.376l-6.401 14.539 14.48 3.446a1 1 0 0 1 .683 1.376l-6.413 14.553 76.157 18.424 6.673-15.133c.195-.442.678-.68 1.147-.569l14.837 3.531 6.679-15.157c.07-.219.221-.479.551-.595a.999.999 0 0 1 .629-.057l.073.017.154.036.012.003 14.631 3.436 6.759-15.336a1 1 0 0 1 1.14-.571l11.417 2.637.026.006.008.002 19.938 4.606a1 1 0 0 1 .69 1.377l-6.65 15.098 14.496 3.397a1 1 0 0 1 .687 1.377l-6.661 15.112 14.48 3.447a1 1 0 0 1 .683 1.376l-6.663 15.116z" fill="#670a39"/><path d="M576.142 310.243c-4.682-1.862-12.307-8.247-40.93-17.121-17.861-5.537-32.204-8.717-46.574-9.308-6.027-.248-5.647-5.75-3.275-9.482 2.362-3.717 7.395-6.666 16.178-6.063 23.023 1.58 53.966 10.419 74.211 22.42 12.789 7.581 11.136 23.828.389 19.554z" fill="#bfd3ce"/><path d="M584.535 302.211a22.34 22.34 0 0 0-1.829-1.365c-23.072-15.51-58.334-26.926-84.569-28.973a31.176 31.176 0 0 0-4.296-.054c17.537-18.789 39.924-26.511 59.338-17.786 16.782 7.534 27.757 25.749 31.356 48.178z" fill="#bfd3ce"/><path d="M500.326 269.207a.998.998 0 0 1-.644-1.766c15.773-13.234 34.568-17.416 50.279-11.19a1 1 0 1 1-.737 1.859c-15.016-5.952-33.056-1.891-48.257 10.863a.995.995 0 0 1-.642.234z" fill="#670a39"/><path d="M579.447 311.945c-1.134 0-2.372-.254-3.675-.772-1.197-.476-2.504-1.194-4.314-2.187-5.236-2.874-14.983-8.224-36.542-14.908-19.184-5.947-33.036-8.718-46.319-9.264-3.182-.131-4.6-1.593-5.229-2.796-1.357-2.595-.228-6.051 1.151-8.222 4.326-6.807 12.966-6.937 20.01-6.29a1 1 0 1 1-.183 1.991c-6.88-.633-14.415-.489-18.139 5.371-1.418 2.231-1.847 4.732-1.067 6.222.56 1.071 1.751 1.651 3.539 1.724 13.466.553 27.47 3.35 46.829 9.352 21.752 6.744 31.614 12.157 36.912 15.065 1.747.959 3.009 1.651 4.091 2.082 3.032 1.206 5.347.692 6.519-1.446 1.782-3.253.601-10.384-6.25-15.313a20.845 20.845 0 0 0-1.537-1.005 1 1 0 1 1 1.02-1.72c.582.345 1.149.715 1.685 1.102 7.373 5.304 9.289 13.42 6.836 17.897-1.122 2.049-3.012 3.116-5.337 3.116zM357.811 240.01a.998.998 0 0 1-.681-1.732c15.736-14.63 34.699-19.579 50.724-13.237a1 1 0 1 1-.736 1.86c-15.29-6.051-33.469-1.25-48.626 12.842a.998.998 0 0 1-.681.268z" fill="#670a39"/><path d="M448.994 525.488a1625.532 1625.532 0 0 0-6.551 16.471l-71.56-19.862c-6.864-1.909-14.03-3.891-21.479-5.956-20.686-5.748-43.562-12.09-68.493-19.017a1688.2 1688.2 0 0 1 6.436-15.751c18.85 5.153 36.489 9.973 52.867 14.447 7.396 2.024 14.542 3.964 21.416 5.842a113999.17 113999.17 0 0 0 87.364 23.826zm13.624-33.058a1713.79 1713.79 0 0 0-6.895 16.555c-23.012-6.144-57.926-15.512-103.324-27.706v-.01c-6.885-1.846-14.01-3.766-21.374-5.748-11.767-3.161-24.128-6.478-37.074-9.962a1959.564 1959.564 0 0 1 6.77-15.877c7.239 1.919 14.291 3.787 21.145 5.601 7.323 1.93 14.437 3.818 21.322 5.633 54.296 14.364 94.823 25.067 119.431 31.514zm-43.301-47.849a2169.45 2169.45 0 0 0-7.229 16.356c-21.948-5.706-48.079-12.507-78.09-20.331-6.885-1.794-13.978-3.641-21.28-5.539-1.679-.438-3.369-.876-5.07-1.325.73-1.669 1.46-3.328 2.211-4.997 1.606-3.661 3.234-7.312 4.872-10.984 3.411.876 6.78 1.742 10.098 2.597 37.178 9.535 68.859 17.661 94.489 24.222z" fill="#94b8c2"/><path d="M333.997 440.606c-6.885-1.794-13.978-3.641-21.28-5.539l-2.858-6.322c1.606-3.661 3.234-7.312 4.872-10.984 3.411.876 6.78 1.742 10.098 2.597l9.169 20.248z" fill="#bfd3ce"/><path d="M285.365 450.433a97.763 97.763 0 0 1-9.868 9.942c-6.196 5.403-12.935 9.868-19.903 13.217-17.744 8.574-36.99 9.972-52.564 1.356-14.051-7.792-22.417-21.708-23.492-37.011-.928-12.841 3.286-26.663 13.571-38.638 6.144-7.156 13.185-13.269 20.686-18.078 20.039-12.872 43.364-16.565 61.629-6.436 25.849 14.322 32.463 49.404 9.941 75.649z" fill="#557fa0"/><path d="M255.594 473.591c-17.744 8.574-36.99 9.972-52.564 1.356-14.051-7.792-22.417-21.708-23.492-37.011-.928-12.841 3.286-26.663 13.571-38.638 6.144-7.156 13.185-13.269 20.686-18.078zm12.187-72.618c-5.784 7.824-15.845 11.83-24.065 8.253-8.457-3.681-11.916-13.57-6.132-21.396 5.785-7.825 15.844-11.831 24.064-8.253 8.459 3.682 11.917 13.571 6.132 21.396z" fill="#94b8c2"/><path d="M250.165 411.535c-2.363 0-4.684-.451-6.848-1.392-4.572-1.99-7.891-5.731-9.106-10.263-1.163-4.339-.25-8.829 2.569-12.644 6.343-8.581 16.97-12.187 25.267-8.575 4.573 1.99 7.892 5.731 9.107 10.264 1.163 4.339.25 8.829-2.57 12.643-4.689 6.343-11.72 9.968-18.42 9.968zm5.015-32.273c-6.07 0-12.485 3.338-16.791 9.163-2.45 3.315-3.248 7.199-2.246 10.937 1.056 3.941 3.962 7.202 7.972 8.947 7.453 3.242 17.067-.093 22.862-7.931l.804.594-.804-.594c2.45-3.314 3.248-7.198 2.246-10.937-1.056-3.941-3.962-7.202-7.973-8.948-1.914-.833-3.972-1.232-6.07-1.232z" fill="#670a39"/><path d="M275.497 460.374c-6.196 5.403-12.935 9.868-19.903 13.217-17.744 8.574-36.99 9.972-52.564 1.356-14.051-7.792-22.417-21.708-23.492-37.011.115-.125.229-.271.355-.396 12.977-14.396 31.274-23.075 48.924-23.116 8.293-.021 16.45 1.867 23.836 5.956 15.491 8.596 24.045 24.264 22.845 39.995z" fill="#94b8c2"/><path d="M255.594 473.591c-17.744 8.574-36.99 9.972-52.564 1.356-14.051-7.792-22.417-21.708-23.492-37.011.115-.125.229-.271.355-.396 12.977-14.396 31.274-23.075 48.924-23.116l26.778 59.168z" fill="#bfd3ce"/><path d="M226.502 481.783c-8.554 0-16.714-1.952-23.953-5.962-13.907-7.709-22.883-21.845-24.011-37.812-.994-13.855 3.912-27.834 13.814-39.36 23.948-27.899 59.091-38.302 83.561-24.737 12.358 6.847 20.88 18.758 23.38 32.678 2.752 15.317-2.05 31.535-13.174 44.495a98.795 98.795 0 0 1-9.968 10.044c-15.518 13.523-33.301 20.655-49.648 20.655zm25.528-111.796c-19.767 0-41.656 10.738-58.16 29.965-9.557 11.123-14.293 24.589-13.337 37.915 1.08 15.291 9.673 28.825 22.986 36.205 20.329 11.261 48.323 5.588 71.318-14.452a96.841 96.841 0 0 0 9.766-9.839c10.73-12.501 15.368-28.115 12.723-42.838-2.394-13.325-10.552-24.727-22.381-31.282-6.92-3.836-14.735-5.675-22.914-5.675z" fill="#670a39"/><path d="M226.502 481.783c-8.554 0-16.714-1.952-23.953-5.962-13.907-7.709-22.883-21.845-24.011-37.812a1 1 0 0 1 .24-.723c.12-.14.25-.29.38-.43 20.314-22.536 51.43-29.837 73.974-17.346 15.436 8.558 24.605 24.628 23.358 40.94a1 1 0 0 1-.34.678c-15.517 13.523-33.301 20.655-49.648 20.655zm-45.938-43.501c1.205 15.12 9.762 28.477 22.954 35.79 20.237 11.21 48.071 5.639 71.007-14.181 1.005-15.395-7.737-30.522-22.362-38.631-21.738-12.044-51.822-4.917-71.53 16.948l-.068.074zm163.254-47.722-1.764-4.534-2.26 1.06c-3.231-1.837-7.732-3.844-13.636-5.219-8.662-2.018-15.778-1.843-19.822-1.446a6.274 6.274 0 0 0-5.07 3.563c-3.873 8.212-7.623 16.221-12.533 27.053l-2.962.916 2.044 5.077.004-.002a6.243 6.243 0 0 0 1.262 2.223l10.636 11.994a6.258 6.258 0 0 0 6.189 1.922l20.894-5.181a6.271 6.271 0 0 0 4.209-3.522c5.072-11.33 8.134-17.955 12.962-28.339a6.248 6.248 0 0 0-.152-5.565z" fill="#670a39"/><path d="M304.39 434.353a7.234 7.234 0 0 1-5.421-2.445l-10.635-11.994a7.204 7.204 0 0 1-1.435-2.485l-.011-.027-2.044-5.077a1.002 1.002 0 0 1 .633-1.329l2.532-.783c4.574-10.084 8.127-17.695 12.354-26.657a7.316 7.316 0 0 1 5.877-4.132c4.444-.437 11.547-.536 20.147 1.467 4.919 1.146 9.441 2.851 13.449 5.07l1.795-.842a.998.998 0 0 1 1.356.543l1.744 4.483a7.204 7.204 0 0 1 .147 6.401c-4.596 9.884-7.762 16.723-12.956 28.326a7.222 7.222 0 0 1-4.88 4.084l-20.894 5.181a7.277 7.277 0 0 1-1.757.215zm-15.681-17.78c.024.047.044.095.061.146a5.224 5.224 0 0 0 1.059 1.868l10.635 11.994a5.243 5.243 0 0 0 5.2 1.615l20.894-5.181a5.3 5.3 0 0 0 3.536-2.96c5.2-11.616 8.368-18.46 12.968-28.352a5.224 5.224 0 0 0-.13-4.677 1.08 1.08 0 0 1-.048-.104l-1.376-3.537-1.292.606a1.001 1.001 0 0 1-.919-.036c-3.952-2.248-8.45-3.969-13.368-5.115-8.334-1.942-15.203-1.847-19.498-1.425a5.303 5.303 0 0 0-4.263 2.994c-4.28 9.074-7.869 16.763-12.527 27.039a1 1 0 0 1-.615.542l-1.924.595 1.605 3.987z" fill="#670a39"/><path d="M341.883 390.911c-.678 1.45-1.314 2.827-1.93 4.152-10.765 23.221-11.151 26.277-14.176 27.393a7.705 7.705 0 0 1-1.064.313l-15.793 3.923-5.101 1.262a6.278 6.278 0 0 1-6.186-1.93l-10.64-11.986a6.26 6.26 0 0 1-1.012-6.739c2.66-5.873 4.965-10.911 7.125-15.564a1783.3 1783.3 0 0 1 6.082-12.967 6.275 6.275 0 0 1 5.07-3.568c.042 0 .083-.01.136-.01 4.058-.386 11.11-.542 19.684 1.46 7.135 1.658 12.257 4.256 15.522 6.342a6.27 6.27 0 0 1 2.285 7.917z" fill="#7fe2dd"/><path d="M325.777 422.456a7.705 7.705 0 0 1-1.064.313l-15.793 3.923-15.814-34.956a1783.3 1783.3 0 0 1 6.082-12.967 6.275 6.275 0 0 1 5.07-3.568c.042 0 .083-.01.136-.01l21.385 47.265z" fill="#fff8ea"/><path d="m302.043 411.424-.859.569c.974 1.461 2.441 3.619 2.53 3.751l.023.013c1.976 2.403 5.273 3.391 8.393 2.287l20.571-7.187a1689.999 1689.999 0 0 1 7.25-15.793s-24.55 10.695-37.909 16.359z" fill="#670a39"/><path d="M309.516 419.501a8.435 8.435 0 0 1-6.489-3.034.969.969 0 0 1-.141-.163l-.12-.176c-.386-.569-1.58-2.329-2.414-3.579a1 1 0 0 1 .28-1.388l.859-.569a.97.97 0 0 1 .162-.087c13.202-5.598 37.654-16.248 37.9-16.355a1 1 0 0 1 1.307 1.337 1727.127 1727.127 0 0 0-7.246 15.785.997.997 0 0 1-.582.532l-20.571 7.187a8.827 8.827 0 0 1-2.945.511zm-5.045-4.422a.534.534 0 0 1 .039.044c1.764 2.145 4.624 2.922 7.288 1.98l20.17-7.047c2.077-4.592 3.974-8.711 5.971-13.024-6.496 2.825-24.581 10.679-35.358 15.25.733 1.092 1.537 2.276 1.84 2.723z" fill="#670a39"/><path d="M302.313 429.138a7.244 7.244 0 0 1-5.43-2.448l-10.64-11.985a7.286 7.286 0 0 1-1.175-7.816 1721.7 1721.7 0 0 1 13.213-28.545c1.076-2.296 3.328-3.881 5.875-4.135 4.447-.436 11.551-.535 20.146 1.472 7.407 1.722 12.698 4.471 15.833 6.474 3.036 1.964 4.175 5.91 2.653 9.182v.002c-.477 1.017-.932 1.999-1.374 2.952l-.556 1.198c-3.001 6.475-5.235 11.469-6.866 15.115-5.072 11.341-5.487 12.267-9.043 13.141l-20.892 5.184a7.333 7.333 0 0 1-1.745.212zm7.282-53.188a54.02 54.02 0 0 0-5.243.249 5.298 5.298 0 0 0-4.262 2.997 1719.786 1719.786 0 0 0-13.201 28.518 5.281 5.281 0 0 0 .851 5.665l10.638 11.984a5.255 5.255 0 0 0 5.2 1.622l20.892-5.184c2.536-.623 2.752-.96 7.697-12.016 1.633-3.651 3.87-8.652 6.877-15.14l.556-1.197c.443-.954.898-1.937 1.375-2.956 1.104-2.372.278-5.234-1.921-6.656-2.998-1.916-8.074-4.551-15.206-6.208-5.492-1.282-10.35-1.678-14.253-1.678z" fill="#670a39"/><path d="M303.281 414.105c-4.681-3.12-3.015-8.404-3.817-13.915a6.257 6.257 0 0 1 5.88-6.615c3.425-.231 6.413 2.43 6.615 5.88l.089 1.502 36.862-12.876a6.258 6.258 0 1 1 4.127 11.817l-42.993 15.019c-2.291.802-4.76.526-6.763-.81z" fill="#ffb9df"/><path d="M353.035 399.892 320.687 411.2l-10.64 3.714c-2.295.803-4.767.532-6.77-.803-.021-.011-.042-.032-.063-.052-2.754-1.867-3.265-4.506-3.401-7.51-.104-2.003-.031-4.152-.344-6.353a6.258 6.258 0 0 1 5.873-6.624c3.432-.23 6.415 2.43 6.614 5.883l.094 1.502 3.453-1.21 33.412-11.663c3.255-1.137 6.833.574 7.97 3.839s-.584 6.832-3.849 7.969z" fill="#8a2b73"/><path d="m320.687 411.2-10.64 3.714c-2.295.803-4.767.532-6.77-.803-.021-.011-.042-.032-.063-.052l-3.401-7.51c-.104-2.003-.031-4.152-.344-6.353a6.258 6.258 0 0 1 5.873-6.624c3.432-.23 6.415 2.43 6.614 5.883l.094 1.502 3.453-1.21 5.185 11.454z" fill="#af4fc6"/><path d="M307.426 416.366a8.449 8.449 0 0 1-4.705-1.423v-.002a3.452 3.452 0 0 1-.109-.082c-3.261-2.235-3.671-5.437-3.799-8.266a72.619 72.619 0 0 1-.065-1.985c-.032-1.393-.066-2.834-.27-4.273-.125-2.017.519-3.882 1.805-5.333a7.218 7.218 0 0 1 4.997-2.43 7.129 7.129 0 0 1 5.223 1.792 7.22 7.22 0 0 1 2.45 5.032l.011.179 35.62-12.436a7.212 7.212 0 0 1 5.542.312c1.75.841 3.064 2.312 3.702 4.143s.525 3.801-.318 5.546a7.204 7.204 0 0 1-4.147 3.696l-42.988 15.022a8.927 8.927 0 0 1-2.95.508zm-3.553-3.059c1.713 1.122 3.839 1.365 5.843.663l42.989-15.022h.001a5.224 5.224 0 0 0 3.004-2.677 5.232 5.232 0 0 0 .23-4.019 5.205 5.205 0 0 0-2.68-2.998 5.234 5.234 0 0 0-4.016-.226L312.38 401.9a1 1 0 0 1-1.329-.881l-.094-1.502a5.233 5.233 0 0 0-1.777-3.652 5.146 5.146 0 0 0-3.772-1.295c-1.41.085-2.696.71-3.628 1.761s-1.398 2.402-1.313 3.805c.213 1.476.248 2.976.282 4.427.015.657.03 1.303.063 1.934.136 3.012.679 5.186 2.963 6.735.034.023.067.049.099.076z" fill="#670a39"/><path d="M352.398 481.269c-6.885-1.846-14.01-3.766-21.374-5.748l-9.159-20.237c7.323 1.93 14.437 3.818 21.322 5.633zm18.485 40.829c-6.864-1.909-14.03-3.891-21.479-5.956l-9.19-20.321c7.396 2.024 14.542 3.964 21.416 5.842l9.253 20.436z" fill="#bfd3ce"/><path d="M763.088 391.86c-25.693-6.415-29.845 6.634-27.998 18.61-8.689-10.108-18.38-19.935-28.947-29.365-6.874-6.144-7.479-16.69-1.346-23.565 6.144-6.885 16.69-7.49 23.565-1.346 12.737 11.36 24.368 23.314 34.727 35.665z" fill="#b9acc0"/><path d="M735.09 411.47a1 1 0 0 1-.759-.348c-8.624-10.032-18.332-19.88-28.855-29.27a1 1 0 1 1 1.332-1.492c10.589 9.449 20.359 19.361 29.04 29.459a1 1 0 0 1-.757 1.652z" fill="#670a39"/><path d="M660.66 268.774c4.667.336 8.356 4.195 8.608 8.867.4 7.407-.735 19.66-9.22 33.679l-.002-.011c-5.332-7.666-9.999 2.642-12.455 11.695-3.036 11.211-9.479 21.113-19.674 22.497-6.589.948-11.182-1.493-14.112-7.352l-.002-.01c-2.285-4.557-2.981-11.082-2.883-11.464-.399-4.78-.057-10.091 1.033-15.492l-.002-.011c6.255-31.139 30.293-43.728 48.708-42.4z" fill="#9c819c"/><path d="M634.657 311.632c-2.068 13.389-.347 19.924-2.832 25.701-3.35 7.79-14.304 7.997-18.108.366l-.057-.115-.002-.01c-2.204-4.478-2.897-10.881-2.804-11.255-.401-4.69-.095-9.897.925-15.189l-.002-.011c2.976-15.505 11.587-27.96 18.392-32.421 3.559-2.346 7.765-2.598 10.121 1.72 3.661 6.708-3.207 15.502-5.634 31.214z" fill="#d5d6e4"/><path d="M625.317 346.697c-5.546 0-9.713-2.715-12.406-8.1a.784.784 0 0 1-.032-.072c-2.062-4.155-2.988-10.198-2.956-11.79-.403-4.866-.045-10.285 1.036-15.677a.755.755 0 0 1 .013-.083c6.082-30.278 29.635-44.65 49.76-43.2 5.154.372 9.253 4.589 9.535 9.811.425 7.867-.855 20.195-9.363 34.251a1.002 1.002 0 0 1-1.726-.027c-1.132-1.604-2.214-2.331-3.218-2.156-2.402.416-5.238 5.631-7.403 13.611-3.653 13.487-11.127 21.953-20.505 23.226a19.22 19.22 0 0 1-2.735.204zm-10.588-8.935c2.767 5.488 6.914 7.633 13.046 6.75 8.551-1.161 15.419-9.095 18.852-21.769 1.753-6.463 4.737-14.322 8.992-15.059 1.501-.259 2.949.368 4.314 1.869 7.579-13.098 8.734-24.506 8.338-31.859-.228-4.218-3.53-7.624-7.682-7.924-19.233-1.387-41.766 12.431-47.641 41.527a.755.755 0 0 1-.013.083c-1.058 5.243-1.409 10.502-1.017 15.211.006.073.004.147-.006.22-.013.778.714 6.747 2.786 10.879l.032.07z" fill="#670a39"/><path d="M768.929 348.749c-1.499 22.467-11.09 37.473-36.985 39.299-27.348 25.563-54.201 4.617-81.403 11.514-32.533 9.105-39.618 21.508-51.962 18.12-11.23-3.087-14.53-20.489-7.786-33.921 10.225-20.301 23.719-22.797 43.628-28.033 12.535-3.295 20.745-11.596 21.682-22.441.009-.012.005-.033.014-.045a2.696 2.696 0 0 0-.28-.007c-5.349-1.098-8.963-6.941-10.272-14.258-1.042-6.007-.439-14.689.564-20.701-.027-.103-.023-.089-.093-.371 7.757-40.578 42.558-48.685 59.609-41.748-7.803-15.125-14.41-21.529-15.964-32.427-2.4-16.765 18.008-23.481 37.618-4.578 21.291 20.506 47.374 82.281 41.63 129.599z" fill="#b9acc0"/><path d="M644.328 375.907c-17.973 6.243-22.882 9.312-36.39 26.662-3.487 4.48-7.311 7.039-10.996 8.013-3.91 1.033-7.915-1.458-8.862-5.39-1.572-6.528-.765-14.506 2.715-21.428 8.051-15.987 18.136-20.937 31.781-24.875.041-.014.094-.019.136-.033 32.558-7.784 35.08 12.385 21.617 17.052z" fill="#d5d6e4"/><path d="M712.319 347.285c-4.237-4.985-12.482-10.154-18.285-11.944v-.01c9.183 2.221 15.34-.109 19.273-3.847l.168.091c-1.472 4.837-1.893 10.347-1.157 15.71zm-15.273-42.808c-4.464-6.573-9.638 2.205-12.671 10.057-4.015 10.43-11.527 19.248-22.267 18.901 10.2-1.404 16.608-11.613 19.614-23.199 2.43-9.351 7.065-19.986 12.428-12.047v.011c.984 1.466 1.959 3.55 2.895 6.277z" fill="#9c819c"/><path d="M722.067 297.761c-14.65-46.496-30.156-57.777-32.413-74.193-1.026-7.459 7.136-12.724 13.668-8.978 24.667 14.147 45.686 75.711 24.783 81.513-.104.03-6.444 1.766-6.038 1.658zm-57.207 31.536c-4.96 4.832-13.219 3.814-16.577-2.242-4.111-7.415-3.728-19.672-2.156-28.785-.014-.041-.018-.084-.033-.125 2.094-12.338 7.353-23.657 16.087-31.784 3.65-3.396 9.356-4.272 13.024-.069 6.552 7.508-1.493 18.57-4.232 32.858-2.71 14.136-.204 24.39-6.113 30.147z" fill="#d5d6e4"/><path d="M768.924 349.745a1.001 1.001 0 0 1-.994-1.12c5.8-47.875-21.03-109.203-41.322-128.759-11.64-11.216-23.437-12.85-29.964-9.495-4.678 2.405-6.856 7.222-5.976 13.217.945 6.6 4.164 11.98 8.62 19.426 6.439 10.761 15.258 25.5 23.552 54.028a1 1 0 0 1-1.92.558c-8.222-28.28-16.965-42.891-23.348-53.559-4.576-7.647-7.881-13.172-8.883-20.166-.996-6.79 1.635-12.504 7.041-15.283 6.636-3.412 19.069-2.883 32.267 9.834 20.578 19.831 47.792 81.971 41.92 130.44a1 1 0 0 1-.991.88z" fill="#670a39"/><path d="M712.073 347.041c.081.067.152.146.233.224-3.916-29.788 25.166-52.363 36.495-18.964 14.946 44.049-31.081 59.089-36.728 18.74z" fill="#d5d6e4"/><path d="M659.485 334.636c-5.589 0-9.666-2.77-12.411-8.409a.78.78 0 0 1-.031-.072c-1.618-3.34-2.573-7.922-2.899-10.846a2.446 2.446 0 0 1-.028-.226 2.77 2.77 0 0 1-.018-.127c-.059-.624-.066-.885-.053-1.05-.009-.124-.012-.231-.015-.335l-.007-.062c-.364-4.857-.012-10.27 1.016-15.662a.89.89 0 0 1 .014-.132c2.779-14.536 9.869-27.165 19.454-34.649 11.932-9.348 25.099-10.273 31.886-9.994.038.002.075.005.113.011a.753.753 0 0 1 .083.01l.286.01c.018.001.036 0 .054.002l.284.02c.516.034.857.06.983.056.552.008 1.007.418 1.028.961a.988.988 0 0 1-.922 1.036c-.158.01-.402-.003-1.223-.057l-.257-.019-.06-.003-.282-.013a.7.7 0 0 1-.079-.006c-.063 0-.116-.007-.157-.013-6.532-.26-19.115.65-30.505 9.573-9.188 7.174-16.001 19.324-18.703 33.349a1.065 1.065 0 0 1-.014.133c-1.011 5.254-1.359 10.523-1.006 15.237.001.018.011.089.011.107.003.128.005.255.015.372.005.059.004.122-.001.185 0 .016-.002.031-.004.047a8.67 8.67 0 0 0 .051.697c.007.03.017.101.023.191l.011.069c.319 2.843 1.223 7.197 2.747 10.312.012.024.022.048.032.072 2.787 5.682 6.94 7.917 13.069 7.036 8.542-1.178 15.387-9.364 18.788-22.458 1.733-6.681 4.694-14.799 8.964-15.534 1.853-.319 3.624.747 5.261 3.169a.96.96 0 0 1 .053.087c1.647 2.495 2.783 5.8 3.679 8.709a1 1 0 0 1-1.912.588c-.861-2.799-1.948-5.969-3.478-8.258a1.122 1.122 0 0 1-.045-.074c-1.14-1.664-2.222-2.42-3.219-2.25-2.402.413-5.224 5.802-7.367 14.065-3.614 13.918-11.066 22.643-20.445 23.936-.959.138-1.881.207-2.765.207zm57.133 26.325a.999.999 0 0 1-.86-.488c-1.442-2.418-2.585-5.112-3.398-8.005-2.414-8.785-1.401-14.575.174-21.233a1 1 0 0 1 1.946.46c-1.508 6.376-2.48 11.914-.194 20.237.763 2.719 1.836 5.249 3.188 7.516a1 1 0 0 1-.858 1.512z" fill="#670a39"/><path d="M712.319 348.285a.998.998 0 0 1-.762-.352c-3.9-4.589-11.892-9.808-17.817-11.636a1 1 0 1 1 .589-1.911c6.338 1.955 14.574 7.336 18.752 12.252a1 1 0 0 1-.761 1.648zm.509-45.755a1 1 0 0 1-.443-1.897c3.925-1.935 10.377-4.611 18.83-6.372a1 1 0 1 1 .408 1.958c-8.248 1.718-14.533 4.324-18.354 6.208a.996.996 0 0 1-.441.103z" fill="#670a39"/><path d="M602.671 419.25c-1.41 0-2.846-.19-4.357-.605-4.304-1.183-7.697-4.321-9.813-9.076-3.364-7.56-2.815-17.867 1.398-26.258 9.874-19.603 22.964-23.008 41.082-27.72l3.185-.832c11.879-3.123 19.607-10.823 20.849-20.695-5.128-1.404-9.004-6.917-10.435-14.913-1.096-6.323-.408-15.12.528-20.836l-.043-.173a.997.997 0 0 1-.012-.428c4.375-22.883 16.739-33.906 26.34-39.124 10.259-5.575 22.579-7.139 32.177-4.229-2.248-4.181-4.379-7.671-6.292-10.806-4.214-6.904-7.542-12.358-8.588-19.688-.977-6.826 1.691-12.566 7.138-15.353 6.593-3.374 18.973-2.802 32.164 9.913 20.589 19.829 47.813 81.968 41.929 130.439-1.024 15.373-5.802 26.066-14.589 32.591a308.404 308.404 0 0 1 8.523 9.759 1 1 0 0 1-1.535 1.283 308.245 308.245 0 0 0-9.223-10.522 1 1 0 0 1 .17-1.501c8.845-6.083 13.642-16.484 14.664-31.795 5.817-47.93-21.023-109.258-41.326-128.812-12.433-11.984-23.859-12.646-29.865-9.573-4.72 2.415-6.932 7.259-6.069 13.29.987 6.923 4.061 11.958 8.315 18.928 2.264 3.71 4.831 7.915 7.548 13.182a.999.999 0 0 1-1.266 1.385c-9.347-3.803-22.269-2.52-32.92 3.267-9.192 4.995-21.026 15.557-25.289 37.526l.031.125c.035.136.047.301.024.439-.927 5.553-1.631 14.219-.565 20.366 1.328 7.421 4.834 12.432 9.389 13.428.076.001.155.005.234.01a.999.999 0 0 1 .918 1.225c-1.003 11.121-9.376 19.799-22.416 23.227l-3.191.833c-18.266 4.751-30.333 7.889-39.799 26.683-3.954 7.876-4.487 17.512-1.357 24.547 1.864 4.189 4.808 6.941 8.515 7.96 6.149 1.688 10.981-.819 18.985-4.973 7.18-3.726 17.013-8.828 32.442-13.146 10.396-2.636 20.8-1.279 30.86.033 17.16 2.239 33.369 4.353 50.13-11.314.167-.156.384-.251.613-.267a60.369 60.369 0 0 0 6.917-.874 1 1 0 1 1 .371 1.965 61.904 61.904 0 0 1-6.794.877c-17.363 16.048-34.713 13.784-51.494 11.595-9.874-1.288-20.083-2.62-30.086-.084-15.207 4.256-24.934 9.304-32.036 12.989-6.366 3.303-11.045 5.731-16.079 5.731z" fill="#670a39"/></svg></g></svg>