<svg xmlns="http://www.w3.org/2000/svg" viewBox="0 0 900 900" width="900" height="900"><g transform="translate(230.0 27.0) rotate(0.0 287.5 336.5) scale(1.0003723124780355 1.002420405883448)"><svg width="574.786" height="671.375" viewBox="0 0 574.786 671.375"><path d="M1.225 425.487c-1.37 14.231 3.616 22.423 12.211 22.976.019.002.027.006.039.004 6.436.385 13.778-4.122 13.893-4.302 2.837-1.707 5.216-3.731 11.716-7.644 11.669-7.083 18.937-9.469 19.156-9.814 20.949-8.861 43.56-13.253 68.521-12.188.012-.003.031-.001.043-.004 3.986.217 7.487.539 10.94.964l13.041.287c18.249-40.255 40.346-80.79 62.974-117.385-1.961-.723-11.278-4.938-25.334-8.121-91.368-20.705-178.463 44.356-187.2 135.227z" fill="#af4357"/><path d="m145.556 413.349-12.004-2.584c-26.986-3.321-53.874.395-79.504 11.228-.181.285-12.543 4.616-29.279 16.387-.537.377-1.072.735-1.593 1.071-.265.417-8.25 5.32-13.893 4.302-.012.002-.019-.002-.039-.004-5.993-1.096-9.06-7.69-7.967-19.061a149.545 149.545 0 0 1 8.213-36.581c10.714-29.71 30.383-54.731 55.083-72.567 40.164-29.01 93.606-39.003 143.415-19.193a1159.487 1159.487 0 0 0-13.797 23.27 1228.59 1228.59 0 0 0-24.524 44.58c-8.963 17.127-17.162 33.825-24.111 49.152z" fill="#df5468"/><path d="M169.668 364.199c-17.608 7.812-40.419 14.526-64.557 19.455-37.047 7.567-72.467 9.775-95.62 4.455 10.714-29.71 30.383-54.731 55.083-72.567a287.395 287.395 0 0 1 11.251-2.614c51.563-10.879 98.708-5.603 118.367 6.691 6.071 3.802 9.522 8.271 9.67 13.145.332 11.29-13.246 22.142-34.194 31.435z" fill="#ed7981"/><path d="M14.251 449.49c-.28 0-.558-.008-.835-.024a1.03 1.03 0 0 1-.141-.016c-3.507-.22-6.607-1.745-8.866-4.398C.84 440.86-.605 434.062.23 425.393c4.242-44.122 27.426-84.433 63.609-110.596a154.712 154.712 0 0 1 124.808-25.513c12.085 2.736 20.554 6.176 24.17 7.645.577.235 1.01.411 1.289.514a1.002 1.002 0 0 1 .505 1.465c-23.905 38.66-45.66 79.212-62.914 117.272-.165.364-.54.624-.933.587l-13.041-.287a1.093 1.093 0 0 1-.1-.008c-3.605-.444-7.04-.748-10.804-.954-.033.002-.067.001-.1.001-24.077-1.021-46.312 2.918-67.976 12.062-.213.128-.577.283-1.302.594-3.415 1.462-13.808 5.909-26.709 14.988a47.71 47.71 0 0 1-2.848 1.86l-.01-.018c-1.553 1.15-7.887 4.485-13.623 4.485zm-.703-2.02c5.671.339 12.325-3.447 13.145-4.044a.97.97 0 0 1 .159-.119 46.296 46.296 0 0 0 2.728-1.781c13.071-9.199 23.609-13.709 27.072-15.191.501-.214.839-.355.997-.436a1.01 1.01 0 0 1 .2-.113c21.959-9.289 44.491-13.307 68.889-12.269a1.18 1.18 0 0 1 .119 0c3.82.207 7.303.514 10.958.963l12.331.271c17.094-37.629 38.557-77.658 62.134-115.881l-.218-.089c-3.571-1.45-11.933-4.847-23.859-7.547a152.713 152.713 0 0 0-123.194 25.183c-35.717 25.826-58.603 65.616-62.79 109.166-.782 8.118.502 14.401 3.711 18.171 1.927 2.264 4.474 3.512 7.569 3.711l.049.005zM1.225 425.488h.01zm8.631-68.197A1 1 0 0 1 9 355.776c18.253-30.379 46.218-54.374 78.743-67.565a.999.999 0 1 1 .751 1.854c-32.126 13.029-59.749 36.731-77.78 66.741a.998.998 0 0 1-.858.485z" fill="#670a39"/><ellipse cx="417.663" cy="177.78" fill="#670a39" rx="52.399" ry="162.728" transform="matrix(.5359 -.8443 .8443 .5359 43.7314 435.1186)"/><path d="M527.565 276.6c-9.207 0-20.245-1.626-32.865-4.903-31.351-8.142-68.873-25.485-105.656-48.834-36.782-23.35-68.445-49.925-89.154-74.83-20.945-25.188-28.21-45.787-20.457-58s29.485-14.403 61.192-6.17c31.35 8.143 68.873 25.485 105.656 48.834 36.783 23.35 68.445 49.925 89.154 74.83 20.945 25.189 28.21 45.787 20.457 58.001-4.667 7.351-14.401 11.072-28.327 11.072zM307.632 80.92c-13.113 0-22.215 3.418-26.51 10.185-7.249 11.419-.037 31.183 20.307 55.649 20.58 24.75 52.077 51.179 88.688 74.419 36.611 23.241 73.932 40.497 105.087 48.588 30.797 8 51.751 6.114 59-5.306s.038-31.184-20.307-55.649c-20.58-24.75-52.076-51.18-88.688-74.42-36.612-23.241-73.932-40.496-105.087-48.587-12.55-3.26-23.47-4.879-32.49-4.879zm247.416 184.072h.01z" fill="#670a39"/><path d="M468.606 445.465c-50.471 79.507-111.259 140.943-170.56 178.055l-.103.064a48.195 48.195 0 0 1-30.668 7.081c-27.309-2.914-67.63-18.971-108.561-44.954-41.264-26.194-73.132-56.11-87.217-79.666-5.417-9.059-7.567-19.699-6.323-30.181l.014-.12.005-.007C96.475 215.5 389.301-60.597 517.377 20.705c55.252 35.073 64.009 128.715 35.443 235.791-16.379 61.404-45.024 127.231-84.214 188.969z" fill="#f6e4d5"/><path d="M350.806 523.114c-11.017-.94-21.221 11.889-27.153 28.66-5.924 16.747-6.697 34.253 2.852 39.948 9.479 5.653 27.845-6.097 35.206-27.612 7.368-21.538-.05-40.07-10.905-40.996z" fill="#d3b6b8"/><path d="M209.297 610.496c-16.752-6.11-35.011-15.115-53.248-26.692-45.387-28.812-76.439-64.547-78.548-87.809.562-3.778 1.183-7.6 1.877-11.458l.005-.007C124.647 232.108 407.31-52.889 515.953 19.606l.009-.015c40.722 25.85-15.406 183.939-107.059 338.26-57.588 96.943-129.194 192.404-199.606 252.645z" fill="#fff8ed"/><path d="M468.606 445.465c-50.471 79.507-111.259 140.943-170.56 178.055-.033.02-.066.04-.104.068a48.734 48.734 0 0 1-8.993 4.406l1.902-9.041c57.728-38.11 117.559-100.154 168.03-179.661 39.191-61.737 68.413-127.197 85.786-187.971 29.823-104.319 24.717-194.843-24.89-229.031 53.101 36.232 61.188 128.699 33.043 234.206-16.379 61.404-45.024 127.231-84.214 188.969z" fill="#fff8ed"/><path d="M314.47 613.644a1.001 1.001 0 0 1-.95-1.313c5.211-15.854-42.639-61.818-106.666-102.462-64.139-40.715-126.113-64.443-138.15-52.887a1 1 0 1 1-1.385-1.443c13.091-12.56 73.539 10.066 140.607 52.641 66.947 42.498 113.159 87.542 107.494 104.776a1 1 0 0 1-.95.688zm238.35-357.148c-4.913-28.962-49.163-75.937-111.712-115.643-62.557-39.711-123.897-59.763-152.196-51.884 84.747-71.413 173.206-103.342 228.465-68.264 55.252 35.073 64.01 128.715 35.443 235.791zM460.1 459.543a1 1 0 0 1-.965-1.262c3.282-12.091-7.512-32.288-30.394-56.873-5.171-5.556-6.211-15.375-2.32-21.889 14.869-24.886 36.994-64.325 57.955-110.886 1.715-3.81 4.489-6.207 7.811-6.752 3.302-.545 6.673.831 9.49 3.866 19.292 20.787 30.631 41.731 30.333 56.026a.994.994 0 0 1-.067.34c-18.535 47.956-42.426 94.044-71.01 136.982a.996.996 0 0 1-.833.448zm33.491-195.775a6.63 6.63 0 0 0-1.08.088c-2.639.433-4.881 2.421-6.311 5.599-21.001 46.648-43.166 86.16-58.062 111.091-3.467 5.803-2.539 14.551 2.067 19.5 20.816 22.365 31.786 41.364 31.484 54.283 27.401-41.724 50.378-86.369 68.325-132.77.183-13.587-11.218-34.425-29.802-54.449-2.025-2.183-4.34-3.342-6.621-3.342zm-314.532-41.777c-3.843 3.726-8.376 4.921-10.133 2.647a3.244 3.244 0 0 1-.584-1.294 777.607 777.607 0 0 1 9.016-12.733c2.333-.96 4.421-.856 5.48.514 1.757 2.275.068 7.132-3.779 10.866z" fill="#d3b6b8"/><path d="M111.388 322.838a1 1 0 0 1-.905-1.425c19.833-42.208 44.872-83.488 74.422-122.694a.999.999 0 0 1 .385-.309l.201-.092c7.562-3.428 12.687-3.852 14.82-1.22 2.146 2.646.657 7.614-4.306 14.366-15.507 21.098-30.008 43.043-43.1 65.226l-.028.046a3291.168 3291.168 0 0 0-21.776 33.188c-3.608 5.564-9.502 11.532-13.121 11.891a55.712 55.712 0 0 0-6.379 1 1.029 1.029 0 0 1-.213.023zm74.962-122.712c-28.982 38.48-53.605 78.957-73.21 120.345a58.622 58.622 0 0 1 4.645-.646c2.281-.226 7.622-4.794 11.639-10.987a3274.194 3274.194 0 0 1 21.774-33.187c13.122-22.232 27.656-44.227 43.197-65.37 4.919-6.693 5.48-10.548 4.364-11.923-1.431-1.764-6.069-1.104-12.409 1.768zm-34.305 76.057h.01z" fill="#d3b6b8"/><path d="M272.338 631.931c-1.727 0-3.451-.091-5.165-.274-4.756-.51-9.919-1.414-15.346-2.688-26.992-6.309-61.126-21.768-93.649-42.413-40.081-25.443-72.805-55.349-87.537-79.999-5.444-9.104-7.739-20.045-6.462-30.808l.019-.139a.853.853 0 0 1 .012-.07c5.975-49.627 21.543-101.484 46.273-154.127 15.739-33.495 34.928-66.682 57.036-98.64a779.918 779.918 0 0 1 9.028-12.749 751.125 751.125 0 0 1 8.358-11.306c52.556-69.752 114.78-126.923 175.208-160.98 30.784-17.351 59.724-27.882 86.013-31.301 27.89-3.622 52.042.889 71.786 13.423a88.939 88.939 0 0 1 12.774 9.872c21.22 19.723 34.355 51.555 37.985 92.056 3.475 38.769-1.673 85.439-14.886 134.966C536.814 320.381 507.651 385.822 469.45 446l-.844-.536.844.536c-27.083 42.665-57.552 80.909-90.559 113.669-26.132 25.937-53.154 47.704-80.315 64.698l-.106.068a45.227 45.227 0 0 1-2.532 1.477 48.982 48.982 0 0 1-6.646 3.02 49.433 49.433 0 0 1-16.954 2.999zM66.17 475.954l-.006.047c-1.223 10.311.976 20.803 6.194 29.529 14.58 24.395 47.063 54.053 86.893 79.337 32.341 20.529 66.25 35.895 93.033 42.154 5.348 1.255 10.429 2.145 15.103 2.646a47.372 47.372 0 0 0 21.218-2.613 47.266 47.266 0 0 0 6.381-2.9 44.4 44.4 0 0 0 2.428-1.416c.01-.011.068-.047.126-.081 27.012-16.9 53.916-38.576 79.943-64.408 32.902-32.654 63.276-70.781 90.28-113.321 38.094-60.009 67.172-125.257 84.092-188.689 13.153-49.303 18.28-95.733 14.826-134.272-3.585-40-16.502-71.388-37.354-90.769a87.076 87.076 0 0 0-12.484-9.649c-19.34-12.275-43.046-16.692-70.458-13.128-26.034 3.386-54.729 13.836-85.289 31.06-60.194 33.926-122.199 90.904-174.593 160.441a746.978 746.978 0 0 0-8.335 11.275 773.266 773.266 0 0 0-9.004 12.715c-22.044 31.866-41.178 64.956-56.87 98.352-24.653 52.478-40.165 104.153-46.107 153.593a1.51 1.51 0 0 1-.017.097zm395.249 7.759a1 1 0 0 1-.817-1.575c21.955-31.301 41.617-64.763 58.439-99.455a1 1 0 0 1 1.8.873c-16.869 34.788-36.585 68.342-58.602 99.73a.997.997 0 0 1-.82.427z" fill="#670a39"/><path d="M217.594 606.15c-18.059 0-39.6-7.016-59.415-19.594a1.001 1.001 0 0 1 1.072-1.69c22.726 14.427 47.688 21.419 66.774 18.712 7.056-1.002 14.972-5.198 22.289-11.815a1 1 0 0 1 1.341 1.484c-7.61 6.881-15.902 11.253-23.349 12.312-2.79.395-5.704.591-8.712.591zm203.575-172.226c.668.813.731 2.2.15 3.078a745.66 745.66 0 0 1-2.392 3.59l-.042.066a997.273 997.273 0 0 1-4.061 6.009c-25.243 37.094-55.11 74.863-85.436 106.058-.817.84-2.012.723-2.676-.243-3.164-4.605-6.878-9.391-11.097-14.307-.807-.941-.814-2.466 0-3.402 31.881-36.657 62.602-78.586 87.662-117.437.646-1.001 1.86-1.121 2.693-.269 5.652 5.783 10.733 11.422 15.199 16.857z" fill="#670a39"/><path d="M328.134 554.287a2.57 2.57 0 0 1-.214-.009c-.801-.068-1.542-.517-2.032-1.229-3.124-4.548-6.835-9.333-11.032-14.223-1.139-1.328-1.137-3.397.004-4.71 29.705-34.155 60.807-75.821 87.576-117.322.473-.733 1.206-1.201 2.013-1.282.808-.084 1.623.23 2.235.855 5.636 5.767 10.77 11.46 15.257 16.922.942 1.146 1.035 3.021.211 4.265a873.81 873.81 0 0 1-6.502 9.676c-27 39.677-56.581 76.397-85.546 106.192-.54.557-1.249.865-1.97.865zm76.572-136.789a.507.507 0 0 0-.055.003c-.201.021-.39.154-.534.377-26.819 41.579-57.982 83.326-87.748 117.551-.489.562-.487 1.521.005 2.095 4.242 4.944 7.998 9.786 11.162 14.393.152.221.348.352.553.369.2.02.402-.072.582-.258 28.885-29.713 58.39-66.341 85.326-105.924a935.684 935.684 0 0 0 6.488-9.653c.342-.518.3-1.419-.089-1.892-4.451-5.417-9.546-11.067-15.142-16.793-.169-.174-.362-.268-.548-.268zM290.753 620.024a.998.998 0 0 1-.715-1.698c.112-.115.222-.186.305-.235a1 1 0 0 1 1.051 1.702 1 1 0 0 1-.641.231zm.097-1.072.503.864.004-.002zm.619.77-.001.002.001-.002zm-48.088-2.784c-23.397 0-55.174-11.32-85.202-30.382a1.001 1.001 0 0 1 1.072-1.69c30.016 19.054 61.728 30.259 84.811 30.068 8.523-.083 17.628-3.523 25.638-9.686a1.001 1.001 0 0 1 1.219 1.586c-8.352 6.425-17.883 10.012-26.838 10.1a54.24 54.24 0 0 1-.7.004z" fill="#670a39"/><path d="m557.164 260.238-.012.003c7.454-26.691-40.071-81.419-111.402-126.7-71.39-45.318-141.187-65.024-162.117-46.856l-.007-.005c63.81-54.333 166.864-114.59 236.536-70.363 69.977 44.421 58.797 163.755 37.002 243.921z" fill="#517fb6"/><path d="M540.712 101.54c4.223 15.694 21.758 15.002 15.536-7.376-6.233-22.416-25.25-28.725-15.536 7.376zm11.17 131.613c-5.792-11.096-14.99-23.497-26.94-36.302a289.577 289.577 0 0 1 1.945-13.261c5.553-32.759 16.097-61.638 28.404-67.445 12.126-5.73 21.523 21.066 14.67 62.961-3.564 21.787-10.608 41.055-18.079 54.047z" fill="#386393"/><path d="m557.164 260.238-.012.003c.062-.227.124-.454.179-.686l.151-.674c1.476-7.045-.52-15.842-5.503-25.786 6.949-29.402 14.097-70.835 11.979-111.101-7.672-146.145-125.635-140.27-242.903-41.059-6.076-.82-11.647-1.126-16.647-.893-9.01.425-16.108 2.588-20.775 6.643l-.007-.005c63.811-54.336 166.865-114.59 236.536-70.363 69.979 44.422 58.797 163.755 37.002 243.921z" fill="#82b3fb"/><path d="M501.687 174.969c-16.059-13.99-34.965-28.115-55.937-41.428-46.609-29.587-92.542-48.261-124.638-52.6 73.187-63.691 144.994-93.337 187.339-60.752 27.833 21.412 21.469 79.726-6.764 154.78z" fill="#b5dcfa"/><path d="M404.332 110.521c10.14 5.489 17.171 8.8 18.364 6.892 1.046-1.657-3.71-8.597-20.655-17.627-17.113-9.12-30.492-9.041-31.746-7.589-1.505 2.09 9.08 5.618 34.037 18.324z" fill="#fff8ed"/><path d="m199.124 522.059-.003-.002-.003-.002c-31.25-19.837-130.671-74.006-134.203-44.216-5.18 43.639 52.103 91.979 89.01 115.409l.003.002.003.002c36.908 23.428 105.03 54.694 142.316 31.436 25.455-15.874-65.874-82.792-97.123-102.629z" fill="#af4357"/><path d="M156.136 589.757c-10.616-6.739-37.655-25.039-59.376-49.354-20.209-22.622-29.771-44.021-27.65-61.885.267-2.257 1.27-3.114 2.214-3.656 3.164-1.812 14.682-4.208 53.204 12.649 25.963 11.37 55.606 27.858 72.158 38.366 14.16 8.989 37.367 25.476 57.307 42.055 24.33 20.229 39.189 36.758 41.841 46.542 1.116 4.109-.295 5.652-1.987 6.708-15.268 9.522-38.705 9.975-67.773 1.309a225.096 225.096 0 0 1-15.55-5.293c-24.196-9.193-44.458-21.134-54.382-27.434z" fill="#df5468"/><path d="M296.141 624.855c-18.645 11.627-45.002 9.627-71.304 1.784a229.078 229.078 0 0 1-15.852-5.395l20.094-17.303c18.185 18.786 50.453 22.415 70.934 9.399 1.339 4.923.308 8.906-3.872 11.515zM64.804 478.003c-2.587 21.82 10.44 44.821 28.729 65.284a228.019 228.019 0 0 0 11.628 12.049l7.107-25.547c-24.738-8.461-41.755-36.118-38.692-60.191-5.024.885-8.19 3.512-8.772 8.405z" fill="#ed7981"/><path d="M91.736 530.912c13.617-21.451 158.794 70.459 145.065 92.087-2.191 3.451-9.295 5.823-30.699-2.476-47.908-18.574-124.299-73.964-114.366-89.611z" fill="#ed7981"/><path d="M557.152 261.241a.998.998 0 0 1-.964-1.264c3.167-11.576-3.362-27.939-18.879-47.321C489.303 152.693 367.758 78.102 304.453 81.04c-8.981.423-15.766 2.576-20.165 6.398a1.004 1.004 0 1 1-1.311-1.52c22.045-18.771 66.476-53.128 116.361-72.314 48.93-18.819 89.761-18.189 121.361 1.869 31.692 20.118 49.651 56.902 53.378 109.33 3.777 53.14-8.37 107.828-15.947 135.698a1.002 1.002 0 0 1-.801.724l-.012.002a1.02 1.02 0 0 1-.165.014zM308.108 78.957c64.766 0 183.407 73.298 230.763 132.448 11.869 14.825 18.59 28.027 19.865 38.85 7.4-29.584 16.703-78.084 13.346-125.311-3.679-51.76-21.327-88.023-52.454-107.782C488.59-2.54 448.361-3.107 400.055 15.47c-44.436 17.092-84.556 46.317-108.213 65.657 3.587-1.163 7.768-1.861 12.517-2.085a82.33 82.33 0 0 1 3.749-.085zm-44.522 555.13c-11.489 0-24.521-2.162-39.034-6.49a229.616 229.616 0 0 1-15.922-5.418c-24.63-9.357-45.247-21.507-55.344-27.916-44.312-28.129-94.326-75.48-89.47-116.374.411-3.466 2.045-6.041 4.858-7.652 8.528-4.883 28.039-.717 57.991 12.391 26.216 11.479 56.155 28.134 72.878 38.749 28.982 18.397 94.748 67.022 101.436 91.703 1.532 5.636.083 9.883-4.308 12.624-8.961 5.587-20.026 8.383-33.085 8.383zM77.956 470.248c-3.503 0-6.276.571-8.288 1.724-2.265 1.298-3.529 3.31-3.866 6.152-4.746 39.972 44.734 86.632 88.548 114.444 10.041 6.374 30.525 18.446 54.99 27.741a227.89 227.89 0 0 0 15.782 5.371c30.437 9.076 54.153 8.513 70.489-1.675 3.604-2.25 4.729-5.652 3.437-10.402-6.536-24.121-71.801-72.271-100.57-90.533-16.668-10.581-46.497-27.174-72.615-38.611-21.502-9.409-37.76-14.211-47.907-14.211zm218.185 154.607h.01z" fill="#670a39"/><path d="M231.397 621.816c-5.9 9.301-48.433-13.227-58.03-18.58-39.654-22.153-84.506-58.094-78.26-67.94 5.618-8.872 45.856 11.892 55.13 17 0-.01.01 0 .01 0 42.818 23.352 87.249 59.91 81.15 69.52z" fill="#670a39"/><path d="M223.854 606.003c-7.613 4.496-15.091 8.345-22.274 11.324-7.508-3.242-15.971-7.457-24.941-12.479 8.023-4.582 16.685-10.716 25.654-17.863 8.879 6.862 16.254 13.384 21.561 19.018z" fill="#8a2b73"/><path d="M225.722 624.873c-5.698 0-13.787-2.555-20.713-5.239-14.553-5.64-32.618-15.128-50.868-26.715-18.26-11.594-34.537-23.906-45.831-34.669-8.231-7.844-17.349-18.284-14.047-23.48 5.354-8.455 37.04 6.63 46.623 11.452 8.975 4.529 18.334 9.806 27.817 15.685 1.212.751 2.435 1.522 3.657 2.294 18.255 11.587 34.53 23.897 45.83 34.668 8.229 7.844 17.347 18.284 14.051 23.482v.001c-1.145 1.802-3.495 2.521-6.519 2.521zm-124.969-90.658c-2.541 0-4.138.579-4.801 1.626-1.951 3.07 3.185 10.905 13.737 20.961 11.203 10.676 27.37 22.903 45.524 34.43 18.143 11.519 36.085 20.943 50.519 26.538 13.591 5.267 22.869 6.578 24.82 3.511 1.947-3.07-3.19-10.908-13.742-20.965-11.208-10.683-27.373-22.908-45.52-34.425a485.454 485.454 0 0 0-3.641-2.285c-9.434-5.848-18.741-11.095-27.664-15.598-19.584-9.858-32.611-13.793-39.232-13.793zm130.644 87.601h.01z" fill="#670a39"/><ellipse cx="443.542" cy="386.166" fill="#d3b6b8" rx="9.051" ry="6.609" transform="matrix(.389 -.9213 .9213 .389 -84.7336 644.5827)"/><ellipse cx="495.276" cy="286.806" fill="#d3b6b8" rx="9.051" ry="6.609" transform="matrix(.4172 -.9088 .9088 .4172 28.0011 617.2759)"/><path d="M353.44 290.877c3.511 6.22 7.268 11.297 11.142 15.306 19.331 20.189 41.485 14.602 51.809-.312a32.948 32.948 0 0 0 5.46-13.581c-2.615-2.179-5.124-4.638-7.456-7.31s-4.488-5.557-6.395-8.587c-10.531 13.319-34.99 19.858-54.56 14.484z" fill="#670a39"/><path d="M391.537 320.284c-7.263 0-17.323-2.593-27.678-13.408-4.047-4.188-7.847-9.407-11.291-15.507a1 1 0 0 1 1.135-1.455c19.177 5.264 43.182-1.078 53.51-14.14a1.002 1.002 0 0 1 1.631.087 68.107 68.107 0 0 0 6.302 8.463 65.168 65.168 0 0 0 7.343 7.199c.271.227.403.579.347.928-.809 5.021-2.754 9.859-5.626 13.991-5.539 8.002-14.026 13.014-23.283 13.747-.756.06-1.555.095-2.39.095zm-36.046-27.866c3.039 5.082 6.332 9.472 9.809 13.07 11.007 11.496 21.557 13.25 28.47 12.707 8.656-.687 16.601-5.386 21.798-12.894a32.137 32.137 0 0 0 5.2-12.614 67.296 67.296 0 0 1-7.128-7.05 70.024 70.024 0 0 1-5.744-7.555c-10.768 12.401-33.477 18.572-52.405 14.336z" fill="#670a39"/><path d="M424.481 295.362a.995.995 0 0 1-.595-.197c-7.34-5.443-13.928-13.009-18.551-21.302a1 1 0 1 1 1.746-.974c4.488 8.052 10.879 15.393 17.995 20.671a1 1 0 0 1-.595 1.802zm-71.041-3.485a1.02 1.02 0 0 1-.266-.036c-5.777-1.587-10.829-4.094-15.015-7.449a1 1 0 1 1 1.251-1.56c3.972 3.185 8.781 5.566 14.294 7.082a1 1 0 0 1-.264 1.963z" fill="#670a39"/><path d="M364.582 306.183c19.331 20.189 41.485 14.602 51.809-.312-7.835-7.184-20.759-10.472-29.456-.156.946-9.046-16.716-8.379-22.353.468z" fill="#ec4949"/><path d="M391.537 320.284c-7.263 0-17.323-2.593-27.678-13.408a1 1 0 0 1-.121-1.229c4.032-6.327 13.606-8.762 19.474-6.717 2.431.849 4.003 2.413 4.547 4.444 3.245-3.114 7.174-4.89 11.484-5.167 6.011-.369 12.672 2.204 17.824 6.927a1 1 0 0 1 .146 1.307c-5.54 8.003-14.027 13.015-23.284 13.748-.758.06-1.557.095-2.392.095zm-25.666-14.208c10.799 10.969 21.107 12.659 27.9 12.12 8.375-.664 16.085-5.086 21.284-12.173-4.655-3.989-10.457-6.138-15.684-5.819-4.547.292-8.473 2.364-11.672 6.157a1 1 0 0 1-1.759-.749c.301-2.88-1.676-4.196-3.387-4.794-4.853-1.69-12.954.259-16.682 5.258z" fill="#670a39"/><path d="M416.391 305.872c-8.507-7.799-23.011-11.007-31.593 2.801" fill="#ec4949"/><path d="M384.797 309.673a1.002 1.002 0 0 1-.849-1.528c3.506-5.641 8.338-9.031 13.973-9.805 6.392-.878 13.548 1.664 19.145 6.794a1 1 0 1 1-1.352 1.475c-5.163-4.732-11.713-7.081-17.521-6.287-5.098.7-9.319 3.688-12.547 8.88a.996.996 0 0 1-.849.471z" fill="#670a39"/><ellipse cx="397.901" cy="308.196" fill="#ff6d6d" rx="8.482" ry="4.757" transform="matrix(.9397 -.3419 .3419 .9397 -81.4005 154.6383)"/><path d="M421.037 229.215c-16.554 25.545-43.219 37.792-60.023 27.757a9.078 9.078 0 0 1-.697-.421c-16.746-10.802-16.711-40.554.071-66.452 16.793-25.9 43.975-38.138 60.721-27.336a23.649 23.649 0 0 1 4.453 3.721c12.12 12.897 10.607 39.375-4.525 62.731z" fill="#f6e4d5"/><ellipse cx="386.68" cy="205.226" fill="#fff8ed" rx="55.883" ry="36.083" transform="matrix(.5452 -.8383 .8383 .5452 3.8183 417.4893)"/><path d="M415.3 157.05c.244.121.479.256.711.399 17.084 10.259 18.004 39.997 2.062 66.42-15.953 26.426-42.728 39.53-59.812 29.271a23.637 23.637 0 0 1-4.57-3.577c17.108 9.475 43.359-3.626 59.084-29.689 14.368-23.816 15.04-50.313 2.525-62.824z" fill="#e7dcdc"/><path d="M370.435 257.099c-5.025 0-9.771-1.191-13.968-3.698a9.405 9.405 0 0 1-.735-.444c-6.071-3.916-10.226-10.38-12.01-18.687-3.125-14.556 1.283-32.928 11.792-49.145 17.064-26.318 44.923-38.713 62.102-27.633a24.703 24.703 0 0 1 4.642 3.881c12.697 13.509 10.841 40.407-4.416 63.956-12.88 19.876-31.532 31.77-47.407 31.77zm32.637-101.697c-15.187 0-33.433 11.615-45.88 30.812-10.226 15.78-14.531 33.589-11.515 47.637 1.67 7.776 5.524 13.805 11.147 17.431.21.139.416.267.629.381 16.294 9.728 42.614-2.581 58.71-27.42 14.525-22.419 16.517-48.858 4.634-61.502a22.739 22.739 0 0 0-4.268-3.567c-3.966-2.56-8.553-3.772-13.457-3.772zm13.931 69.383h.01z" fill="#670a39"/><ellipse cx="396.124" cy="219.385" fill="#670a39" rx="35.955" ry="19.449" transform="matrix(.5829 -.8126 .8126 .5829 -13.0324 413.3833)"/><path d="M382.206 251.694c-2.826 0-5.39-.712-7.53-2.216-2.862-2.012-4.754-5.286-5.47-9.472-1.54-9 2.365-21.409 10.19-32.384 11.828-16.589 28.953-24.809 38.177-18.33 2.862 2.012 4.754 5.287 5.47 9.472 1.54 9-2.365 21.409-10.19 32.384-9.084 12.739-21.294 20.546-30.647 20.546zm27.686-62.68c-8.618 0-20.161 7.559-28.868 19.769-7.527 10.558-11.301 22.393-9.847 30.887.633 3.7 2.197 6.449 4.648 8.172 8.326 5.854 24.206-2.158 35.398-17.854 7.527-10.558 11.301-22.393 9.848-30.887-.633-3.7-2.197-6.449-4.648-8.172-1.849-1.3-4.071-1.915-6.531-1.915z" fill="#670a39"/><ellipse cx="403.256" cy="220.957" fill="#fff8ed" rx="10.557" ry="7.485" transform="matrix(.5654 -.8248 .8248 .5654 -6.9879 428.6521)"/><path d="M400.575 231.646c-1.417 0-2.732-.389-3.853-1.156-1.924-1.319-3.008-3.575-3.052-6.353-.042-2.649.877-5.482 2.587-7.978 1.71-2.495 4.021-4.375 6.508-5.291 2.606-.963 5.101-.763 7.025.556s3.008 3.575 3.052 6.353c.042 2.649-.877 5.482-2.587 7.978-1.71 2.495-4.022 4.375-6.508 5.291-1.088.401-2.157.6-3.172.6zm5.354-19.374c-.781 0-1.614.157-2.473.474-2.101.774-4.072 2.388-5.55 4.545-1.478 2.156-2.273 4.576-2.237 6.815.034 2.11.809 3.792 2.183 4.733 1.375.942 3.222 1.058 5.203.329 2.101-.774 4.072-2.388 5.55-4.545 1.478-2.156 2.272-4.576 2.237-6.815-.034-2.11-.809-3.792-2.183-4.733-.779-.535-1.709-.803-2.73-.803z" fill="#670a39"/><path d="M328.975 184.949c-17.249 22.389-42.116 31.603-55.995 20.917a7.771 7.771 0 0 1-.575-.448c-13.75-11.394-10.715-39.032 6.772-61.73 17.497-22.7 42.821-31.863 56.571-20.469a20.782 20.782 0 0 1 3.57 3.819c9.44 12.964 5.426 37.44-10.343 57.911z" fill="#f6e4d5"/><ellipse cx="300.95" cy="159.874" fill="#fff8ed" rx="51.906" ry="32.302" transform="matrix(.5924 -.8056 .8056 .5924 -6.143 307.605)"/><path d="M331.177 117.44c.204.132.399.277.589.428 14.104 10.917 11.917 38.619-4.878 61.873-16.805 23.256-41.857 33.257-55.961 22.34a20.733 20.733 0 0 1-3.689-3.693c14.204 10.19 38.791.15 55.358-22.788 15.138-20.96 18.409-45.522 8.581-58.16z" fill="#e7dcdc"/><path d="M283.903 206.928c-5.483 0-10.511-1.518-14.661-4.713a8.29 8.29 0 0 1-.611-.477c-14.128-11.708-11.159-40.02 6.625-63.104 11.178-14.502 25.882-24.055 39.333-25.556 7.335-.818 13.791.885 18.668 4.928A21.846 21.846 0 0 1 337 122.01c9.902 13.597 5.546 38.456-10.36 59.106-12.631 16.395-29.086 25.812-42.737 25.812zm34.196-92.049c-1.071 0-2.167.062-3.287.188-12.923 1.441-27.117 10.708-37.971 24.788-17.135 22.242-20.242 49.315-6.926 60.351.171.144.337.276.511.398 13.403 10.322 37.893 1.017 54.63-20.708 15.128-19.641 19.567-44.021 10.325-56.712a19.894 19.894 0 0 0-3.402-3.64c-3.712-3.077-8.464-4.665-13.88-4.665zm7.749 65.627h.01z" fill="#670a39"/><ellipse cx="311.927" cy="169.47" fill="#670a39" rx="31.903" ry="16.383" transform="matrix(.5939 -.8045 .8045 .5939 -9.6704 319.7813)"/><path d="M298.895 197.924c-2.668 0-5.002-.757-6.828-2.229-7.579-6.112-4.811-22.417 6.302-37.119 7.401-9.793 16.876-16.477 24.727-17.443 3.447-.423 6.452.307 8.691 2.112 7.578 6.112 4.81 22.418-6.302 37.12-7.401 9.793-16.876 16.477-24.727 17.442-.636.079-1.258.117-1.863.117zm26.106-54.912c-.533 0-1.087.035-1.66.105-7.333.902-16.29 7.287-23.376 16.663-10.283 13.605-13.262 29.018-6.641 34.357 1.834 1.479 4.253 2.048 7.192 1.685 7.332-.902 16.29-7.287 23.376-16.663 10.282-13.605 13.262-29.019 6.642-34.358-1.478-1.19-3.334-1.789-5.533-1.789zm-.313 36.75h.01z" fill="#670a39"/><ellipse cx="317.344" cy="170.663" fill="#fff8ed" rx="10.218" ry="6.021" transform="matrix(.5 -.866 .866 .5 10.8735 360.1596)"/><path d="M314.184 181.013c-1.002 0-1.923-.269-2.711-.798-3.253-2.184-3.248-8.085.011-13.435 2.039-3.347 4.911-5.708 7.683-6.317 1.521-.333 2.921-.109 4.049.647 3.253 2.185 3.248 8.086-.011 13.435-2.039 3.347-4.911 5.708-7.683 6.317a6.217 6.217 0 0 1-1.338.151zm6.324-18.701a4.28 4.28 0 0 0-.913.105c-2.216.486-4.669 2.557-6.404 5.404-2.61 4.285-2.887 9.2-.604 10.733.673.452 1.516.571 2.505.354 2.215-.486 4.669-2.557 6.404-5.404 2.61-4.284 2.887-9.199.604-10.733-.455-.306-.988-.459-1.592-.459z" fill="#670a39"/><path d="M370.721 660.041c-12.295 7.296-21.83 6.27-25.988-1.273-.01-.017-.017-.021-.02-.033-3.085-5.661-2.135-14.22-2.019-14.403.337-3.295 1.151-6.307 1.932-13.855 1.443-13.569.511-21.168.729-21.512-.776-19.738-5.142-39.17-13.863-58.433a166.655 166.655 0 0 0-4.267-8.761c-.003-.012-.013-.029-.015-.041a155.516 155.516 0 0 0-5.527-9.49l-1.424-2.863 1.07-1.249c26.547-31.17 53.447-67.163 79.427-106.941.314-.478.627-.956.938-1.446a148.88 148.88 0 0 1 11.736 13.349 155.4 155.4 0 0 1 5.497 7.501c50.606 73.407 27.685 174.433-48.206 219.45z" fill="#af4357"/><path d="M365.372 657.866c-9.824 5.828-17.097 5.859-20.639.902-.01-.017-.017-.021-.02-.033-3.322-4.673-2.283-13.986-2.019-14.403.082-.615.179-1.251.291-1.897 3.53-20.154 2.188-33.183 2.37-33.469-.517-13.1-2.537-24.641-5.229-34.589a117.68 117.68 0 0 0-.82-2.942 145.693 145.693 0 0 0-6.13-16.961c-5.752-13.305-11.694-21.56-13.32-24.623.129-.154.27-.311.403-.473l1.07-1.249c25.613-30.07 51.553-64.631 76.673-102.749a148.93 148.93 0 0 1 16.823 21.287c16.684 25.61 24.525 55.034 24.001 84.206a150.993 150.993 0 0 1-1.143 16.119c-.099.851-.212 1.692-.33 2.54-6.098 43.156-30.636 83.799-71.981 108.334z" fill="#df5468"/><path d="M357.031 544.12c5.688 4.418 23.34 2.665 42.019-2.328 18.654-4.985 34.937-12.172 34.419-18.083-.514-5.867-22.034-7.55-45.85-1.055-23.84 6.503-36.191 17.114-30.588 21.466zm8.341 113.746c-9.824 5.828-17.097 5.859-20.639.902-.01-.017-.017-.021-.02-.033-3.322-4.673-2.283-13.986-2.019-14.403.082-.615.179-1.251.291-1.897 3.53-20.154 2.188-33.183 2.37-33.469-.517-13.1-2.537-24.641-5.229-34.589 12.848-8.361 27.805-15.424 44.662-20.42 18.262-5.416 36.188-7.507 52.895-6.966-.099.851-.212 1.692-.33 2.54-6.098 43.157-30.636 83.8-71.981 108.335z" fill="#ed7981"/><path d="M409.681 428.475c-2.22-2.579-6.948-2.307-8.621.232-22.957 34.936-50.194 71.895-78.498 104.945-.294-.474-.581-.943-.88-1.41l-1.424-2.863 1.07-1.249c26.547-31.17 53.447-67.163 79.427-106.941.314-.478.627-.956.938-1.446a144.716 144.716 0 0 1 7.988 8.732z" fill="#af4357"/><path d="M355.731 666.005c-1.434 0-2.793-.173-4.068-.52-3.351-.912-6.043-3.057-7.787-6.202l-.04-.07c-2.847-5.225-2.514-12.996-2.116-14.98l-.02-.002c.109-1.062.267-2.195.472-3.368 2.726-15.537 2.328-26.833 2.197-30.545-.028-.792-.042-1.188-.017-1.436-.948-23.447-6.84-45.25-18.012-66.646a1.019 1.019 0 0 1-.041-.089c-1.762-3.275-3.8-6.773-5.458-9.366a1.08 1.08 0 0 1-.053-.094l-1.424-2.863a1.002 1.002 0 0 1 .135-1.096c27.596-32.27 54.653-68.635 80.42-108.087.312-.476.623-.949.931-1.435a1 1 0 0 1 1.554-.17 146.814 146.814 0 0 1 8.043 8.794 144.842 144.842 0 0 1 3.773 4.646c1.859 2.38 3.721 4.92 5.531 7.548 24.49 35.523 32.86 78.415 23.57 120.773-9.188 41.891-35.464 78.377-72.089 100.104-5.692 3.378-10.966 5.104-15.501 5.104zm-10.149-7.764.01.016c1.514 2.745 3.727 4.519 6.595 5.3 4.777 1.296 11.01-.212 18.023-4.375 36.151-21.444 62.086-57.459 71.156-98.812 9.171-41.811.909-84.146-23.263-119.21a154.57 154.57 0 0 0-5.462-7.453 144.949 144.949 0 0 0-3.724-4.586 146.992 146.992 0 0 0-7.061-7.788l-.266.404c-25.678 39.316-52.64 75.579-80.143 107.788l1.106 2.224c1.688 2.644 3.755 6.194 5.537 9.51.018.034.035.069.049.105 11.312 21.685 17.271 43.786 18.214 67.562a.98.98 0 0 1-.018.23c-.005.177.011.545.03 1.091.133 3.764.537 15.218-2.225 30.96a46.553 46.553 0 0 0-.452 3.227.968.968 0 0 1-.04.194c-.19.996-.777 8.617 1.934 13.613zm34.563 13.134a1 1 0 0 1-.529-1.849c24.774-15.416 45.227-37.303 59.15-63.296a1 1 0 1 1 1.763.944c-14.088 26.302-34.786 48.45-59.856 64.05a1.003 1.003 0 0 1-.528.151z" fill="#670a39"/><path d="M450.842 20.56c3.167-1.133 3.246-7.083-1.64-5.7-4.895 1.385-6.046 8.45 1.64 5.7z" fill="#fff8ed"/><path d="M476.94 22.746c12.239.661 15.511-10.584-1.984-11.399-17.524-.816-26.169 9.879 1.984 11.399zm57.066 207.73c-1.938.944-2.363 4.11-1.68 7.509.682 3.394 2.302 6.401 4.469 6.4 2.151-.001 4.05-3.803 3.132-8.139-.919-4.34-4.012-6.7-5.921-5.77zm-24.771-2.785c-2.174 2.351-1.055 7.143 1.724 11.705 2.775 4.556 6.64 8.074 9.64 6.967 2.978-1.099 3.557-7.559-.052-13.355-3.614-5.802-9.17-7.634-11.312-5.317z" fill="#fff8ed"/><path d="M93.59 489.571c4.794 9.468-4.974 17.529-11.702 3.931-6.74-13.62.673-25.711 11.702-3.931zm5.546-.949c-3.376.928-8.43-7.128-3.557-8.36 4.881-1.235 11.323 6.226 3.557 8.36z" fill="#ed7981"/><ellipse cx="232.354" cy="388.959" fill="#f6e4d5" rx="99.098" ry="88.001" transform="matrix(.5267 -.85 .85 .5267 -220.6613 381.5806)"/><path d="M217.001 479.822c-16.125 0-31.737-4.355-45.512-12.893-20.915-12.96-35.084-34.002-39.897-59.25-4.807-25.216.298-51.612 14.373-74.325 14.075-22.714 35.441-39.033 60.161-45.951 24.751-6.928 49.901-3.605 70.816 9.357 20.915 12.96 35.084 34.002 39.897 59.25 4.807 25.216-.297 51.611-14.373 74.325s-35.441 39.033-60.161 45.951c-8.45 2.366-16.946 3.536-25.304 3.536zm14.423-193.953c-8.178 0-16.488 1.145-24.759 3.459-24.236 6.783-45.19 22.792-59 45.078-13.811 22.287-18.821 48.176-14.108 72.898 4.707 24.69 18.552 45.262 38.986 57.925 20.434 12.661 45.017 15.904 69.223 9.131 24.236-6.783 45.19-22.792 59-45.078 13.811-22.287 18.821-48.176 14.108-72.898-4.707-24.69-18.552-45.262-38.986-57.925-13.452-8.336-28.707-12.59-44.464-12.59zm70.192 143.94h.01z" fill="#670a39"/><path d="m273.224 295.727-9.654-5.204-102.011 169.503c1.538 1.129 5.72 4.174 8.203 5.982 1.285.935 2.58 1.849 3.929 2.689 42.281 26.302 98.936 7.565 127.07-37.836 29.847-48.164 18.33-109.253-27.537-135.134z" fill="#af4357"/><path d="M216.257 481.701c-15.352 0-30.183-4.123-43.094-12.155-1.449-.901-2.83-1.885-3.989-2.729-2.484-1.809-6.667-4.854-8.206-5.983a1 1 0 0 1-.265-1.322l102.011-169.504a.997.997 0 0 1 1.331-.364l9.654 5.204.017.009c20.686 11.672 35.42 31.129 41.49 54.786 6.896 26.88 1.942 56.675-13.594 81.744-15.07 24.319-38.801 41.795-65.108 47.948-6.77 1.583-13.559 2.366-20.247 2.366zm-53.37-21.942c1.874 1.371 5.308 3.872 7.463 5.44 1.13.822 2.474 1.78 3.869 2.648 18.081 11.248 40.039 14.634 61.829 9.539 25.794-6.033 49.071-23.184 63.863-47.054 15.25-24.609 20.118-53.839 13.356-80.194-5.932-23.122-20.325-42.135-40.528-53.537l-8.805-4.746z" fill="#670a39"/><ellipse cx="216.853" cy="377.862" fill="#ed7981" rx="99.098" ry="88.001" transform="matrix(.5267 -.85 .85 .5267 -218.5646 363.1528)"/><path d="M191.01 418.479c29.116 23.709 6.135 71.028-35.138 36.671-41.343-34.413-31.84-91.21 35.138-36.671zm2.522-50.618c-26.215 12.301-51.298 14.771-53.809-9.931-2.191-21.553 22.001-69.32 76.046-74.958 56.692-5.914 79.495 32.126 66.889 47.339-12.697 15.323-27.388 8.58-89.126 37.55z" fill="#df5468"/><path d="M207.028 474.992c-14.954 0-29.718-3.875-42.902-12.045-41.715-25.85-52-85.05-22.926-131.966s86.664-64.054 128.379-38.204c41.715 25.851 52 85.051 22.926 131.966l-.85-.526.85.526c-19.885 32.088-53.115 50.249-85.477 50.249zm19.64-192.264c-31.689 0-64.259 17.825-83.768 49.306-28.492 45.979-18.498 103.944 22.28 129.214 40.777 25.266 97.133 8.419 125.625-37.558 28.492-45.979 18.498-103.943-22.28-129.214-12.857-7.967-27.264-11.748-41.857-11.748z" fill="#670a39"/><ellipse cx="213.13" cy="374.524" fill="#670a39" rx="70.141" ry="62.286" transform="matrix(.5201 -.8541 .8541 .5201 -217.6016 361.7479)"/><path d="M206.234 443.617c-10.474 0-20.825-2.68-30.107-8.333-14.457-8.805-24.186-23.412-27.395-41.131-3.201-17.675.474-36.337 10.346-52.548 20.404-33.502 61.251-45.992 91.055-27.842 14.457 8.805 24.186 23.412 27.395 41.131 3.201 17.675-.474 36.337-10.346 52.548-14.049 23.068-37.794 36.175-60.948 36.175zm13.782-136.189c-22.477 0-45.555 12.766-59.23 35.219-9.618 15.792-13.2 33.957-10.086 51.15 3.105 17.148 12.505 31.275 26.467 39.778 28.863 17.581 68.476 5.389 88.306-27.174 9.618-15.792 13.2-33.957 10.086-51.15-3.105-17.148-12.505-31.275-26.467-39.778-8.959-5.457-18.958-8.045-29.076-8.045z" fill="#670a39"/><ellipse cx="211.038" cy="372.986" fill="#4a607c" rx="67.228" ry="59.7" transform="matrix(.5201 -.8541 .8541 .5201 -217.2912 359.2232)"/><g fill="#af4357"><ellipse cx="259.83" cy="306.223" rx="8.103" ry="6.539" transform="matrix(.7223 -.6916 .6916 .7223 -139.6221 264.7251)"/><ellipse cx="202.666" cy="295.642" rx="7.549" ry="5.274" transform="matrix(.7223 -.6916 .6916 .7223 -148.1785 222.2541)"/><ellipse cx="268.846" cy="425.813" rx="8.098" ry="6.543" transform="matrix(.6614 -.7501 .7501 .6614 -228.3476 345.8535)"/><ellipse cx="291.47" cy="355.519" rx="8.098" ry="6.543" transform="matrix(.6614 -.7501 .7501 .6614 -167.9602 339.0183)"/><ellipse cx="152.73" cy="432.952" rx="8.102" ry="6.541" transform="matrix(.6948 -.7192 .7192 .6948 -264.7566 241.9576)"/><ellipse cx="136.023" cy="379.005" rx="7.723" ry="5.367" transform="matrix(.5593 -.829 .829 .5593 -254.2343 279.7768)"/><ellipse cx="208.236" cy="457.468" rx="8.102" ry="6.541" transform="matrix(.6948 -.7192 .7192 .6948 -265.449 289.3561)"/><ellipse cx="154.763" cy="329.578" rx="7.897" ry="5.36" transform="matrix(.6614 -.7501 .7501 .6614 -194.7977 227.6932)"/></g><path d="M244.145 321.901c22.133 15.057 26.669 47.319 10.325 73.446-16.39 26.201-52.92 41.568-80.187 23.018-22.133-15.057-26.668-47.318-10.324-73.446 16.39-26.201 52.918-41.568 80.186-23.018z" fill="#517fb6"/><path d="M219.779 408.416c7.589-4.15 15.705 3.683 4.788 9.514-10.937 5.841-22.246.033-4.788-9.514zm-22.326-.511c7.051 1.444 12.429 4.236 9.299 8.3-2.731 3.546-14.613 7.472-26.248 1.505-12.206-6.26-11.151-14.644-6.393-15.36 4.791-.722 6.737 2.155 23.342 5.555z" fill="#82b3fb"/><path d="M234.149 321.874c-5.208 1.604-7.435 8.73-6.966 16.707.469 7.966 3.433 15.314 8.871 15.933 5.398.615 11.557-7.542 10.84-17.73-.716-10.2-7.614-16.49-12.745-14.91zm-67.306 59.848c6.279-3.163 19.183-13.376 29.597-24.336 21.675-22.812 37.662-50.863 6.895-42.184-50.03 14.114-59.828 78.275-36.492 66.52z" fill="#b5dcfa"/><path d="M195.45 330.261c14.632-11.175 10.351-19.376-10.473-3.342-20.858 16.061-23.185 29.049 10.473 3.342z" fill="#fff8ed"/><path d="M206.234 443.617c-10.474 0-20.825-2.68-30.107-8.333-14.457-8.805-24.186-23.412-27.395-41.131-3.201-17.675.474-36.337 10.346-52.548 20.404-33.502 61.251-45.992 91.055-27.842 14.457 8.805 24.186 23.412 27.395 41.131 3.201 17.675-.474 36.337-10.346 52.548-14.049 23.068-37.794 36.175-60.948 36.175zm13.782-136.189c-22.477 0-45.555 12.766-59.23 35.219-9.618 15.792-13.2 33.957-10.086 51.15 3.105 17.148 12.505 31.275 26.467 39.778 28.863 17.581 68.476 5.389 88.306-27.174 9.618-15.792 13.2-33.957 10.086-51.15-3.105-17.148-12.505-31.275-26.467-39.778-8.959-5.457-18.958-8.045-29.076-8.045z" fill="#670a39"/></svg></g><g transform="translate(217.0 562.0) rotate(0.0 118.5 137.5) scale(0.9919057145487875 0.9864196910892226)"><svg width="238.934" height="278.786" viewBox="0 0 238.934 278.786"><path d="m237.934 73.465-7.643 14.515-77.268 146.72c-20.753 39.407-69.525 54.534-108.932 33.781A80.63 80.63 0 0 1 16.458 149.67s0-.01.02-.02c0 0 0-.01.01-.01v-.01c.518-.712 8.632-11.868 108.172-148.63 5.345 1.603 11.373 3.934 17.802 6.813 24.495 10.961 54.877 29.914 76.203 47.345 7.931 6.474 14.611 12.742 19.269 18.307z" fill="#ffae5d"/><path d="M34.77 100.404a1 1 0 0 1-.797-1.603l51.261-67.707a1 1 0 0 1 1.595 1.207l-51.261 67.707a1.001 1.001 0 0 1-.798.396z" fill="#670a39"/><path d="M231.494 66.579c-1.02 1.68-2.05 3.37-3.09 5.06-69.06 112.09-175.18 172.08-175.18 172.08s5.84-121.77 74.9-233.86c1.37-2.22 2.74-4.42 4.11-6.61 5.28 2 11.19 4.59 17.54 7.7.92.45 1.84.91 2.78 1.38 23.02 11.61 46.84 27.29 64.41 41.47 5.54 4.47 10.46 8.79 14.53 12.78z" fill="#ffca62"/><path d="M216.964 53.799c-43.37 58.89-101.47 88.84-101.47 88.84s.63-66.1 34.28-131.69c.92.45 1.84.91 2.78 1.38 23.02 11.611 46.84 27.29 64.41 41.47z" fill="#ffdf68"/><g fill="#670a39"><path d="M81.53 278.759c-12.812 0-25.802-3.021-37.905-9.394A81.717 81.717 0 0 1 2.2 215.908c-5.511-23.234-.737-46.965 13.444-66.819l.002.001.033-.049.366-.503c2.27-3.119 16.97-23.323 107.806-148.126a.996.996 0 0 1 1.096-.369c5.238 1.57 11.269 3.878 17.924 6.857 24.23 10.843 54.944 29.925 76.427 47.483 8.314 6.787 14.842 12.991 19.403 18.44a1 1 0 0 1 .118 1.107l-84.911 161.234c-14.604 27.733-43.021 43.595-72.378 43.595zm-64.3-128.45C3.422 169.675-1.224 192.804 4.146 215.446a79.715 79.715 0 0 0 40.411 52.15c38.856 20.463 87.117 5.497 107.581-33.362l84.597-160.638c-4.458-5.229-10.746-11.169-18.702-17.664-21.36-17.458-51.894-36.429-75.979-47.206-6.291-2.817-12.006-5.022-17.004-6.562C34.585 126.457 19.929 146.6 17.663 149.714l-.327.449a.891.891 0 0 1-.106.146zm187.645 13.515a1 1 0 0 1-.884-1.466l29.889-56.754a1 1 0 1 1 1.77.932l-29.889 56.754c-.18.339-.527.534-.886.534z"/></g></svg></g><g transform="translate(94.0 651.0) rotate(0.0 236.0 109.5) scale(1.0008078554935234 1.0001415725513658)"><svg width="471.619" height="218.969" viewBox="0 0 471.619 218.969"><circle cx="88.655" cy="102.735" fill="#f6e4d5" r="31.056"/><path d="M88.603 134.783a31.863 31.863 0 0 1-17.128-4.982c-7.229-4.59-12.238-11.719-14.105-20.076-1.867-8.356-.368-16.939 4.221-24.169 9.473-14.923 29.321-19.356 44.244-9.885 7.229 4.59 12.238 11.719 14.105 20.076 1.867 8.356.368 16.939-4.221 24.169-6.099 9.607-16.5 14.867-27.116 14.867zm.101-62.096c-9.955 0-19.706 4.932-25.424 13.94-4.303 6.777-5.708 14.825-3.958 22.661 1.75 7.835 6.447 14.521 13.225 18.822 13.992 8.883 32.602 4.724 41.484-9.268 4.303-6.777 5.708-14.825 3.958-22.661-1.75-7.835-6.447-14.521-13.225-18.822a29.894 29.894 0 0 0-16.06-4.672zm26.171 46.692h.01z" fill="#670a39"/><path d="M467.685 164.125c-8.184-19.934-30.977-29.459-50.91-21.275a39.07 39.07 0 0 0-9.136 5.297c-4.851-7.197-14.241-10.251-22.585-6.825-9.548 3.92-14.11 14.838-10.19 24.386 3.027 7.373 10.229 11.753 17.749 11.569a38.838 38.838 0 0 0 2.887 16.484c8.184 19.934 30.977 29.459 50.911 21.275 19.933-8.184 29.458-30.977 21.274-50.911z" fill="#f6e4d5"/><path d="M431.644 218.96c-15.756 0-30.725-9.365-37.069-24.819a39.664 39.664 0 0 1-2.993-15.867c-7.701-.23-14.703-5.022-17.643-12.186-4.123-10.043.693-21.567 10.736-25.69 8.271-3.399 17.846-.727 23.181 6.333a40.096 40.096 0 0 1 8.54-4.805c20.412-8.382 43.835 1.408 52.215 21.819 4.06 9.888 4.025 20.765-.096 30.627s-11.836 17.529-21.724 21.589a39.813 39.813 0 0 1-15.147 2.999zm-39.031-42.684a.996.996 0 0 1 .999 1.043 37.695 37.695 0 0 0 2.813 16.062c6.027 14.681 20.25 23.577 35.217 23.579 4.802 0 9.678-.915 14.389-2.849 9.394-3.856 16.723-11.141 20.639-20.51 3.915-9.37 3.948-19.703.091-29.097-7.961-19.392-30.214-28.689-49.606-20.729a38.082 38.082 0 0 0-8.902 5.162.997.997 0 0 1-1.442-.232c-4.661-6.914-13.651-9.628-21.376-6.459-9.022 3.704-13.349 14.059-9.645 23.081 2.762 6.726 9.51 11.174 16.8 10.948a.17.17 0 0 0 .023.001z" fill="#670a39"/><path d="M431.644 218.96c-15.756 0-30.725-9.365-37.069-24.819-3.577-8.714-3.954-18.491-1.06-27.53a.999.999 0 1 1 1.904.61c-2.75 8.592-2.393 17.883 1.005 26.161 6.027 14.681 20.25 23.577 35.217 23.579 4.802 0 9.678-.915 14.389-2.849a1 1 0 1 1 .76 1.85 39.822 39.822 0 0 1-15.146 2.998z" fill="#670a39"/><circle cx="426.56" cy="181.128" fill="#fff8ed" r="27.964"/><circle cx="281.701" cy="22.756" fill="#fff8ed" r="17.412"/><path d="M281.665 41.174c-3.454 0-6.844-.978-9.831-2.873-8.571-5.441-11.117-16.842-5.677-25.413 5.441-8.57 16.841-11.113 25.412-5.677 4.152 2.636 7.029 6.73 8.101 11.53s.211 9.729-2.425 13.882a18.295 18.295 0 0 1-11.53 8.102 18.549 18.549 0 0 1-4.05.449zm.063-34.825c-5.436 0-10.759 2.692-13.882 7.611-4.85 7.64-2.58 17.802 5.06 22.652a16.296 16.296 0 0 0 12.374 2.16 16.305 16.305 0 0 0 10.278-7.222c2.349-3.7 3.117-8.095 2.161-12.373s-3.52-7.929-7.221-10.277a16.324 16.324 0 0 0-8.77-2.551z" fill="#670a39"/><path d="M262.602 74.485h-.011c5.695-34.006-32.115-57.709-59.851-39.347-4.776 3.023-9.182 7.677-11.777 11.981h-.011c-31.553-19.453-68.345-8.479-85.654 18.791-11.595 18.266-12.388 40.3-4.079 58.641-24.683-29.26-70.819-26.229-91.371 6.165-16.77 26.419-9.022 61.527 17.505 78.374 25.975 16.488 60.215 9.25 77.378-16.028 12.951 9.339 29.921 9.672 43.234.45a47.975 47.975 0 0 0 5.6 8.009v.011c19.637 22.695 56.775 22.885 76.072-5.824a73.76 73.76 0 0 0 13.319 10.846c34.069 21.628 79.209 11.542 100.836-22.527 35.748-56.3-16.82-127.376-81.19-109.542z" fill="#fff8ed"/><path d="M343.791 184.025c-21.628 34.069-66.767 44.155-100.836 22.527a73.718 73.718 0 0 1-13.319-10.846c-19.296 28.709-56.435 28.52-76.072 5.824v-.011a45.86 45.86 0 0 1-3.233-4.197c30.167 21.766 72.361 4.43 78.919-31.671 25.597 39.153 83.482 38.976 108.716-.782 12.195-19.218 12.998-42.431 4.154-61.692 16.264 23.428 17.913 55.27 1.671 80.848zm-185.848-.963c-11.542 18.112-35.844 22.589-53.213 10 0 0 0 .011-.011.011-25.263 37.192-81.31 31.283-98.952-9.144 28.212 32.971 81.957 21.169 93.866-20.471 4.461 28.716 38.522 40.095 58.31 19.604z" fill="#f6e4d5"/><g fill="#670a39"><path d="M281.967 218.959c-13.896.001-27.53-3.933-39.548-11.562a74.781 74.781 0 0 1-12.644-10.128c-9.148 13.023-22.41 20.68-37.471 21.596-14.91.919-29.675-5.329-39.496-16.68a.948.948 0 0 1-.072-.095 48.468 48.468 0 0 1-5.105-7.148c-13.136 8.583-29.658 8.397-42.65-.482-8.459 12.007-21.002 20.251-35.43 23.258-14.794 3.084-29.969.318-42.733-7.782C-.079 192.854-8.07 157.077 9.003 130.18l.094-.147c9.303-14.57 23.924-23.808 40.27-26.065a57.733 57.733 0 0 1 4.104-.464c10.62-.805 21.034 1.354 30.357 6.126a56.93 56.93 0 0 1 14.419 10.204c-6.378-18.108-4.181-38.098 6.207-54.461 8.775-13.825 22.328-23.546 38.163-27.371 16.121-3.893 33.133-1.138 48.014 7.751 11.637-18.378 31.937-21.011 47.088-15.376 15.289 5.686 29.067 21.045 26.093 42.751 29.655-7.612 59.334 2.972 77.756 27.836 18.651 25.174 19.826 57.206 3.067 83.598-10.603 16.703-27.074 28.277-46.379 32.59a74.718 74.718 0 0 1-16.289 1.807zm-52.331-24.252a1 1 0 0 1 .717.303 72.978 72.978 0 0 0 13.139 10.699c16.251 10.317 35.546 13.688 54.329 9.49 18.783-4.196 34.809-15.458 45.126-31.71 16.305-25.677 15.161-56.842-2.985-81.335-18.225-24.599-47.765-34.83-77.093-26.705a1.047 1.047 0 0 1-.267.036h-.011a1 1 0 0 1-.985-1.168c3.658-21.383-9.711-36.534-24.584-42.064-14.608-5.43-34.25-2.782-45.203 15.383-.276.458-.936.616-1.392.335-14.623-9.017-31.435-11.862-47.341-8.023-15.327 3.702-28.448 13.113-36.944 26.499-10.965 17.272-12.502 38.721-4.13 57.431 5.242 6.21 9.194 13.605 11.498 21.872a.999.999 0 1 1-1.927.537c-2.198-7.889-5.954-14.958-10.929-20.91a1.025 1.025 0 0 1-.189-.167c-5.067-5.801-11.001-10.434-17.48-13.761-5.306-2.643-11.121-4.484-17.297-5.397-5.52-.815-10.986-.82-16.261-.068-15.845 2.438-30.109 11.673-38.736 25.271-16.482 25.965-8.768 60.505 17.197 76.994 12.322 7.82 26.973 10.492 41.253 7.513 14.249-2.97 26.594-11.23 34.761-23.259a.998.998 0 0 1 1.412-.25c12.713 9.167 29.231 9.341 42.08.438a1.002 1.002 0 0 1 1.443.336 46.642 46.642 0 0 0 5.481 7.84c.026.03.05.062.072.094 9.416 10.832 23.536 16.781 37.791 15.91 14.808-.9 27.814-8.614 36.623-21.72a1 1 0 0 1 .832-.444z"/><path d="M189.328 219.001c-8.984 0-17.877-2.561-25.831-7.609a1.001 1.001 0 0 1 1.072-1.69c12.963 8.229 28.527 9.566 42.701 3.663 14.225-5.922 24.271-17.915 27.562-32.904a.999.999 0 1 1 1.953.429c-3.383 15.405-14.129 28.235-28.747 34.321-6.088 2.535-12.422 3.79-18.71 3.79zm-62.643-17.799c-12.916 0-24.803-6.364-31.847-17.065a1 1 0 1 1 1.671-1.1c6.722 10.213 18.125 16.261 30.452 16.164 12.276-.091 23.544-6.324 30.14-16.676l.04-.062a1 1 0 1 1 1.647 1.135l-.001.001c-6.962 10.926-18.855 17.506-31.812 17.602l-.29.001zm114.193-97.024a1 1 0 0 1-.43-1.903c11.07-5.258 19.18-15.969 21.166-27.953 3.657-21.383-9.679-36.501-24.519-42-14.701-5.45-34.404-2.827-45.287 15.311-2.937 4.688-4.787 9.798-5.509 15.207a1 1 0 0 1-1.983-.264c.76-5.695 2.707-11.074 5.786-15.989 11.462-19.103 32.212-21.875 47.687-16.141 15.614 5.787 29.646 21.7 25.796 44.208-2.091 12.615-10.629 23.894-22.281 29.428a.987.987 0 0 1-.426.096z"/></g><circle cx="75.928" cy="12.847" fill="#fff8ed" r="11.846"/><path d="M75.908 25.689c-2.354 0-4.734-.645-6.864-1.996-5.98-3.797-7.756-11.751-3.961-17.73 3.796-5.979 11.749-7.756 17.729-3.961 2.897 1.839 4.904 4.696 5.652 8.045s.147 6.788-1.692 9.686c-2.442 3.849-6.61 5.956-10.864 5.956zm.038-23.685c-3.592 0-7.11 1.779-9.174 5.03-3.205 5.049-1.705 11.764 3.344 14.97 5.049 3.203 11.764 1.705 14.969-3.345a10.776 10.776 0 0 0 1.428-8.178 10.772 10.772 0 0 0-4.772-6.791 10.785 10.785 0 0 0-5.795-1.686zm9.983 17.192h.01z" fill="#670a39"/></svg></g></svg>