<svg xmlns="http://www.w3.org/2000/svg"  viewBox="0 0 24 24" width="24px" height="24px" fill="#FFFFFF"><path d="M 12.001953 0 C 11.819953 1.8503717e-17 11.637141 0.065265625 11.494141 0.19726562 L 10.818359 0.81640625 L 10.029297 0.3515625 C 9.6942969 0.1515625 9.2631094 0.24454687 9.0371094 0.56054688 L 8.5078125 1.3046875 L 7.6386719 1.0117188 C 7.2706719 0.88871875 6.8649375 1.0667813 6.7109375 1.4257812 L 6.3496094 2.2597656 L 5.4375 2.1523438 C 5.0495 2.1143437 4.6922344 2.367 4.6152344 2.75 L 4.4375 3.640625 L 3.5253906 3.7246094 C 3.1363906 3.7606094 2.83975 4.0894687 2.84375 4.4804688 L 2.8535156 5.3867188 L 1.9804688 5.6582031 C 1.6064687 5.7742031 1.3866562 6.1590156 1.4726562 6.5410156 L 1.671875 7.4238281 L 0.87695312 7.8671875 C 0.53495313 8.0591875 0.39554687 8.4828906 0.56054688 8.8378906 L 0.94140625 9.6582031 L 0.25585938 10.259766 C -0.039140625 10.517766 -0.084609375 10.960437 0.15039062 11.273438 L 0.69335938 12 L 0.15039062 12.724609 C -0.085609375 13.038609 -0.0371875 13.480281 0.2578125 13.738281 L 0.94140625 14.337891 L 0.5625 15.160156 C 0.3985 15.516156 0.53495312 15.939859 0.87695312 16.130859 L 1.6738281 16.574219 L 1.4726562 17.457031 C 1.3856563 17.839031 1.6084219 18.223844 1.9824219 18.339844 L 2.8554688 18.611328 L 2.84375 19.517578 C 2.83975 19.908578 3.1363906 20.237437 3.5253906 20.273438 L 4.4375 20.357422 L 4.6152344 21.248047 C 4.6922344 21.630047 5.0495 21.885703 5.4375 21.845703 L 6.3496094 21.740234 L 6.7109375 22.576172 C 6.8649375 22.933172 7.2677188 23.111281 7.6367188 22.988281 L 8.5078125 22.695312 L 9.0351562 23.439453 C 9.2611563 23.755453 9.6913437 23.850391 10.027344 23.650391 L 10.818359 23.185547 L 11.492188 23.802734 C 11.635188 23.934734 11.818 24 12 24 C 12.182 24 12.364812 23.934688 12.507812 23.804688 L 13.181641 23.1875 L 13.972656 23.652344 C 14.307656 23.853344 14.738844 23.757406 14.964844 23.441406 L 15.492188 22.697266 L 16.363281 22.990234 C 16.732281 23.113234 17.134062 22.935125 17.289062 22.578125 L 17.652344 21.742188 L 18.5625 21.849609 C 18.9515 21.888609 19.307766 21.633953 19.384766 21.251953 L 19.564453 20.361328 L 20.476562 20.275391 C 20.865562 20.239391 21.16025 19.910531 21.15625 19.519531 L 21.146484 18.613281 L 22.019531 18.34375 C 22.393531 18.22775 22.613344 17.842938 22.527344 17.460938 L 22.328125 16.576172 L 23.123047 16.132812 C 23.465047 15.940812 23.604453 15.517109 23.439453 15.162109 L 23.058594 14.341797 L 23.744141 13.740234 C 24.039141 13.482234 24.084609 13.039563 23.849609 12.726562 L 23.306641 12 L 23.851562 11.275391 C 24.087562 10.961391 24.039141 10.519719 23.744141 10.261719 L 23.060547 9.6621094 L 23.439453 8.8398438 C 23.603453 8.4838438 23.467 8.0601406 23.125 7.8691406 L 22.328125 7.4257812 L 22.529297 6.5429688 C 22.616297 6.1609687 22.393531 5.7761562 22.019531 5.6601562 L 21.146484 5.3886719 L 21.158203 4.4824219 C 21.162203 4.0914219 20.865562 3.7625625 20.476562 3.7265625 L 19.564453 3.6425781 L 19.386719 2.7519531 C 19.309719 2.3689531 18.954453 2.1162969 18.564453 2.1542969 L 17.652344 2.2597656 L 17.291016 1.4257812 C 17.136016 1.0677813 16.732281 0.88871875 16.363281 1.0117188 L 15.494141 1.3046875 L 14.964844 0.56054688 C 14.738844 0.24354687 14.306656 0.1505625 13.972656 0.3515625 L 13.183594 0.81640625 L 12.507812 0.19726562 C 12.364813 0.065265625 12.183953 -1.8503717e-17 12.001953 0 z M 9.859375 1.9921875 L 10.535156 2.390625 C 10.646968 2.4571608 10.770749 2.4808555 10.894531 2.484375 C 10.819231 2.6479809 10.771484 2.8241486 10.771484 3.0078125 C 10.771484 3.3163113 10.895564 3.5876342 11.080078 3.8066406 C 9.1495264 4.0261912 7.3371681 4.926995 6.0019531 6.3574219 C 6.0019531 6.3574219 6 6.359375 6 6.359375 C 6 6.359375 5.9980469 6.3613281 5.9980469 6.3613281 C 5.9917482 6.3680852 5.984793 6.3740789 5.9785156 6.3808594 C 5.9482615 6.4136975 5.9354465 6.4539299 5.9121094 6.4902344 C 5.8852992 6.5315676 5.854293 6.568836 5.8359375 6.6152344 C 5.8127793 6.6738931 5.8066282 6.7352905 5.7988281 6.796875 C 5.7946567 6.8288747 5.7792969 6.8574941 5.7792969 6.890625 C 5.7792969 6.8947584 5.7811833 6.8982262 5.78125 6.9023438 C 5.7824494 6.9786709 5.803827 7.0520317 5.828125 7.125 C 5.8346694 7.1445063 5.8337287 7.1667918 5.8417969 7.1855469 C 5.8595686 7.2269005 5.8924446 7.2606608 5.9179688 7.2988281 C 5.9484369 7.3442691 5.9742713 7.3920062 6.0136719 7.4296875 C 6.0168091 7.4326782 6.0182839 7.4365045 6.0214844 7.4394531 C 6.0449711 7.461157 6.0742262 7.4701417 6.0996094 7.4882812 C 6.1505494 7.5250095 6.2003694 7.5608442 6.2597656 7.5839844 C 6.3042789 7.6012806 6.3500591 7.6048019 6.3964844 7.6132812 C 6.4412872 7.6216387 6.4820824 7.640625 6.5292969 7.640625 L 14.369141 7.640625 C 14.485141 7.641625 15.0635 7.7179219 15.5625 8.0449219 C 15.9495 8.3029219 16.410156 8.7489219 16.410156 9.4199219 C 16.410156 9.9089219 16.006937 10.420406 15.210938 10.941406 C 15.007938 11.073406 14.895766 11.307828 14.884766 11.548828 C 14.873766 11.789828 14.995547 12.032641 15.185547 12.181641 C 15.723547 12.604641 15.923328 12.762313 16.111328 13.820312 C 16.266328 14.440312 16.975609 14.798828 17.599609 14.798828 C 17.665609 14.798828 17.729969 14.795109 17.792969 14.787109 C 18.697969 14.699109 19.250891 14.139234 19.337891 13.240234 L 19.470703 13.240234 C 19.568911 13.240234 19.662849 13.218823 19.75 13.183594 C 19.778014 13.172253 19.799956 13.153181 19.826172 13.138672 C 19.881561 13.108191 19.934493 13.076435 19.980469 13.033203 C 20.007241 13.008001 20.025985 12.978083 20.048828 12.949219 C 20.083682 12.905408 20.118068 12.861986 20.142578 12.810547 C 20.159282 12.775485 20.166573 12.737019 20.177734 12.699219 C 20.189452 12.659798 20.209624 12.624231 20.214844 12.582031 C 20.21855 12.552694 20.21757 12.520096 20.220703 12.490234 C 20.220703 12.490234 20.220703 12.488281 20.220703 12.488281 C 20.237593 12.325941 20.25 12.159392 20.25 12 C 20.25 11.397734 20.181719 10.812011 20.058594 10.246094 C 20.720009 10.214808 21.25 9.6709424 21.25 9.0019531 C 21.25 8.8099705 21.194362 8.6297099 21.113281 8.4628906 L 21.787109 8.8398438 L 21.464844 9.5410156 C 21.324844 9.8430156 21.400391 10.200922 21.650391 10.419922 L 22.234375 10.931641 L 21.771484 11.550781 C 21.571484 11.815781 21.571484 12.183219 21.771484 12.449219 L 22.234375 13.068359 L 21.650391 13.580078 C 21.400391 13.799078 21.324844 14.156984 21.464844 14.458984 L 21.787109 15.160156 L 21.109375 15.539062 C 20.819375 15.701062 20.669187 16.035375 20.742188 16.359375 L 20.912109 17.113281 L 20.167969 17.34375 C 19.850969 17.44275 19.636625 17.738312 19.640625 18.070312 L 19.648438 18.84375 L 18.869141 18.916016 C 18.539141 18.948016 18.268125 19.191625 18.203125 19.515625 L 18.050781 20.275391 L 17.339844 20.193359 C 17.863356 20.044442 18.25 19.567475 18.25 18.996094 C 18.25 18.562837 18.03037 18.180202 17.679688 17.953125 C 18.027743 17.620843 18.358404 17.265202 18.646484 16.871094 C 18.663779 16.847516 18.667504 16.819728 18.681641 16.794922 C 18.705923 16.752607 18.726431 16.711037 18.742188 16.664062 C 18.759405 16.612593 18.769743 16.562818 18.775391 16.509766 C 18.778397 16.482811 18.790949 16.459381 18.791016 16.431641 C 18.791066 16.410941 18.780895 16.39333 18.779297 16.373047 C 18.775447 16.32314 18.763645 16.276722 18.75 16.228516 C 18.736455 16.180827 18.723411 16.135122 18.701172 16.091797 C 18.68083 16.051708 18.654658 16.016789 18.626953 15.980469 C 18.594348 15.937909 18.56035 15.899915 18.519531 15.865234 C 18.505123 15.85294 18.497962 15.835571 18.482422 15.824219 C 18.460569 15.808189 18.435018 15.804346 18.412109 15.791016 C 18.366365 15.764192 18.3208 15.741342 18.269531 15.724609 C 18.220187 15.708527 18.171845 15.700809 18.121094 15.695312 C 18.094105 15.692298 18.070747 15.679755 18.042969 15.679688 L 14.880859 15.669922 C 14.755859 15.669922 14.493344 15.668594 14.402344 15.058594 L 14.386719 14.953125 C 14.310719 14.395125 14.080234 12.699219 12.240234 12.699219 L 10.300781 12.699219 C 9.8867813 12.699219 9.5507812 13.035219 9.5507812 13.449219 L 9.5507812 14.080078 C 9.5507812 14.494078 9.8867813 14.830078 10.300781 14.830078 L 11.460938 14.830078 L 11.460938 15.671875 L 5.9609375 15.679688 C 5.5469375 15.679688 5.2148438 16.015687 5.2148438 16.429688 C 5.2148437 16.616688 5.2844375 16.788922 5.3984375 16.919922 C 5.6755741 17.295984 5.991624 17.634152 6.3242188 17.953125 C 5.9771163 18.179606 5.75 18.570044 5.75 19 C 5.75 19.567074 6.1317622 20.043058 6.6503906 20.195312 L 5.9511719 20.275391 L 5.7988281 19.515625 C 5.7338281 19.190625 5.4628125 18.947016 5.1328125 18.916016 L 4.3535156 18.84375 L 4.3613281 18.070312 C 4.3653281 17.738312 4.1509844 17.44275 3.8339844 17.34375 L 3.0898438 17.113281 L 3.2597656 16.359375 C 3.3327656 16.035375 3.1825781 15.701063 2.8925781 15.539062 L 2.2148438 15.160156 L 2.5371094 14.458984 C 2.6771094 14.156984 2.6015625 13.799078 2.3515625 13.580078 L 1.7675781 13.068359 L 2.2304688 12.449219 C 2.4304688 12.184219 2.4304688 11.816781 2.2304688 11.550781 L 1.7675781 10.931641 L 2.3515625 10.419922 C 2.6015625 10.200922 2.6771094 9.8430156 2.5371094 9.5410156 L 2.2148438 8.8398438 L 2.8789062 8.46875 C 2.8012169 8.6314424 2.75 8.8080902 2.75 9 C 2.75 9.168 2.7827031 9.3285156 2.8457031 9.4785156 C 3.0324861 9.9291055 3.4612459 10.220666 3.9453125 10.242188 C 3.8189383 10.816253 3.75 11.403055 3.75 12 C 3.75 12.741 3.8536406 13.484891 4.0566406 14.212891 C 4.0623312 14.232929 4.0748702 14.248405 4.0820312 14.267578 C 4.0932504 14.298028 4.1081345 14.325066 4.1230469 14.353516 C 4.150335 14.405369 4.1812609 14.453015 4.21875 14.496094 C 4.2399595 14.520634 4.2609752 14.542844 4.2851562 14.564453 C 4.3315841 14.60578 4.3826322 14.637418 4.4375 14.666016 C 4.4634545 14.679669 4.4860366 14.696444 4.5136719 14.707031 C 4.5977639 14.739156 4.6867477 14.759766 4.7792969 14.759766 L 6.9296875 14.759766 C 7.3436875 14.759766 7.6796875 14.423766 7.6796875 14.009766 L 7.6796875 9.1699219 C 7.6796875 8.7559219 7.3436875 8.4199219 6.9296875 8.4199219 L 5.1015625 8.4199219 C 4.8843302 8.0086139 4.4679822 7.75 4 7.75 C 3.7045452 7.75 3.4447061 7.8688411 3.2304688 8.0410156 C 3.2728603 7.9142008 3.2886793 7.7776228 3.2578125 7.640625 L 3.0878906 6.8847656 L 3.8320312 6.6542969 C 4.1490312 6.5562969 4.3653281 6.2616875 4.3613281 5.9296875 L 4.3515625 5.1542969 L 5.1308594 5.0820312 C 5.4608594 5.0510312 5.730875 4.809375 5.796875 4.484375 L 5.9492188 3.7246094 L 6.7285156 3.8144531 C 7.0525156 3.8474531 7.3729062 3.6721875 7.5039062 3.3671875 L 7.8125 2.6523438 L 8.5566406 2.9023438 C 8.8686406 3.0063437 9.21425 2.8969062 9.40625 2.6289062 L 9.859375 1.9921875 z M 14.140625 1.9921875 L 14.59375 2.6289062 C 14.78575 2.8969063 15.131359 3.0092969 15.443359 2.9042969 L 16.1875 2.6542969 L 16.496094 3.3671875 C 16.627094 3.6711875 16.940484 3.8474531 17.271484 3.8144531 L 18.050781 3.7246094 L 18.203125 4.484375 C 18.268125 4.809375 18.539141 5.0529844 18.869141 5.0839844 L 19.648438 5.15625 L 19.640625 5.9296875 C 19.636625 6.2616875 19.850969 6.55725 20.167969 6.65625 L 20.912109 6.8867188 L 20.742188 7.640625 C 20.712855 7.7708111 20.728528 7.899876 20.765625 8.0214844 C 20.686007 7.9589331 20.603004 7.9002896 20.507812 7.8574219 C 20.203812 7.7204219 19.862781 7.7120312 19.550781 7.8320312 C 19.429581 7.8786468 19.329112 7.9565968 19.230469 8.0351562 C 17.976536 5.7571521 15.677827 4.1368948 12.984375 3.8144531 C 13.164924 3.5917904 13.271484 3.3139443 13.271484 3.0253906 C 13.271484 2.8294087 13.216797 2.6498142 13.136719 2.484375 C 13.249863 2.4763838 13.362836 2.4515416 13.464844 2.390625 L 14.140625 1.9921875 z M 11.998047 2.7734375 C 12.130234 2.7630313 12.271484 2.8660625 12.271484 3.0078125 C 12.271484 3.0678125 12.248031 3.1269219 12.207031 3.1699219 L 11.857422 2.8417969 C 11.862422 2.8357969 11.867047 2.8302187 11.873047 2.8242188 C 11.909547 2.7929688 11.953984 2.7769063 11.998047 2.7734375 z M 11.845703 2.8515625 L 12.177734 3.2011719 C 12.041734 3.3331719 11.771484 3.2193906 11.771484 3.0253906 C 11.771484 2.9683906 11.790703 2.9125625 11.845703 2.8515625 z M 12 5.25 C 13.515774 5.25 14.911132 5.7587232 16.039062 6.6054688 C 15.355351 6.2558056 14.671138 6.140625 14.369141 6.140625 L 8.6679688 6.140625 C 9.6740333 5.5652656 10.822843 5.25 12 5.25 z M 10.279297 8.1875 C 9.8652969 8.1875 9.5292969 8.5235 9.5292969 8.9375 L 9.5292969 11.4375 C 9.5292969 11.8515 9.8652969 12.1875 10.279297 12.1875 L 12.658203 12.1875 C 13.588203 12.1875 14.529297 11.524859 14.529297 10.255859 C 14.529297 8.8128594 13.414703 8.1875 12.845703 8.1875 L 10.279297 8.1875 z M 17.761719 8.5019531 C 18.341752 9.4537501 18.690999 10.557316 18.736328 11.740234 L 18.710938 11.740234 C 18.220937 11.740234 17.849609 12.119094 17.849609 12.621094 L 17.849609 12.980469 C 17.849609 13.191469 17.807594 13.257812 17.808594 13.257812 C 17.806594 13.258813 17.769 13.282875 17.625 13.296875 C 17.599 13.299875 17.567109 13.296062 17.537109 13.289062 C 17.371109 12.478063 17.128016 12.003141 16.791016 11.619141 C 17.535016 10.949141 17.910156 10.212922 17.910156 9.4199219 C 17.910156 9.0811243 17.853505 8.7767194 17.761719 8.5019531 z M 4 8.75 C 4.102 8.75 4.1925156 8.8114844 4.2285156 8.8964844 C 4.2435156 8.9324844 4.25 8.966 4.25 9 C 4.25 9.232 3.8783906 9.317375 3.7753906 9.109375 C 3.7583906 9.075375 3.75 9.039 3.75 9 C 3.75 8.862 3.862 8.75 4 8.75 z M 20 8.7519531 C 20.138 8.7519531 20.25 8.8629531 20.25 9.0019531 C 20.25 9.0349224 20.243727 9.0682088 20.230469 9.0996094 C 20.230469 9.1016094 20.229516 9.1034688 20.228516 9.1054688 C 20.201516 9.1634687 20.151797 9.211375 20.091797 9.234375 C 20.030797 9.257375 19.958531 9.2555625 19.894531 9.2265625 C 19.808531 9.1875625 19.75 9.0979531 19.75 9.0019531 C 19.75 8.8639531 19.862 8.7519531 20 8.7519531 z M 11.029297 9.6875 L 12.759766 9.6875 C 12.844766 9.7275 13.029297 9.8598594 13.029297 10.255859 C 13.029297 10.385859 13.030203 10.6875 12.658203 10.6875 L 11.029297 10.6875 L 11.029297 9.6875 z M 5.5859375 9.9199219 L 6.1796875 9.9199219 L 6.1796875 13.259766 L 5.3867188 13.259766 C 5.3053112 12.841064 5.25 12.420562 5.25 12 C 5.25 11.285343 5.3661933 10.588618 5.5859375 9.9199219 z M 12.960938 15.505859 C 13.191937 16.538859 13.912906 17.169922 14.878906 17.169922 L 16.318359 17.173828 C 15.117893 18.176856 13.5888 18.75 12 18.75 C 10.408686 18.75 8.8822037 18.17912 7.6875 17.177734 L 12.091797 17.169922 C 12.662797 17.169922 12.960938 16.756609 12.960938 16.349609 L 12.960938 15.505859 z M 17 18.746094 L 17.058594 18.753906 C 17.169594 18.777906 17.25 18.880094 17.25 18.996094 C 17.25 19.134094 17.136406 19.270281 16.941406 19.238281 C 16.830406 19.214281 16.75 19.111094 16.75 18.996094 C 16.75 18.858094 16.862 18.746094 17 18.746094 z M 6.8925781 18.773438 L 6.8964844 19.226562 C 6.8104844 19.187563 6.75 19.101 6.75 19 C 6.75 18.9 6.8065781 18.814438 6.8925781 18.773438 z M 7.1035156 18.773438 C 7.1895156 18.812437 7.25 18.899 7.25 19 C 7.25 19.1 7.1924687 19.186563 7.1054688 19.226562 L 7.1035156 18.773438 z M 8.1972656 19.306641 C 9.357266 19.913482 10.658991 20.25 12 20.25 C 13.339147 20.25 14.642372 19.913884 15.804688 19.306641 C 15.919475 19.752498 16.258727 20.111656 16.726562 20.216797 C 16.791303 20.230775 16.859859 20.234158 16.927734 20.238281 C 16.742221 20.307978 16.580978 20.441191 16.498047 20.632812 L 16.1875 21.345703 L 15.443359 21.095703 C 15.129359 20.989703 14.78475 21.102094 14.59375 21.371094 L 14.140625 22.007812 L 13.464844 21.609375 C 13.180844 21.440375 12.819172 21.480125 12.576172 21.703125 L 12 22.232422 L 11.423828 21.703125 C 11.281828 21.573125 11.099016 21.505859 10.916016 21.505859 C 10.785016 21.505859 10.653109 21.539375 10.537109 21.609375 L 9.8613281 22.007812 L 9.4082031 21.371094 C 9.2172031 21.103094 8.8725938 20.991703 8.5585938 21.095703 L 7.8144531 21.345703 L 7.5039062 20.632812 C 7.422335 20.443517 7.2669926 20.312565 7.0839844 20.242188 C 7.1345761 20.238673 7.1862533 20.237498 7.234375 20.228516 C 7.247375 20.226516 7.2594844 20.223703 7.2714844 20.220703 C 7.7345063 20.117809 8.0809265 19.752213 8.1972656 19.306641 z"/></svg>